<?xml version="1.0" encoding="utf-8"?>
<!-- Generator: Adobe Illustrator 26.0.1, SVG Export Plug-In . SVG Version: 6.00 Build 0)  -->
<svg version="1.1" id="Layer_1" xmlns="http://www.w3.org/2000/svg" xmlns:xlink="http://www.w3.org/1999/xlink" x="0px" y="0px"
	 viewBox="0 0 517 514" style="enable-background:new 0 0 517 514;" xml:space="preserve">
<style type="text/css">
	.st0{fill-rule:evenodd;clip-rule:evenodd;fill:#4D4E4F;}
	.st1{fill-rule:evenodd;clip-rule:evenodd;fill:#141516;}
	.st2{fill-rule:evenodd;clip-rule:evenodd;fill:#E7B400;}
	.st3{fill-rule:evenodd;clip-rule:evenodd;fill:#121415;}
	.st4{fill-rule:evenodd;clip-rule:evenodd;fill:#E7BB00;}
	.st5{fill-rule:evenodd;clip-rule:evenodd;fill:#0F1111;}
	.st6{fill-rule:evenodd;clip-rule:evenodd;fill:#363738;}
	.st7{fill-rule:evenodd;clip-rule:evenodd;fill:#3B3C3D;}
	.st8{fill-rule:evenodd;clip-rule:evenodd;fill:#E7C700;}
	.st9{fill-rule:evenodd;clip-rule:evenodd;fill:#323434;}
	.st10{fill-rule:evenodd;clip-rule:evenodd;fill:#4B4C4D;}
	.st11{fill-rule:evenodd;clip-rule:evenodd;fill:#0C0E0F;}
	.st12{fill-rule:evenodd;clip-rule:evenodd;fill:#060809;}
	.st13{fill-rule:evenodd;clip-rule:evenodd;fill:#040707;}
	.st14{fill-rule:evenodd;clip-rule:evenodd;fill:#1E1F20;}
	.st15{fill-rule:evenodd;clip-rule:evenodd;fill:#373839;}
	.st16{fill-rule:evenodd;clip-rule:evenodd;fill:#2D2E2F;}
	.st17{fill-rule:evenodd;clip-rule:evenodd;fill:#2E3031;}
	.st18{fill-rule:evenodd;clip-rule:evenodd;fill:#090B0C;}
	.st19{fill-rule:evenodd;clip-rule:evenodd;fill:#0D0F10;}
	.st20{fill-rule:evenodd;clip-rule:evenodd;fill:#868788;}
	.st21{fill-rule:evenodd;clip-rule:evenodd;fill:#303132;}
	.st22{fill-rule:evenodd;clip-rule:evenodd;fill:#343535;}
	.st23{fill-rule:evenodd;clip-rule:evenodd;}
	.st24{fill-rule:evenodd;clip-rule:evenodd;fill:#07090A;}
	.st25{fill-rule:evenodd;clip-rule:evenodd;fill:#2F3132;}
	.st26{fill-rule:evenodd;clip-rule:evenodd;fill:#171819;}
	.st27{fill-rule:evenodd;clip-rule:evenodd;fill:#414243;}
	.st28{fill-rule:evenodd;clip-rule:evenodd;fill:#E7C100;}
	.st29{fill-rule:evenodd;clip-rule:evenodd;fill:#424444;}
	.st30{fill-rule:evenodd;clip-rule:evenodd;fill:#131516;}
	.st31{fill-rule:evenodd;clip-rule:evenodd;fill:#2D2F30;}
	.st32{fill-rule:evenodd;clip-rule:evenodd;fill:#2B2C2D;}
	.st33{fill-rule:evenodd;clip-rule:evenodd;fill:#E7CD00;}
	.st34{fill-rule:evenodd;clip-rule:evenodd;fill:#131415;}
	.st35{fill-rule:evenodd;clip-rule:evenodd;fill:#2B2D2E;}
	.st36{fill-rule:evenodd;clip-rule:evenodd;fill:#343536;}
	.st37{fill-rule:evenodd;clip-rule:evenodd;fill:#161818;}
	.st38{fill-rule:evenodd;clip-rule:evenodd;fill:#424344;}
	.st39{fill-rule:evenodd;clip-rule:evenodd;fill:#2F3131;}
	.st40{fill-rule:evenodd;clip-rule:evenodd;fill:#333535;}
	.st41{fill-rule:evenodd;clip-rule:evenodd;fill:#6E6F6F;}
	.st42{fill-rule:evenodd;clip-rule:evenodd;fill:#0D0F0F;}
	.st43{fill-rule:evenodd;clip-rule:evenodd;fill:#FFCD00;}
	.st44{fill-rule:evenodd;clip-rule:evenodd;fill:#111213;}
	.st45{fill-rule:evenodd;clip-rule:evenodd;fill:#0E1010;}
	.st46{fill-rule:evenodd;clip-rule:evenodd;fill:#191A1A;}
	.st47{fill-rule:evenodd;clip-rule:evenodd;fill:#494B4B;}
	.st48{fill-rule:evenodd;clip-rule:evenodd;fill:#3D3F3F;}
	.st49{fill-rule:evenodd;clip-rule:evenodd;fill:#0C0C0C;}
	.st50{fill-rule:evenodd;clip-rule:evenodd;fill:#8B004E;}
	.st51{fill-rule:evenodd;clip-rule:evenodd;fill:#585858;}
	.st52{fill-rule:evenodd;clip-rule:evenodd;fill:#E75700;}
	.st53{fill-rule:evenodd;clip-rule:evenodd;fill:#398B00;}
	.st54{fill-rule:evenodd;clip-rule:evenodd;fill:#BDE700;}
	.st55{fill-rule:evenodd;clip-rule:evenodd;fill:#682EFF;}
	.st56{fill-rule:evenodd;clip-rule:evenodd;fill:#666666;}
	.st57{fill-rule:evenodd;clip-rule:evenodd;fill:#9A9A9A;}
	.st58{fill-rule:evenodd;clip-rule:evenodd;fill:#464646;}
	.st59{fill-rule:evenodd;clip-rule:evenodd;fill:#004DA2;}
	.st60{fill-rule:evenodd;clip-rule:evenodd;fill:#939393;}
	.st61{fill-rule:evenodd;clip-rule:evenodd;fill:#949494;}
	.st62{fill-rule:evenodd;clip-rule:evenodd;fill:#8E8F8E;}
	.st63{fill-rule:evenodd;clip-rule:evenodd;fill:#7E7F7E;}
	.st64{fill-rule:evenodd;clip-rule:evenodd;fill:#373737;}
	.st65{fill-rule:evenodd;clip-rule:evenodd;fill:#363636;}
	.st66{fill-rule:evenodd;clip-rule:evenodd;fill:#090909;}
	.st67{fill-rule:evenodd;clip-rule:evenodd;fill:#00A6D0;}
	.st68{fill-rule:evenodd;clip-rule:evenodd;fill:#313132;}
	.st69{fill-rule:evenodd;clip-rule:evenodd;fill:#393939;}
	.st70{fill-rule:evenodd;clip-rule:evenodd;fill:#707070;}
	.st71{fill-rule:evenodd;clip-rule:evenodd;fill:#C6C8CA;}
	.st72{fill-rule:evenodd;clip-rule:evenodd;fill:#2B2B2B;}
	.st73{fill-rule:evenodd;clip-rule:evenodd;fill:#343434;}
	.st74{fill-rule:evenodd;clip-rule:evenodd;fill:#414141;}
	.st75{fill-rule:evenodd;clip-rule:evenodd;fill:#777877;}
	.st76{fill-rule:evenodd;clip-rule:evenodd;fill:#0D0D0D;}
	.st77{fill-rule:evenodd;clip-rule:evenodd;fill:#111111;}
	.st78{fill-rule:evenodd;clip-rule:evenodd;fill:#282828;}
	.st79{fill-rule:evenodd;clip-rule:evenodd;fill:#494949;}
	.st80{fill-rule:evenodd;clip-rule:evenodd;fill:#4E4F4E;}
	.st81{fill-rule:evenodd;clip-rule:evenodd;fill:#686868;}
	.st82{fill-rule:evenodd;clip-rule:evenodd;fill:#101010;}
	.st83{fill-rule:evenodd;clip-rule:evenodd;fill:#6E6F71;}
	.st84{fill-rule:evenodd;clip-rule:evenodd;fill:#8E8E8E;}
	.st85{fill-rule:evenodd;clip-rule:evenodd;fill:#E2E2E3;}
	.st86{fill-rule:evenodd;clip-rule:evenodd;fill:#727272;}
	.st87{fill-rule:evenodd;clip-rule:evenodd;fill:#4F4F50;}
	.st88{fill-rule:evenodd;clip-rule:evenodd;fill:#131313;}
	.st89{fill-rule:evenodd;clip-rule:evenodd;fill:#050505;}
	.st90{fill-rule:evenodd;clip-rule:evenodd;fill:#2D2D2D;}
	.st91{fill-rule:evenodd;clip-rule:evenodd;fill:#4C4C4C;}
	.st92{fill-rule:evenodd;clip-rule:evenodd;fill:#151515;}
	.st93{fill-rule:evenodd;clip-rule:evenodd;fill:#424242;}
	.st94{fill-rule:evenodd;clip-rule:evenodd;fill:#030303;}
	.st95{fill-rule:evenodd;clip-rule:evenodd;fill:#171717;}
</style>
<g>
	<path class="st0" d="M149.5,29.5c-1.3,0-2,0.7-2,2c-1.7-5.8-3.7-11.8-6-18c0-3.7,1-4.4,3-2C146.5,17.4,148.2,23.4,149.5,29.5z"/>
</g>
<g>
	<path class="st1" d="M149.5,29.5c0,0.7,0,1.3,0,2c0,1.3,0,2.7,0,4c-1.7-0.7-2.3-2-2-4C147.5,30.2,148.2,29.5,149.5,29.5z"/>
</g>
<g>
	<path class="st2" d="M149.5,31.5c1.7,0.7,2.3,2,2,4c-0.7,0-1.3,0-2,0C149.5,34.2,149.5,32.8,149.5,31.5z"/>
</g>
<g>
	<path class="st3" d="M149.5,35.5c0.7,0,1.3,0,2,0c0,1.3,0,2.7,0,4s-0.7,2-2,2C149.5,39.5,149.5,37.5,149.5,35.5z"/>
</g>
<g>
	<path class="st2" d="M151.5,39.5c1.7,0.7,2.3,2,2,4c-1.3,0-2,0.7-2,2c-1.7-0.7-2.3-2-2-4C150.8,41.5,151.5,40.8,151.5,39.5z"/>
</g>
<g>
	<path class="st1" d="M153.5,43.5c0,0.7,0,1.3,0,2c0,1.3,0,2.7,0,4c-1.7-0.7-2.3-2-2-4C151.5,44.2,152.2,43.5,153.5,43.5z"/>
</g>
<g>
	<path class="st2" d="M153.5,45.5c1.7,0.7,2.3,2,2,4c-0.7,0-1.3,0-2,0C153.5,48.2,153.5,46.8,153.5,45.5z"/>
</g>
<g>
	<path class="st3" d="M153.5,49.5c0.7,0,1.3,0,2,0c0,1.3,0,2.7,0,4s-0.7,2-2,2C153.5,53.5,153.5,51.5,153.5,49.5z"/>
</g>
<g>
	<path class="st2" d="M155.5,53.5c1.7,0.7,2.3,2,2,4c-1.3,0-2,0.7-2,2c-1.7-0.7-2.3-2-2-4C154.8,55.5,155.5,54.8,155.5,53.5z"/>
</g>
<g>
	<path class="st1" d="M157.5,57.5c0,0.7,0,1.3,0,2c0,1.3,0,2.7,0,4c-1.7-0.7-2.3-2-2-4C155.5,58.2,156.2,57.5,157.5,57.5z"/>
</g>
<g>
	<path class="st2" d="M157.5,59.5c1.7,0.7,2.3,2,2,4c-0.7,0-1.3,0-2,0C157.5,62.2,157.5,60.8,157.5,59.5z"/>
</g>
<g>
	<path class="st4" d="M323.5,65.5c0-1.3-0.7-2-2-2c0.6-1.6,1.6-2.9,3-4c0.3,1,0.7,2,1,3C325.4,64,324.7,65,323.5,65.5z"/>
</g>
<g>
	<path class="st3" d="M157.5,63.5c0.7,0,1.3,0,2,0c0,1.3,0,2.7,0,4s-0.7,2-2,2C157.5,67.5,157.5,65.5,157.5,63.5z"/>
</g>
<g>
	<path class="st5" d="M321.5,63.5c1.3,0,2,0.7,2,2s0,2.7,0,4c-1.3,0-2-0.7-2-2S321.5,64.8,321.5,63.5z"/>
</g>
<g>
	<path class="st2" d="M159.5,67.5c1.7,0.7,2.3,2,2,4c-1.3,0-2,0.7-2,2c-1.7-0.7-2.3-2-2-4C158.8,69.5,159.5,68.8,159.5,67.5z"/>
</g>
<g>
	<path class="st4" d="M321.5,67.5c0,1.3,0.7,2,2,2c0.3,2-0.3,3.3-2,4c0-1.3-0.7-2-2-2C319.2,69.5,319.8,68.2,321.5,67.5z"/>
</g>
<g>
	<path class="st1" d="M161.5,71.5c0,0.7,0,1.3,0,2c0,1.3,0,2.7,0,4c-1.7-0.7-2.3-2-2-4C159.5,72.2,160.2,71.5,161.5,71.5z"/>
</g>
<g>
	<path class="st3" d="M319.5,71.5c1.3,0,2,0.7,2,2s0,2.7,0,4c-1.3,0-2-0.7-2-2S319.5,72.8,319.5,71.5z"/>
</g>
<g>
	<path class="st2" d="M161.5,73.5c1.7,0.7,2.3,2,2,4c-0.7,0-1.3,0-2,0C161.5,76.2,161.5,74.8,161.5,73.5z"/>
</g>
<g>
	<path class="st4" d="M319.5,75.5c0,1.3,0.7,2,2,2c0,1.3-0.7,2-2,2c-0.7,0-1.3,0-2,0C317.2,77.5,317.8,76.2,319.5,75.5z"/>
</g>
<g>
	<path class="st3" d="M161.5,77.5c0.7,0,1.3,0,2,0c0,1.3,0,2.7,0,4s-0.7,2-2,2C161.5,81.5,161.5,79.5,161.5,77.5z"/>
</g>
<g>
	<path class="st6" d="M317.5,79.5c0.7,0,1.3,0,2,0c-0.7,6.8-2,13.5-4,20c-1.3,0-2-0.7-2-2C314.5,91.4,315.9,85.4,317.5,79.5z"/>
</g>
<g>
	<path class="st7" d="M163.5,81.5c4.6,13.7,8.9,27.7,13,42c1.3,2.7,1.3,5.3,0,8c-5.6-15.9-10.6-31.9-15-48
		C162.8,83.5,163.5,82.8,163.5,81.5z"/>
</g>
<g>
	<path class="st4" d="M313.5,97.5c0,1.3,0.7,2,2,2c0.3,2-0.3,3.3-2,4c0-1.3-0.7-2-2-2C311.2,99.5,311.8,98.2,313.5,97.5z"/>
</g>
<g>
	<path class="st3" d="M311.5,101.5c1.3,0,2,0.7,2,2s0,2.7,0,4c-1.3,0-2-0.7-2-2S311.5,102.8,311.5,101.5z"/>
</g>
<g>
	<path class="st4" d="M311.5,105.5c0,1.3,0.7,2,2,2c0.3,2-0.3,3.3-2,4c0-1.3-0.7-2-2-2C309.2,107.5,309.8,106.2,311.5,105.5z"/>
</g>
<g>
	<path class="st3" d="M309.5,109.5c1.3,0,2,0.7,2,2s0,2.7,0,4c-1.3,0-2-0.7-2-2S309.5,110.8,309.5,109.5z"/>
</g>
<g>
	<path class="st4" d="M309.5,113.5c0,1.3,0.7,2,2,2c0,1.3-0.7,2-2,2c-0.7,0-1.3,0-2,0C307.2,115.5,307.8,114.2,309.5,113.5z"/>
</g>
<g>
	<path class="st8" d="M217.5,123.5c-1.3-2-2.7-4-4-6c0.7-1.7,2-2.3,4-2C217.5,118.2,217.5,120.8,217.5,123.5z"/>
</g>
<g>
	<path class="st9" d="M189.5,239.5c0,1.3-0.7,2-2,2c-22.8-61.4-45.8-122.7-69-184c-1.3-2.7-1.3-5.3,0-8
		C142.4,112.9,166.1,176.2,189.5,239.5z"/>
</g>
<g>
	<path class="st10" d="M213.5,117.5c1.3,2,2.7,4,4,6c0,2,0,4,0,6c-0.7,0-1.3,0-2,0c0.3-2-0.3-3.3-2-4
		C213.5,122.8,213.5,120.2,213.5,117.5z"/>
</g>
<g>
	<path class="st6" d="M307.5,117.5c0.7,0,1.3,0,2,0c-0.7,6.8-2,13.5-4,20c-1.3,0-2-0.7-2-2C304.5,129.4,305.9,123.4,307.5,117.5z"/>
</g>
<g>
	<path class="st2" d="M213.5,125.5c1.7,0.7,2.3,2,2,4c0,2,0,4,0,6C213.6,132.7,212.9,129.3,213.5,125.5z"/>
</g>
<g>
	<path class="st11" d="M215.5,129.5c0.7,0,1.3,0,2,0c0,4,0,8,0,12c0,1.3-0.7,2-2,2c0-2.7,0-5.3,0-8
		C215.5,133.5,215.5,131.5,215.5,129.5z"/>
</g>
<g>
	<path class="st12" d="M241.5,207.5c-0.7,0-1.3,0-2,0c0-0.7,0-1.3,0-2c0-20.7,0-41.3,0-62c-0.3-2.7,0-5.4,1-8
		C241.5,159.5,241.8,183.5,241.5,207.5z"/>
</g>
<g>
	<path class="st4" d="M303.5,135.5c0,1.3,0.7,2,2,2c0.3,2-0.3,3.3-2,4c0-1.3-0.7-2-2-2C301.2,137.5,301.8,136.2,303.5,135.5z"/>
</g>
<g>
	<path class="st3" d="M301.5,139.5c1.3,0,2,0.7,2,2s0,2.7,0,4c-1.3,0-2-0.7-2-2S301.5,140.8,301.5,139.5z"/>
</g>
<g>
	<path class="st2" d="M239.5,143.5c0,20.7,0,41.3,0,62c-0.7,0-1.3,0-2,0C236.8,184.5,237.5,163.8,239.5,143.5z"/>
</g>
<g>
	<path class="st4" d="M301.5,143.5c0,1.3,0.7,2,2,2c0.3,2-0.3,3.3-2,4c0-1.3-0.7-2-2-2C299.2,145.5,299.8,144.2,301.5,143.5z"/>
</g>
<g>
	<path class="st2" d="M113.5,149.5c-1.3,0-2,0.7-2,2c-1.7-0.7-2.3-2-2-4C111.5,147.2,112.8,147.8,113.5,149.5z"/>
</g>
<g>
	<path class="st2" d="M217.5,141.5c1.9,3.5,2.6,7.5,2,12c-0.7,0-1.3,0-2,0c-1.9-2.8-2.6-6.2-2-10
		C216.8,143.5,217.5,142.8,217.5,141.5z"/>
</g>
<g>
	<path class="st3" d="M299.5,147.5c1.3,0,2,0.7,2,2s0,2.7,0,4c-1.3,0-2-0.7-2-2S299.5,148.8,299.5,147.5z"/>
</g>
<g>
	<path class="st13" d="M217.5,153.5c0.7,0,1.3,0,2,0c0,4,0,8,0,12c-0.7,0-1.3,0-2,0C217.5,161.5,217.5,157.5,217.5,153.5z"/>
</g>
<g>
	<path class="st4" d="M299.5,151.5c0,1.3,0.7,2,2,2c0,1.3-0.7,2-2,2c-0.7,0-1.3,0-2,0C297.2,153.5,297.8,152.2,299.5,151.5z"/>
</g>
<g>
	<path class="st2" d="M365.5,157.5c0-1.3-0.7-2-2-2c0.7-1.7,2-2.3,4-2C367.8,155.5,367.2,156.8,365.5,157.5z"/>
</g>
<g>
	<path class="st8" d="M273.5,163.5c0.3-2-0.3-3.3-2-4c-0.1-2.5,0.9-4.5,3-6c0.3,1.7,0.7,3.3,1,5
		C275.4,160.6,274.8,162.3,273.5,163.5z"/>
</g>
<g>
	<path class="st14" d="M271.5,159.5c1.7,0.7,2.3,2,2,4c-1,4.6-1.7,9.3-2,14c-1.3,0-2-0.7-2-2C270.2,170.2,270.8,164.8,271.5,159.5z"
		/>
</g>
<g>
	<path class="st15" d="M297.5,155.5c0.7,0,1.3,0,2,0c-0.3,4.7-1,9.4-2,14c-1.7,0.7-2.3,2-2,4c-0.3,3.4-0.9,6.8-2,10
		c-1.3,0-2-0.7-2-2C292.7,172.6,294.7,164,297.5,155.5z"/>
</g>
<g>
	<path class="st16" d="M189.5,181.5c0,1.3-0.7,2-2,2c-1.7-7.4-3.7-14.7-6-22c0.3-0.7,0.7-1.3,1-2c2.1,2.2,3.4,4.9,4,8
		C187.8,172.1,188.8,176.8,189.5,181.5z"/>
</g>
<g>
	<path class="st2" d="M217.5,165.5c0.7,0,1.3,0,2,0c1.9,2.8,2.6,6.2,2,10c-1.3,0-2,0.7-2,2C217.6,174,216.9,170,217.5,165.5z"/>
</g>
<g>
	<path class="st4" d="M297.5,169.5c0.3,2-0.3,3.3-2,4C295.2,171.5,295.8,170.2,297.5,169.5z"/>
</g>
<g>
	<path class="st17" d="M363.5,155.5c1.3,0,2,0.7,2,2c-22.6,37.3-46.3,74-71,110c-0.3-0.7-0.7-1.3-1-2
		C317.4,229.1,340.7,192.4,363.5,155.5z"/>
</g>
<g>
	<path class="st11" d="M221.5,175.5c0,4,0,8,0,12c0,1.3-0.7,2-2,2c0-4,0-8,0-12C219.5,176.2,220.2,175.5,221.5,175.5z"/>
</g>
<g>
	<path class="st8" d="M269.5,175.5c0,1.3,0.7,2,2,2c0.3,2-0.3,3.3-2,4c-0.7,0-1.3,0-2,0C267,178.9,267.7,176.9,269.5,175.5z"/>
</g>
<g>
	<path class="st2" d="M189.5,181.5c1.7,0.7,2.3,2,2,4c-1.3,0-2,0.7-2,2c-1.7-0.7-2.3-2-2-4C188.8,183.5,189.5,182.8,189.5,181.5z"/>
</g>
<g>
	<path class="st18" d="M267.5,181.5c0.7,0,1.3,0,2,0c0,2,0,4,0,6c-1.3,0-2-0.7-2-2S267.5,182.8,267.5,181.5z"/>
</g>
<g>
	<path class="st4" d="M291.5,181.5c0,1.3,0.7,2,2,2c0.3,2-0.3,3.3-2,4c0-1.3-0.7-2-2-2C289.2,183.5,289.8,182.2,291.5,181.5z"/>
</g>
<g>
	<path class="st19" d="M289.5,185.5c1.3,0,2,0.7,2,2s0,2.7,0,4c-1.3,0-2-0.7-2-2S289.5,186.8,289.5,185.5z"/>
</g>
<g>
	<path class="st20" d="M191.5,187.5c1.7,0.7,2.3,2,2,4C191.8,190.8,191.2,189.5,191.5,187.5z"/>
</g>
<g>
	<path class="st4" d="M267.5,185.5c0,1.3,0.7,2,2,2c0.5,3.2-0.1,5.9-2,8c0.3-2-0.3-3.3-2-4C265,188.9,265.7,186.9,267.5,185.5z"/>
</g>
<g>
	<path class="st9" d="M113.5,149.5c24,40.7,48,81.3,72,122c0,1.3-0.7,2-2,2c-24.5-40.3-48.5-81-72-122
		C111.5,150.2,112.2,149.5,113.5,149.5z"/>
</g>
<g>
	<path class="st2" d="M191.5,185.5c0,0.7,0,1.3,0,2c-0.3,2,0.3,3.3,2,4c0,1.3,0,2.7,0,4s-0.7,2-2,2c-1.1-3.2-1.7-6.6-2-10
		C189.5,186.2,190.2,185.5,191.5,185.5z"/>
</g>
<g>
	<path class="st4" d="M289.5,189.5c0,1.3,0.7,2,2,2c0,1.3-0.7,2-2,2c-0.7,0-1.3,0-2,0C287.2,191.5,287.8,190.2,289.5,189.5z"/>
</g>
<g>
	<path class="st21" d="M371.5,207.5c-0.3-1.5,0.1-2.8,1-4c12.7-15.3,25.3-30.7,38-46c0.9-1.2,1.3-2.5,1-4c1.3,0,2.7,0,4,0
		c0.3,1.5-0.1,2.8-1,4c-4.9,6.4-10.2,12.4-16,18c-6,8-12,16-18,24C377.8,202.6,374.8,205.2,371.5,207.5z"/>
</g>
<g>
	<path class="st2" d="M221.5,187.5c1.9,3.5,2.6,7.5,2,12c-0.7,0-1.3,0-2,0c-1.9-2.8-2.6-6.2-2-10
		C220.8,189.5,221.5,188.8,221.5,187.5z"/>
</g>
<g>
	<path class="st8" d="M265.5,191.5c1.7,0.7,2.3,2,2,4c0,1.3,0,2.7,0,4c-1.7-0.7-2.3-2-2-4C265.5,194.2,265.5,192.8,265.5,191.5z"/>
</g>
<g>
	<path class="st22" d="M87.5,215.5c-1.5,0.3-2.8-0.1-4-1c-5-5-10-10-15-15c-1.3-1.3-1.3-2.7,0-4C75.2,201.9,81.6,208.6,87.5,215.5z"
		/>
</g>
<g>
	<path class="st23" d="M265.5,195.5c-0.3,2,0.3,3.3,2,4c0.5,2.6-0.2,4.6-2,6c0.3-2-0.3-3.3-2-4C263,198.9,263.7,196.9,265.5,195.5z"
		/>
</g>
<g>
	<path class="st15" d="M287.5,193.5c0.7,0,1.3,0,2,0c-0.3,4.7-1,9.4-2,14c-1.7,0.7-2.3,2-2,4c-0.3,3.4-0.9,6.8-2,10
		c-1.3,0-2-0.7-2-2C282.7,210.6,284.7,202,287.5,193.5z"/>
</g>
<g>
	<path class="st24" d="M221.5,199.5c0.7,0,1.3,0,2,0c0,4,0,8,0,12c-0.7,0-1.3,0-2,0C221.5,207.5,221.5,203.5,221.5,199.5z"/>
</g>
<g>
	<path class="st25" d="M165.5,263.5c0,1.3-0.7,2-2,2c-17.9-24.2-36.2-48.2-55-72c-1-2-2-4-3-6c0.3-0.7,0.7-1.3,1-2
		C126.2,211.6,145.9,237.6,165.5,263.5z"/>
</g>
<g>
	<path class="st26" d="M263.5,201.5c1.7,0.7,2.3,2,2,4c0,1.3,0,2.7,0,4c-1.3,0-2-0.7-2-2C263.5,205.5,263.5,203.5,263.5,201.5z"/>
</g>
<g>
	<path class="st27" d="M193.5,195.5c7.9,25,15.2,50.3,22,76c-1.3,0-2,0.7-2,2c-7.9-25-15.2-50.3-22-76
		C192.8,197.5,193.5,196.8,193.5,195.5z"/>
</g>
<g>
	<path class="st28" d="M237.5,205.5c0.7,0,1.3,0,2,0c0,0.7,0,1.3,0,2c0,10,0,20,0,30C237.5,227.2,236.9,216.6,237.5,205.5z"/>
</g>
<g>
	<path class="st29" d="M239.5,207.5c0.7,0,1.3,0,2,0c0.6,10.4,0,20.4-2,30C239.5,227.5,239.5,217.5,239.5,207.5z"/>
</g>
<g>
	<path class="st8" d="M263.5,207.5c0,1.3,0.7,2,2,2c0.3,2-0.3,3.3-2,4c0-1.3-0.7-2-2-2C261.2,209.5,261.8,208.2,263.5,207.5z"/>
</g>
<g>
	<path class="st4" d="M287.5,207.5c0.3,2-0.3,3.3-2,4C285.2,209.5,285.8,208.2,287.5,207.5z"/>
</g>
<g>
	<path class="st2" d="M221.5,211.5c0.7,0,1.3,0,2,0c1.9,3.5,2.6,7.5,2,12c-0.7,0-1.3,0-2,0C221.6,220,220.9,216,221.5,211.5z"/>
</g>
<g>
	<path class="st30" d="M261.5,211.5c1.3,0,2,0.7,2,2c0,2,0,4,0,6c-1.7-0.7-2.3-2-2-4C261.5,214.2,261.5,212.8,261.5,211.5z"/>
</g>
<g>
	<path class="st8" d="M87.5,215.5c1.3,0,2,0.7,2,2C89.5,216.2,88.8,215.5,87.5,215.5z"/>
</g>
<g>
	<path class="st31" d="M371.5,207.5c0.3,1.5-0.1,2.8-1,4c-8.8,9.4-16.8,19.4-24,30c-9.4,10.1-18.1,20.8-26,32c-2.7,3.1-5.7,5.7-9,8
		c-0.3-1.5,0.1-2.8,1-4c8.8-9.4,16.8-19.4,24-30c9.4-10.1,18.1-20.8,26-32C365.2,212.4,368.2,209.8,371.5,207.5z"/>
</g>
<g>
	<path class="st8" d="M89.5,217.5c1.3,0,2,0.7,2,2C91.5,218.2,90.8,217.5,89.5,217.5z"/>
</g>
<g>
	<path class="st8" d="M91.5,219.5c1.3,0,2,0.7,2,2C93.5,220.2,92.8,219.5,91.5,219.5z"/>
</g>
<g>
	<path class="st8" d="M261.5,215.5c-0.3,2,0.3,3.3,2,4c0.3,2-0.3,3.3-2,4c-0.7,0-1.3,0-2,0C259,220.3,259.6,217.6,261.5,215.5z"/>
</g>
<g>
	<path class="st8" d="M93.5,221.5c1.3,0,2,0.7,2,2C95.5,222.2,94.8,221.5,93.5,221.5z"/>
</g>
<g>
	<path class="st4" d="M281.5,219.5c0,1.3,0.7,2,2,2c0.3,2-0.3,3.3-2,4c0-1.3-0.7-2-2-2C279.2,221.5,279.8,220.2,281.5,219.5z"/>
</g>
<g>
	<path class="st24" d="M223.5,223.5c0.7,0,1.3,0,2,0c0,2,0,4,0,6c0.5,2.6-0.2,4.6-2,6C223.5,231.5,223.5,227.5,223.5,223.5z"/>
</g>
<g>
	<path class="st19" d="M279.5,223.5c1.3,0,2,0.7,2,2s0,2.7,0,4c-1.3,0-2-0.7-2-2S279.5,224.8,279.5,223.5z"/>
</g>
<g>
	<path class="st32" d="M259.5,223.5c0.7,0,1.3,0,2,0c0,4.9-1,9.5-3,14c-0.3-1.3-0.7-2.7-1-4C258.6,230.2,259.3,226.9,259.5,223.5z"
		/>
</g>
<g>
	<path class="st4" d="M279.5,227.5c0,1.3,0.7,2,2,2c0,1.3-0.7,2-2,2c-0.7,0-1.3,0-2,0C277.2,229.5,277.8,228.2,279.5,227.5z"/>
</g>
<g>
	<path class="st33" d="M371.5,241.5c5.3-7,11.7-13,19-18c1.2,1.9,0.9,3.6-1,5c-5.3,3.3-9.9,7.3-14,12
		C374.3,241.4,373,241.8,371.5,241.5z"/>
</g>
<g>
	<path class="st15" d="M277.5,231.5c0.7,0,1.3,0,2,0c-0.3,4.7-1,9.4-2,14c-1.7,0.7-2.3,2-2,4c-0.3,3.4-0.9,6.8-2,10
		c-1.3,0-2-0.7-2-2C272.7,248.6,274.7,240,277.5,231.5z"/>
</g>
<g>
	<path class="st2" d="M225.5,229.5c1.9,4.9,2.6,10.2,2,16c-1.3,0-2,0.7-2,2c-1.9-3.5-2.6-7.5-2-12
		C225.3,234.1,226,232.1,225.5,229.5z"/>
</g>
<g>
	<path class="st2" d="M189.5,239.5c1.7,0.7,2.3,2,2,4c-1.3,0-2,0.7-2,2c-1.7-0.7-2.3-2-2-4C188.8,241.5,189.5,240.8,189.5,239.5z"/>
</g>
<g>
	<path class="st34" d="M227.5,245.5c0.3,4.1,0,8.1-1,12c-1-3.3-1.3-6.6-1-10C225.5,246.2,226.2,245.5,227.5,245.5z"/>
</g>
<g>
	<path class="st4" d="M277.5,245.5c0.3,2-0.3,3.3-2,4C275.2,247.5,275.8,246.2,277.5,245.5z"/>
</g>
<g>
	<path class="st35" d="M95.5,223.5c1.5-0.3,2.8,0.1,4,1c19.7,19.7,39.3,39.3,59,59c1.3,1.3,1.3,2.7,0,4
		C137.1,266.4,116.1,245.1,95.5,223.5z"/>
</g>
<g>
	<path class="st4" d="M271.5,257.5c0,1.3,0.7,2,2,2c0.3,2-0.3,3.3-2,4c0-1.3-0.7-2-2-2C269.2,259.5,269.8,258.2,271.5,257.5z"/>
</g>
<g>
	<path class="st2" d="M165.5,263.5c1.7,0.7,2.3,2,2,4c-2,0.3-3.3-0.3-4-2C164.8,265.5,165.5,264.8,165.5,263.5z"/>
</g>
<g>
	<path class="st3" d="M269.5,261.5c1.3,0,2,0.7,2,2s0,2.7,0,4c-1.3,0-2-0.7-2-2S269.5,262.8,269.5,261.5z"/>
</g>
<g>
	<path class="st36" d="M191.5,243.5c4.3,11.3,8.6,22.6,13,34c1,1.9,1.3,3.9,1,6c0,1.3-0.7,2-2,2c-4.7-13.3-9.3-26.7-14-40
		C189.5,244.2,190.2,243.5,191.5,243.5z"/>
</g>
<g>
	<path class="st4" d="M269.5,265.5c0,1.3,0.7,2,2,2c0,1.3-0.7,2-2,2c-0.7,0-1.3,0-2,0C267.2,267.5,267.8,266.2,269.5,265.5z"/>
</g>
<g>
	<path class="st2" d="M185.5,271.5c1.7,0.7,2.3,2,2,4c-2,0.3-3.3-0.3-4-2C184.8,273.5,185.5,272.8,185.5,271.5z"/>
</g>
<g>
	<path class="st37" d="M215.5,271.5c0,1.3,0,2.7,0,4s-0.7,2-2,2c0-1.3,0-2.7,0-4S214.2,271.5,215.5,271.5z"/>
</g>
<g>
	<path class="st38" d="M267.5,269.5c0.7,0,1.3,0,2,0c-0.4,5.4-1.4,10.8-3,16c-2,2.4-3,1.7-3-2C264.8,278.8,266.2,274.1,267.5,269.5z
		"/>
</g>
<g>
	<path class="st39" d="M371.5,241.5c-4.3,6-9.7,11-16,15c-8.3,8.5-17,16.5-26,24c-1.8,0.7-3.5,1.7-5,3c-0.9-1.2-1.3-2.5-1-4
		c1.5,0.3,2.8-0.1,4-1c13.3-12,26.7-24,40-36C368.7,241.6,370,241.2,371.5,241.5z"/>
</g>
<g>
	<path class="st2" d="M215.5,275.5c1.2,0.8,1.9,2.2,2,4c-0.3,1.3-0.7,2.7-1,4c-2.1-1.5-3.1-3.5-3-6
		C214.8,277.5,215.5,276.8,215.5,275.5z"/>
</g>
<g>
	<path class="st40" d="M91.5,247.5c1.5-0.3,2.8,0.1,4,1c16,12.7,32,25.3,48,38c-1.3,1.3-2.7,1.3-4,0c-13.6-11.2-27.6-21.8-42-32
		C95.1,252.4,93.1,250.1,91.5,247.5z"/>
</g>
<g>
	<path class="st2" d="M205.5,283.5c1.7,0.7,2.3,2,2,4c-2,0.3-3.3-0.3-4-2C204.8,285.5,205.5,284.8,205.5,283.5z"/>
</g>
<g>
	<path class="st2" d="M311.5,281.5c0.1,2.5-0.9,4.5-3,6C307.3,284.5,308.3,282.5,311.5,281.5z"/>
</g>
<g>
	<path class="st28" d="M47.5,299.5c-9.6-2-19.6-2.6-30-2c10.3-2,20.9-2.6,32-2C49.8,297.5,49.2,298.8,47.5,299.5z"/>
</g>
<g>
	<path class="st13" d="M65.5,295.5c1.3,0,2.7,0,4,0c0,1.3,0,2.7,0,4c0,10,0,20,0,30c-1.3,0-2.7,0-4,0
		C65.5,318.2,65.5,306.8,65.5,295.5z"/>
</g>
<g>
	<path class="st41" d="M73.5,295.5c2-0.3,3.3,0.3,4,2C75.5,297.8,74.2,297.2,73.5,295.5z"/>
</g>
<g>
	<path class="st28" d="M111.5,299.5c-0.7-1.7-2-2.3-4-2c4.2-1.9,8.9-2.6,14-2c0,1.3,0,2.7,0,4C118.2,299.5,114.8,299.5,111.5,299.5z
		"/>
</g>
<g>
	<path class="st28" d="M149.5,299.5c-1.4-1.8-3.4-2.5-6-2c4.9-1.9,10.2-2.6,16-2c0,1.3,0,2.7,0,4
		C156.2,299.5,152.8,299.5,149.5,299.5z"/>
</g>
<g>
	<path class="st8" d="M221.5,295.5c2-0.3,3.3,0.3,4,2C223.5,297.8,222.2,297.2,221.5,295.5z"/>
</g>
<g>
	<path class="st42" d="M253.5,295.5c5.1-0.6,9.8,0.1,14,2c-3.8-0.6-7.2,0.1-10,2c0,4,0,8,0,12c3.3,0,6.7,0,10,0c0,1.3,0,2.7,0,4
		c-3.3,0-6.7,0-10,0c0,4.7,0,9.3,0,14c-1.3,0-2.7,0-4,0C253.5,318.2,253.5,306.8,253.5,295.5z"/>
</g>
<g>
	<path class="st19" d="M311.5,295.5c1.3,0,2.7,0,4,0c0,10,0,20,0,30c3.3,0,6.7,0,10,0c0,1.3,0,2.7,0,4c-4.7,0-9.3,0-14,0
		C311.5,318.2,311.5,306.8,311.5,295.5z"/>
</g>
<g>
	<path class="st12" d="M349.5,295.5c0,11.3,0,22.7,0,34c-1.3,0-2.7,0-4,0c0-11.3,0-22.7,0-34C346.8,295.5,348.2,295.5,349.5,295.5z"
		/>
</g>
<g>
	<path class="st12" d="M421.5,295.5c0,4.7,0,9.3,0,14c4.7,1.3,9.3,2.7,14,4c-4,0-8,0-12,0c-1.9,4.9-2.6,10.2-2,16c-1.3,0-2.7,0-4,0
		c0-11.3,0-22.7,0-34C418.8,295.5,420.2,295.5,421.5,295.5z"/>
</g>
<g>
	<path class="st12" d="M447.5,295.5c0,11.3,0,22.7,0,34c-1.3,0-2.7,0-4,0c0-5.3,0-10.7,0-16c-2-1.3-4-2.7-6-4c2,0,4,0,6,0
		c0-4.7,0-9.3,0-14C444.8,295.5,446.2,295.5,447.5,295.5z"/>
</g>
<g>
	<path class="st28" d="M495.5,297.5c-10.4-0.6-20.4,0-30,2c-1.7-0.7-2.3-2-2-4C474.6,294.9,485.2,295.5,495.5,297.5z"/>
</g>
<g>
	<path class="st13" d="M17.5,297.5c10.4-0.6,20.4,0,30,2c-4,0-8,0-12,0c0,10,0,20,0,30c-1.3,0-2.7,0-4,0c0.6-10.4,0-20.4-2-30
		C25,300.1,21,299.4,17.5,297.5z"/>
</g>
<g>
	<path class="st43" d="M65.5,295.5c0,11.3,0,22.7,0,34c-1.3-5.3-2-11-2-17S64.2,300.8,65.5,295.5z"/>
</g>
<g>
	<path class="st43" d="M107.5,297.5c0,10.7,0,21.3,0,32c-1.3-5-2-10.3-2-16S106.2,302.5,107.5,297.5z"/>
</g>
<g>
	<path class="st44" d="M107.5,297.5c2-0.3,3.3,0.3,4,2c0,4,0,8,0,12c2.7,0,5.3,0,8,0c-2.7,1.3-5.3,2.7-8,4c0,3.3,0,6.7,0,10
		c4,0,8,0,12,0c0,1.3,0,2.7,0,4c-5.3,0-10.7,0-16,0C107.5,318.8,107.5,308.2,107.5,297.5z"/>
</g>
<g>
	<path class="st45" d="M143.5,297.5c2.6-0.5,4.6,0.2,6,2c-1.9,3.5-2.6,7.5-2,12c3.8-0.6,7.2,0.1,10,2c-3.8-0.6-7.2,0.1-10,2
		c0,3.3,0,6.7,0,10c4,0,8,0,12,0c0,1.3,0,2.7,0,4c-5.3,0-10.7,0-16,0C143.5,318.8,143.5,308.2,143.5,297.5z"/>
</g>
<g>
	<path class="st43" d="M253.5,295.5c0,11.3,0,22.7,0,34c-1.3-5.3-2-11-2-17S252.2,300.8,253.5,295.5z"/>
</g>
<g>
	<path class="st28" d="M267.5,297.5c-2.8,1.9-6.2,2.6-10,2C260.3,297.6,263.7,296.9,267.5,297.5z"/>
</g>
<g>
	<path class="st43" d="M311.5,295.5c0,11.3,0,22.7,0,34c-1.3-5.3-2-11-2-17S310.2,300.8,311.5,295.5z"/>
</g>
<g>
	<path class="st13" d="M495.5,297.5c-3.5,1.9-7.5,2.6-12,2c-2,9.6-2.6,19.6-2,30c-1.3,0-2.7,0-4,0c0-10,0-20,0-30c-4,0-8,0-12,0
		C475.1,297.5,485.1,296.9,495.5,297.5z"/>
</g>
<g>
	<path class="st43" d="M29.5,299.5c2,9.6,2.6,19.6,2,30C29.5,319.9,28.9,309.9,29.5,299.5z"/>
</g>
<g>
	<path class="st43" d="M349.5,295.5c1.3,5.3,2,11,2,17s-0.7,11.7-2,17C349.5,318.2,349.5,306.8,349.5,295.5z"/>
</g>
<g>
	<path class="st43" d="M421.5,295.5c1.9,4.2,2.6,8.9,2,14c-0.7,0-1.3,0-2,0C421.5,304.8,421.5,300.2,421.5,295.5z"/>
</g>
<g>
	<path class="st43" d="M483.5,299.5c0.6,10.4,0,20.4-2,30C480.9,319.1,481.5,309.1,483.5,299.5z"/>
</g>
<g>
	<path class="st28" d="M83.5,301.5c1.2,0.5,1.9,1.5,2,3c-0.1,1.5-0.8,2.5-2,3C83.5,305.5,83.5,303.5,83.5,301.5z"/>
</g>
<g>
	<path d="M225.5,297.5c-2,0.3-3.3-0.3-4-2c-12.3-0.7-19.6,5-22,17c0.8,12.5,7.5,18.2,20,17c0.7-1.7,2-2.3,4-2c6.1-1.6,9.5-5.6,10-12
		c0-2.7,0-5.3,0-8C232.3,303,229.7,299.7,225.5,297.5z M225.5,322.5c-5.8,3.6-11.8,4-18,1c-0.1-2.2-0.8-4.2-2-6c0-2.7,0-5.3,0-8
		c2.7-9.2,8.7-12.2,18-9C230.7,307.1,231.4,314.5,225.5,322.5z"/>
</g>
<g>
	<path class="st46" d="M391.5,325.5c1.9-2.8,2.6-6.2,2-10c1.3,0,2.7,0,4,0c0.5,4.6-0.2,8.9-2,13c-5.3,1.3-10.7,1.3-16,0
		c-2.5-1.6-5.2-2.6-8-3c-0.1-2.2-0.8-4.2-2-6c0-2,0-4,0-6c4.5-10.5,12.5-16.5,24-18c0,1.3,0,2.7,0,4c-5.9,1-11.3,3.3-16,7
		c-5.8,6.7-5.1,12.7,2,18C383.4,325.5,387.4,325.8,391.5,325.5z"/>
</g>
<g>
	<path class="st43" d="M447.5,295.5c1.3,5.3,2,11,2,17s-0.7,11.7-2,17C447.5,318.2,447.5,306.8,447.5,295.5z"/>
</g>
<g>
	<path class="st28" d="M233.5,307.5c1.2,0.8,1.9,2.2,2,4c-0.1,1.8-0.8,3.2-2,4C233.5,312.8,233.5,310.2,233.5,307.5z"/>
</g>
<g>
	<path class="st14" d="M69.5,295.5c1.3,0,2.7,0,4,0c0.7,1.7,2,2.3,4,2c3.1-0.1,5.1,1.2,6,4c0,2,0,4,0,6c-1.3,2-2.6,4-4,6
		c2.2,5.2,5.5,9.5,10,13c-0.5,0.8-1.1,1.1-2,1c-1.3,0-2.7,0-4,0c-3.3-3.7-6.3-7.7-9-12c-0.9-1.2-1.3-2.5-1-4c1.3,0,2.7,0,4,0
		c0.4-2.4,1-4.7,2-7c-0.3-1-0.7-2-1-3c-2.7-1.8-5.7-2.4-9-2C69.5,298.2,69.5,296.8,69.5,295.5z"/>
</g>
<g>
	<path class="st28" d="M205.5,309.5c0,2.7,0,5.3,0,8c-1.2-0.8-1.9-2.2-2-4C203.6,311.7,204.3,310.3,205.5,309.5z"/>
</g>
<g>
	<path class="st28" d="M421.5,309.5c0.7,0,1.3,0,2,0c4.7,0,9.3,0,14,0c2,1.3,4,2.7,6,4c-2.7,0-5.3,0-8,0
		C430.8,312.2,426.2,310.8,421.5,309.5z"/>
</g>
<g>
	<path class="st47" d="M119.5,311.5c1.7,0.7,2.3,2,2,4c-3.3,0-6.7,0-10,0C114.2,314.2,116.8,312.8,119.5,311.5z"/>
</g>
<g>
	<path class="st48" d="M157.5,313.5c-2.1,1.9-4.8,2.5-8,2c-0.7,0-1.3,0-2,0C150.3,313.6,153.7,312.9,157.5,313.5z"/>
</g>
<g>
	<path class="st28" d="M369.5,313.5c0,2,0,4,0,6c-1.2-0.5-1.9-1.5-2-3C367.6,315,368.3,314,369.5,313.5z"/>
</g>
<g>
	<path class="st43" d="M397.5,315.5c-1.3,0-2.7,0-4,0c0.6,3.8-0.1,7.2-2,10c0-4,0-8,0-12C394.1,313,396.1,313.7,397.5,315.5z"/>
</g>
<g>
	<path class="st43" d="M423.5,313.5c0.6,5.8-0.1,11.1-2,16C420.9,323.7,421.6,318.4,423.5,313.5z"/>
</g>
<g>
	<path class="st43" d="M147.5,315.5c0.7,0,1.3,0,2,0c0,2.7,0,5.3,0,8c3.8-0.6,7.2,0.1,10,2c-4,0-8,0-12,0
		C147.5,322.2,147.5,318.8,147.5,315.5z"/>
</g>
<g>
	<path class="st28" d="M325.5,325.5c1.1,0.1,1.8,0.8,2,2c-0.2,1.2-0.9,1.9-2,2C325.5,328.2,325.5,326.8,325.5,325.5z"/>
</g>
<g>
	<path class="st28" d="M83.5,327.5c1.3,0,2.7,0,4,0c-0.1,1.1-0.8,1.8-2,2C84.3,329.3,83.6,328.6,83.5,327.5z"/>
</g>
<g>
	<path class="st28" d="M223.5,327.5c-0.7,1.7-2,2.3-4,2C220.2,327.8,221.5,327.2,223.5,327.5z"/>
</g>
<g>
	<path class="st49" d="M97.5,365.5c1.3,0,2.7,0,4,0c1.3,0.7,2.7,1.3,4,2c0,0.7,0,1.3,0,2s0,1.3,0,2c-1.3,0.7-2.7,1.3-4,2
		c-1.3,0-2.7,0-4,0c-1.2-0.8-1.9-2.2-2-4C95.6,367.7,96.3,366.3,97.5,365.5z"/>
</g>
<g>
	<path class="st50" d="M337.5,341.5c-6.7,0-13.3,0-20,0c2.9-1.3,6.3-2,10-2S334.6,340.2,337.5,341.5z"/>
</g>
<g>
	<path class="st51" d="M315.5,341.5c-0.7,1.7-2,2.3-4,2C312.2,341.8,313.5,341.2,315.5,341.5z"/>
</g>
<g>
	<path class="st52" d="M197.5,343.5c-1.4,1.8-3.4,2.5-6,2C192.9,343.7,194.9,343,197.5,343.5z"/>
</g>
<g>
	<path class="st53" d="M267.5,343.5c5.8-0.6,11.1,0.1,16,2C277.7,346.1,272.4,345.4,267.5,343.5z"/>
</g>
<g>
	<path class="st54" d="M353.5,343.5c3.2-0.5,5.9,0.1,8,2C358.3,346,355.6,345.4,353.5,343.5z"/>
</g>
<g>
	<path class="st53" d="M119.5,347.5c-10,0-20,0-30,0c4.6-1.3,9.6-2,15-2S114.9,346.2,119.5,347.5z"/>
</g>
<g>
	<path class="st55" d="M175.5,345.5c-2.8,1.9-6.2,2.6-10,2C168.3,345.6,171.7,344.9,175.5,345.5z"/>
</g>
<g>
	<path class="st56" d="M365.5,345.5c2.6-0.5,4.6,0.2,6,2C368.9,348,366.9,347.3,365.5,345.5z"/>
</g>
<g>
	<path class="st52" d="M323.5,347.5c-2.1,1.9-4.8,2.5-8,2C317.6,347.6,320.3,347,323.5,347.5z"/>
</g>
<g>
	<path class="st57" d="M339.5,347.5c2.6-0.5,4.6,0.2,6,2C342.9,350,340.9,349.3,339.5,347.5z"/>
</g>
<g>
	<path class="st58" d="M377.5,347.5c2.6-0.5,4.6,0.2,6,2c-1.3,0-2,0.7-2,2c-7.3,0-14.7,0-22,0c0-0.7,0-1.3,0-2
		C365.9,350.1,371.9,349.5,377.5,347.5z"/>
</g>
<g>
	<path class="st59" d="M75.5,349.5c2.8,1.9,6.2,2.6,10,2c-2.2,1.3-4.9,2-8,2c-2.7-0.3-5.3-0.7-8-1C71.6,351.5,73.6,350.5,75.5,349.5
		z"/>
</g>
<g>
	<path class="st60" d="M313.5,349.5c-0.7,1.7-2,2.3-4,2C310.2,349.8,311.5,349.2,313.5,349.5z"/>
</g>
<g>
	<path class="st50" d="M349.5,349.5c3.3,0,6.7,0,10,0c0,0.7,0,1.3,0,2C355.7,352.1,352.3,351.4,349.5,349.5z"/>
</g>
<g>
	<path class="st23" d="M383.5,349.5c2.7,0,5.3,0,8,0c0,0.7,0,1.3,0,2c-3.3,0-6.7,0-10,0C381.5,350.2,382.2,349.5,383.5,349.5z"/>
</g>
<g>
	<path class="st54" d="M391.5,349.5c10.7,0.7,10.7,1.3,0,2C391.5,350.8,391.5,350.2,391.5,349.5z"/>
</g>
<g>
	<path class="st54" d="M117.5,351.5c3.8-0.6,7.2,0.1,10,2C123.7,354.1,120.3,353.4,117.5,351.5z"/>
</g>
<g>
	<path class="st52" d="M159.5,353.5c-4,0-8,0-12,0c1.5-1.3,3.5-2,6-2S158,352.2,159.5,353.5z"/>
</g>
<g>
	<path class="st59" d="M307.5,351.5c-0.7,1.7-2,2.3-4,2C304.2,351.8,305.5,351.2,307.5,351.5z"/>
</g>
<g>
	<path class="st52" d="M207.5,359.5c0.3-2-0.3-3.3-2-4c0.7-1.7,2-2.3,4-2C210,356.1,209.3,358.1,207.5,359.5z"/>
</g>
<g>
	<path class="st61" d="M203.5,355.5c-0.7,1.7-2,2.3-4,2C200.2,355.8,201.5,355.2,203.5,355.5z"/>
</g>
<g>
	<path class="st55" d="M97.5,373.5c1.3,0,2.7,0,4,0c-0.1,1.1-0.8,1.8-2,2C98.3,375.3,97.6,374.6,97.5,373.5z"/>
</g>
<g>
	<path class="st59" d="M257.5,357.5c-0.7-1.7-2-2.3-4-2c-0.6,3.8,0.1,7.2,2,10C255,362.3,255.6,359.6,257.5,357.5z"/>
</g>
<path d="M137.5,409.5c0.7,1.7,2,2.3,4,2c0,0.7,0,1.3,0,2c-4.7-0.3-9.4,0-14,1c-5.6,2.1-11.2,3.7-17,5c-1.7-0.3-3.3-0.7-5-1
	C116.1,415.3,126.8,412.3,137.5,409.5z"/>
<g>
	<path class="st54" d="M101.5,365.5c-1.3,0-2.7,0-4,0c0.1-1.1,0.8-1.8,2-2C100.7,363.7,101.4,364.4,101.5,365.5z"/>
</g>
<g>
	<path class="st62" d="M359.5,365.5c-1.3,0-2.7,0-4,0c0.1-1.1,0.8-1.8,2-2C358.7,363.7,359.4,364.4,359.5,365.5z"/>
</g>
<g>
	<path d="M244.5,401.5c0.3-1,0.7-2,1-3c-0.1-1.5-0.8-2.5-2-3c-0.7,0-1.3,0-2,0s-1.3,0-2,0c-1.3,0-2.7,0-4,0
		C235.2,402.8,238.2,404.8,244.5,401.5z"/>
</g>
<g>
	<path class="st55" d="M97.5,367.5c1.3,0,2.7,0,4,0c0,1.3,0,2.7,0,4c-1.3,0-2.7,0-4,0C97.5,370.2,97.5,368.8,97.5,367.5z"/>
</g>
<g>
	<path class="st53" d="M105.5,367.5c23.3,0,46.7,0,70,0c-23,2-46.3,2.7-70,2C105.5,368.8,105.5,368.2,105.5,367.5z"/>
</g>
<g>
	<path class="st53" d="M285.5,367.5c22,0,44,0,66,0c-21.6,2-43.6,2.7-66,2C285.5,368.8,285.5,368.2,285.5,367.5z"/>
</g>
<g>
	<path class="st63" d="M361.5,367.5c1.1,0.1,1.8,0.8,2,2c-0.2,1.2-0.9,1.9-2,2C361.5,370.2,361.5,368.8,361.5,367.5z"/>
</g>
<g>
	<path class="st64" d="M175.5,357.5c5.4-0.3,10.7,0,16,1c-1.1,0.8-1.8,1.8-2,3s-0.9,2.2-2,3c-3.3,2-6.7,4-10,6
		c-5.3,0.7-10.7,1.3-16,2c-1.9,3-4.6,4.6-8,5c0.9-1.9,2.2-3.6,4-5c-17.3-1-34.7-1.3-52-1c0-0.7,0-1.3,0-2c23.7,0.7,47,0,70-2
		c1.5,0.3,2.8-0.1,4-1c2.7-2,5.3-4,8-6C183.1,360.1,179.1,359.1,175.5,357.5z"/>
</g>
<g>
	<path class="st53" d="M267.5,367.5c2,0,4,0,6,0c1.7,0.7,2.3,2,2,4c-3.8,0.6-7.2-0.1-10-2C266.8,369.5,267.5,368.8,267.5,367.5z"/>
</g>
<g>
	<path class="st65" d="M351.5,367.5c0.7,0,1.3,0,2,0c0,1.3,0,2.7,0,4c-14-0.3-28,0-42,1c2.3,4,5,7.6,8,11c-0.7,0-1.3,0-2,0
		c-1.9-0.9-3.6-2.2-5-4c-2.6-6.8-7.6-9.5-15-8c-3.7,0-7.1,0.7-10,2c-1.7-0.7-2.3-2-2-4C307.9,370.2,329.9,369.5,351.5,367.5z"/>
</g>
<g>
	<path class="st66" d="M355.5,365.5c1.3,0,2.7,0,4,0s2,0.7,2,2s0,2.7,0,4s-0.7,2-2,2s-2.7,0-4,0s-2-0.7-2-2s0-2.7,0-4
		S354.2,365.5,355.5,365.5z"/>
</g>
<g>
	<path class="st67" d="M355.5,367.5c1.3,0,2.7,0,4,0c0,1.3,0,2.7,0,4c-1.3,0-2.7,0-4,0C355.5,370.2,355.5,368.8,355.5,367.5z"/>
</g>
<g>
	<path class="st63" d="M355.5,373.5c1.3,0,2.7,0,4,0c-0.1,1.1-0.8,1.8-2,2C356.3,375.3,355.6,374.6,355.5,373.5z"/>
</g>
<g>
	<path class="st54" d="M231.5,381.5c-1.7,0.7-2.3,2-2,4C231.2,384.8,231.8,383.5,231.5,381.5z"/>
</g>
<g>
	<path class="st23" d="M317.5,383.5c0.7,0,1.3,0,2,0c18.7,0,37.3,0,56,0c0,0.7,0,1.3,0,2c-18.7,0-37.3,0-56,0
		C318.2,385.5,317.5,384.8,317.5,383.5z"/>
</g>
<g>
	<path class="st68" d="M375.5,387.5c0-0.7,0-1.3,0-2s0-1.3,0-2c1.7-0.7,2.3-2,2-4c6.8-0.2,9.5,3.1,8,10
		C381.9,389.8,378.6,389.1,375.5,387.5z"/>
</g>
<g>
	<path class="st50" d="M379.5,383.5c1.5-0.3,2.8,0.1,4,1c-0.7,0.3-1.3,0.7-2,1C380.3,385.3,379.6,384.6,379.5,383.5z"/>
</g>
<g>
	<path class="st67" d="M319.5,385.5c18.7,0,37.3,0,56,0c0,0.7,0,1.3,0,2C356.5,388.2,337.8,387.5,319.5,385.5z"/>
</g>
<g>
	<path class="st52" d="M171.5,387.5c-0.7,1.7-2,2.3-4,2C168.2,387.8,169.5,387.2,171.5,387.5z"/>
</g>
<g>
	<path class="st52" d="M241.5,395.5c0.7,0,1.3,0,2,0c0-2.7,0-5.3,0-8c0-0.7,0-1.3,0-2C241.6,388.3,240.9,391.7,241.5,395.5z"/>
</g>
<g>
	<path class="st69" d="M243.5,385.5c0,0.7,0,1.3,0,2c3.7,1.5,7,3.5,10,6c0-1.3,0.7-2,2-2c-3.9-2.6-7.9-5.3-12-8
		C243.5,384.2,243.5,384.8,243.5,385.5z"/>
</g>
<g>
	<path class="st54" d="M257.5,385.5c1.2,0.5,1.9,1.5,2,3c-0.1,1.5-0.8,2.5-2,3C257.5,389.5,257.5,387.5,257.5,385.5z"/>
</g>
<g>
	<path class="st59" d="M127.5,389.5c2.7,0,5.3,0,8,0c-0.8,1.2-2.2,1.9-4,2C129.7,391.4,128.3,390.7,127.5,389.5z"/>
</g>
<g>
	<path class="st70" d="M229.5,389.5c0,4,0,8,0,12c-1.3-1.5-2-3.5-2-6S228.2,391,229.5,389.5z"/>
</g>
<g>
	<path class="st67" d="M111.5,393.5c-2.1,1.9-4.8,2.5-8,2C105.6,393.6,108.3,393,111.5,393.5z"/>
</g>
<g>
	<path class="st54" d="M305.5,393.5c1.3,0,2.7,0,4,0c0,0.7,0,1.3,0,2C307.5,395.8,306.2,395.2,305.5,393.5z"/>
</g>
<g>
	<path class="st23" d="M309.5,393.5c1.3,0,2.7,0,4,0c0,1.3-0.7,2-2,2c-0.7,0-1.3,0-2,0C309.5,394.8,309.5,394.2,309.5,393.5z"/>
</g>
<g>
	<path class="st67" d="M139.5,395.5c2.6-0.5,4.6,0.2,6,2C142.9,398,140.9,397.3,139.5,395.5z"/>
</g>
<g>
	<path class="st52" d="M165.5,395.5c-0.7,1.7-2,2.3-4,2C162.2,395.8,163.5,395.2,165.5,395.5z"/>
</g>
<g>
	<path class="st67" d="M205.5,397.5c0,1.3-0.7,2-2,2c-2.8-1.9-6.2-2.6-10-2c1.5-1.3,3.5-2,6-2S204,396.2,205.5,397.5z"/>
</g>
<path d="M221.5,365.5c0-1.3-0.7-2-2-2c1.1-2.9,2.8-5.6,5-8c0.3,1,0.7,2,1,3C224.9,361.4,223.6,363.8,221.5,365.5z"/>
<g>
	<path class="st59" d="M313.5,393.5c3.4,0.8,6.7,1.8,10,3c1.1,0.8,1.8,1.8,2,3c0,0.7,0,1.3,0,2c-1.6-0.6-2.9-1.6-4-3
		c-3.8-0.4-7.1-1.4-10-3C312.8,395.5,313.5,394.8,313.5,393.5z"/>
</g>
<g>
	<path class="st71" d="M240.5,401.5c0.3-0.7,0.7-1.3,1-2c-0.2-1.2-0.9-1.9-2-2C239.2,399,239.6,400.3,240.5,401.5z"/>
</g>
<g>
	<path class="st54" d="M85.5,403.5c-2,0-4,0-6,0c0.5-1.2,1.5-1.9,3-2C84,401.6,85,402.3,85.5,403.5z"/>
</g>
<g>
	<path class="st72" d="M207.5,393.5c0.3,2-0.3,3.3-2,4c-1.5-1.3-3.5-2-6-2s-4.5,0.7-6,2c-3.3,2.3-6.3,4.9-9,8c-3.3,5-7,9.7-11,14
		c-0.7,0-1.3,0-2,0c-0.3-1.5,0.1-2.8,1-4c6-5.3,11-11.3,15-18c1.6-0.6,2.9-1.6,4-3C196.8,393.5,202.1,393.2,207.5,393.5z"/>
</g>
<g>
	<path class="st64" d="M267.5,399.5c0-1.3,0-2.7,0-4c-1.8,1.6-3.1,3.6-4,6c3.3,0.3,6,1.7,8,4c0.7,0,1.3,0,2,0s1.3,0,2,0
		C274,402,271.3,400,267.5,399.5z"/>
</g>
<g>
	<path class="st73" d="M129.5,393.5c1.3,0,2,0.7,2,2c-4.6,3.9-9.3,7.9-14,12c-10.4-0.6-20.4,0-30,2c-0.8,1.2-2.2,1.9-4,2
		c-5.7-0.7-7-3.4-4-8c2,0,4,0,6,0c10.5,2.2,21.2,2.6,32,1C121.3,400.4,125.3,396.7,129.5,393.5z"/>
</g>
<g>
	<path class="st50" d="M271.5,405.5c0,10,0,20,0,30c2-9.6,2.6-19.6,2-30C272.8,405.5,272.2,405.5,271.5,405.5z"/>
</g>
<g>
	<path class="st52" d="M81.5,405.5c1.1,0.1,1.8,0.8,2,2c-0.3,0.7-0.7,1.3-1,2C81.6,408.3,81.2,407,81.5,405.5z"/>
</g>
<g>
	<path class="st53" d="M117.5,407.5c-9.6,2-19.6,2.6-30,2C97.1,407.5,107.1,406.9,117.5,407.5z"/>
</g>
<g>
	<path class="st63" d="M147.5,407.5c-0.7,1.7-2,2.3-4,2C144.2,407.8,145.5,407.2,147.5,407.5z"/>
</g>
<g>
	<path class="st50" d="M141.5,411.5c5.1-0.6,9.8,0.1,14,2c-4.7,0-9.3,0-14,0C141.5,412.8,141.5,412.2,141.5,411.5z"/>
</g>
<g>
	<path class="st23" d="M221.5,415.5c-1.2-2.5-2.2-5.2-3-8c-1,10.6-1.3,21.3-1,32c2,0.3,3.3-0.3,4-2c-1.3-3.3-2-6.9-2-11
		C219.5,422.4,220.2,418.8,221.5,415.5z"/>
</g>
<g>
	<path d="M371.5,347.5c-2.6,0.5-4.6-0.2-6-2c-1.3,0-2.7,0-4,0c-3.2,0.5-5.9-0.1-8-2c-5.4-0.1-10.7-0.8-16-2c-6.7,0-13.3,0-20,0
		c-0.7,0-1.3,0-2,0c-0.7,1.7-2,2.3-4,2c-9.2,1.8-18.5,2.4-28,2c-5.8,0.6-11.1-0.1-16-2c-7.6,0.2-13.6-2.8-18-9
		c-13.3-1.3-26.7-1.3-40,0c-3.2,4.2-7.2,7.2-12,9c-1.4,1.8-3.4,2.5-6,2c-5.3,0-10.7,0-16,0c-2.8,1.9-6.2,2.6-10,2
		c-15.3,0-30.7,0-46,0c-10,0-20,0-30,0c-4.9-0.4-9.6,0.3-14,2c2.8,1.9,6.2,2.6,10,2c10.7,0,21.3,0,32,0c3.8-0.6,7.2,0.1,10,2
		c6.7,0,13.3,0,20,0c1.5-1.3,3.5-2,6-2s4.5,0.7,6,2c5.3,1.3,10.7,2.7,16,4c5.4-0.3,10.7,0,16,1c-1.1,0.8-1.8,1.8-2,3
		c3.3-1.3,6.7-2.7,10-4c0.7-1.7,2-2.3,4-2c0.7,0,1.3,0,2,0c0.7-1.7,2-2.3,4-2c0.5,2.6-0.2,4.6-2,6c-2.2,2.2-3.5,4.9-4,8
		c-1.5-0.3-2.8,0.1-4,1c-6,4.7-12,9.3-18,14c-3.2,2.2-6.5,3.9-10,5c-0.7,1.7-2,2.3-4,2c-9.2,2.1-18.6,2.4-28,1c2.1-2.8,4.8-4.8,8-6
		c2.4-2.1,4.4-4.4,6-7c-1.5-0.3-2.8,0.1-4,1c-4.7,3.7-9.4,7.4-14,11c-0.8,1.2-2.2,1.9-4,2c-1.8-0.1-3.2-0.8-4-2
		c-12.9-1.6-24.9,0.7-36,7c1,0.3,2,0.7,3,1c2.9-1.3,5.9-2,9-2c2.1-1.9,4.8-2.5,8-2c6,0,12,0,18,0c1.3,0,2,0.7,2,2c2.7,0,5.3,0,8,0
		c2.6-0.5,4.6,0.2,6,2c5.3,0,10.7,0,16,0c0.7-1.7,2-2.3,4-2c2,0,4,0,6,0c0.2,2-0.5,3.7-2,5c-7,3.3-14.4,5.7-22,7c-0.7,1.7-2,2.3-4,2
		c-2,0-4,0-6,0c0.7,1.7,2,2.3,4,2c5.1-0.6,9.8,0.1,14,2c0.1,2.9-0.5,5.6-2,8c1.3,0,2,0.7,2,2c7.4-12,17.4-21.4,30-28
		c0.9-1.9,2.2-3.6,4-5c6.7-5.3,13.3-10.7,20-16c1.2-0.9,2.5-1.3,4-1c-0.3-1.5,0.1-2.8,1-4c2.1-1.7,3.8-3.7,5-6c1.1-2.9,2.8-5.6,5-8
		c0.3,1,0.7,2,1,3c-0.6,2.9-1.9,5.3-4,7c-3.5,8.7-7.1,17.4-11,26c-0.8,1.1-1.8,1.8-3,2c0.3,2-0.3,3.3-2,4c0,1.3-0.7,2-2,2
		c-7.7,8.6-15.3,17.3-23,26c-1.7,3.4-3.4,6.7-5,10c0.3,2-0.3,3.3-2,4c-1.1,3.2-1.7,6.6-2,10c-0.3,2,0.3,3.3,2,4c1.3-4,2.7-8,4-12
		c0.7-1.7,2-2.3,4-2c0,1.3,0,2.7,0,4c0,2,0,4,0,6c1.3-2,2.7-4,4-6c1.2-6.4,3.5-12.4,7-18c7.3-7.3,14.7-14.7,22-22
		c1.3,5.3,1.3,10.7,0,16c-2.6,4.6-5.9,8.6-10,12c-0.9,1.2-1.3,2.5-1,4c0.7,0,1.3,0,2,0c2.6-3.6,5.6-6.9,9-10c1,5.3,1.3,10.6,1,16
		c-3,0-5.4,1.4-7,4c-2.2,3.2-3.9,6.5-5,10c0.7,0,1.3,0,2,0c2-3.7,5-6.3,9-8c1,3.9,1.3,7.9,1,12c0.7,0,1.3,0,2,0
		c-0.6-5.1,0.1-9.8,2-14c1.2-1.3,2.9-1.9,5-2c2.1,0.1,3.8,0.7,5,2c1.3,0,2.7,0,4,0c1.4,11.5,3.4,22.8,6,34c0.7,0,1.3,0,2,0
		c0-1.3,0-2.7,0-4s0-2.7,0-4c-1.9-4.2-2.6-8.9-2-14c0-4.7,0-9.3,0-14c0.5-1.2,1.5-1.9,3-2c1.5,0.1,2.5,0.8,3,2
		c8.9,6.4,14.2,15.1,16,26c1.7-0.7,2.3-2,2-4c-0.5-5-2.2-9.7-5-14c-5.1-6.5-9.4-13.5-13-21c5.8-9.9,11.8-19.5,18-29
		c0.9-2.4,2.2-4.4,4-6c0.8-1.2,2.2-1.9,4-2c1.3,0.3,2.7,0.7,4,1c6.7,6.1,12.7,12.7,18,20c-6,1-12,1.3-18,1c0-3.3,0-6.7,0-10
		c-0.7,0-1.3,0-2,0c0.6,10.4,0,20.4-2,30c-0.8,1.5-1.5,3.2-2,5c0.1,1.5,0.8,2.5,2,3c1.3,0,2-0.7,2-2c-0.9,0.1-1.5-0.2-2-1
		c2.5-3.9,4.5-3.5,6,1c0.7,0,1.3,0,2,0c0.1-2.5-0.9-4.5-3-6c-1-5.3-1.3-10.6-1-16c2.6-1.3,5.6-2,9-2c3.4,0,6.4,0.7,9,2
		c2,8.3,5,16.3,9,24c2.4,4.1,5.4,4.7,9,2c3.4,2,6,4.7,8,8c0.7,0,1.3,0,2,0c0.3-1.5-0.1-2.8-1-4c-2.3-3.3-5.3-5.3-9-6
		c-2,0.3-3.3-0.3-4-2c-1.2-0.2-2.2-0.9-3-2c-1.6-3.9-2.6-7.9-3-12c-1.7-0.7-2.3-2-2-4c0-2,0-4,0-6c4.7-0.3,9.4,0,14,1
		c4.4,4.3,7.7,3.6,10-2c-2.3-5.6-5.6-6.3-10-2c-5.3,1-10.6,1.3-16,1c-1.8-5.5-4.1-10.9-7-16c-9.6-7.6-18.6-15.9-27-25
		c-4.5-1.5-7.2-4.5-8-9c-1.9-2.8-2.6-6.2-2-10c2-0.3,3.3,0.3,4,2c1.9,4.6,4.6,8.6,8,12c1.3,0,2-0.7,2-2c-1.6-1.9-3.3-3.9-5-6
		c-0.9-1.2-1.3-2.5-1-4c6.4,0.5,10.4,3.9,12,10c1.7,0.7,2.3,2,2,4c5,6.7,11,12.3,18,17c3.8,2.2,7.8,3.9,12,5c1.3,0,2.7,0,4,0
		c-8.5-5.2-15.9-11.9-22-20c-1.7-0.7-2.3-2-2-4c0-0.7,0-1.3,0-2c-0.3-1.5,0.1-2.8,1-4c4.6-5.1,10.3-8.5,17-10c0.7-1.7,2-2.3,4-2
		c0.7,0,1.3,0,2,0c0.7-1.7,2-2.3,4-2c0.7,0,1.3,0,2,0c2.1-1.9,4.8-2.5,8-2c5.3,0,10.7,0,16,0c2.6-0.5,4.6,0.2,6,2c1.3,0,2.7,0,4,0
		c3.3,0,6.7,0,10,0c6.4,0.6,12.4,0,18-2C375.5,347.5,373.5,347.5,371.5,347.5z M221.5,437.5c-1.3-3.3-2-6.9-2-11c0-4.1,0.7-7.7,2-11
		c2.2,5.9,4.8,11.5,8,17C228.4,436.5,225.8,438.2,221.5,437.5z M240.5,417.5c-0.9,1.2-1.3,2.5-1,4c-1.3,0-2.7,0-4,0
		c-2-6.7-4-13.3-6-20c0-4,0-8,0-12c0-1.3,0-2.7,0-4c1.7-0.7,2.3-2,2-4c2.1-6,4.5-12,7-18c1,10.6,1.3,21.3,1,32c-1.3,0-2.7,0-4,0
		c-0.3,7.3,2.7,9.3,9,6c0.3-1,0.7-2,1-3c-0.1-1.5-0.8-2.5-2-3c0-2.7,0-5.3,0-8c3.7,1.5,7,3.5,10,6c1.1,0.1,1.8,0.8,2,2
		C250.5,402.8,245.5,410.2,240.5,417.5z M257.5,385.5c0,2,0,4,0,6c-0.7,0-1.3,0-2,0c-3.9-2.6-7.9-5.3-12-8c-1.3-5-2-10.3-2-16
		c0.3-5.3,0.7-10.7,1-16c0.8,7.4,1.8,14.7,3,22c1,1.9,2,3.9,3,6C251.8,381.3,254.8,383.3,257.5,385.5z"/>
</g>
<g>
	<path class="st55" d="M315.5,415.5c5.7-0.6,6.7,0.7,3,4C317.1,418.4,316.1,417.1,315.5,415.5z"/>
</g>
<g>
	<path class="st74" d="M325.5,399.5c3,0,5.4,1.4,7,4c2.7,4,5.3,8,8,12c1.6,2.5,2.6,5.2,3,8c-1.2-0.2-2.2-0.9-3-2
		c-3.3-5.3-6.7-10.7-10-16c-2-1.1-3.7-2.5-5-4C325.5,400.8,325.5,400.2,325.5,399.5z"/>
</g>
<g>
	<path class="st67" d="M293.5,419.5c-6,0-12,0-18,0c2.6-1.3,5.6-2,9-2S290.9,418.2,293.5,419.5z"/>
</g>
<g>
	<path class="st75" d="M163.5,421.5c0,0.7,0,1.3,0,2c-0.7,0-1.3,0-2,0C161.5,422.2,162.2,421.5,163.5,421.5z"/>
</g>
<g>
	<path class="st76" d="M163.5,421.5c2,0,4,0,6,0c0.3,2-0.3,3.3-2,4c-0.7-1.7-2-2.3-4-2C163.5,422.8,163.5,422.2,163.5,421.5z"/>
</g>
<g>
	<path class="st77" d="M161.5,423.5c0.7,0,1.3,0,2,0c-0.3,2,0.3,3.3,2,4c0,1.3-0.7,2-2,2C161.7,428.1,161,426.1,161.5,423.5z"/>
</g>
<g>
	<path class="st78" d="M153.5,421.5c1.3,0,2,0.7,2,2c-2.3,7.3-5.7,14-10,20C146.6,435.6,149.3,428.2,153.5,421.5z"/>
</g>
<g>
	<path class="st50" d="M163.5,423.5c2-0.3,3.3,0.3,4,2c0,1.3-0.7,2-2,2C163.8,426.8,163.2,425.5,163.5,423.5z"/>
</g>
<g>
	<path class="st52" d="M299.5,423.5c1.7,0.7,2.3,2,2,4C299.8,426.8,299.2,425.5,299.5,423.5z"/>
</g>
<g>
	<path class="st79" d="M343.5,423.5c1.7,0.7,2.3,2,2,4C343.8,426.8,343.2,425.5,343.5,423.5z"/>
</g>
<g>
	<path class="st59" d="M171.5,419.5c0.7,0,1.3,0,2,0c-1.3,3.2-2.3,6.5-3,10c-2.6,2.6-4.9,2.6-7,0c1.3,0,2-0.7,2-2c1.3,0,2-0.7,2-2
		c1.7-0.7,2.3-2,2-4C169.5,420.2,170.2,419.5,171.5,419.5z"/>
</g>
<g>
	<path class="st54" d="M345.5,427.5c1.7,0.7,2.3,2,2,4C345.8,430.8,345.2,429.5,345.5,427.5z"/>
</g>
<g>
	<path class="st80" d="M347.5,431.5c1.8,0.1,2.2,0.8,1,2C347.7,433,347.4,432.4,347.5,431.5z"/>
</g>
<g>
	<path class="st81" d="M175.5,435.5c0.3,2-0.3,3.3-2,4C173.2,437.5,173.8,436.2,175.5,435.5z"/>
</g>
<g>
	<path class="st82" d="M203.5,435.5c0,2.7,0,5.3,0,8c-1.3,0-2-0.7-2-2c0-0.7,0-1.3,0-2c-0.1-1.1-0.8-1.8-2-2c-1.2,0.2-1.9,0.9-2,2
		c0,1.3,0.7,2,2,2c0,1.3-0.7,2-2,2s-2-0.7-2-2s0-2.7,0-4C197.6,435.6,200.3,435,203.5,435.5z"/>
</g>
<g>
	<path class="st83" d="M201.5,439.5c-1.3,0-2.7,0-4,0c0.1-1.1,0.8-1.8,2-2C200.7,437.7,201.4,438.4,201.5,439.5z"/>
</g>
<g>
	<path class="st55" d="M203.5,435.5c0.7,0,1.3,0,2,0c0.5,3.2-0.1,5.9-2,8C203.5,440.8,203.5,438.2,203.5,435.5z"/>
</g>
<g>
	<path class="st55" d="M181.5,443.5c-1.3-0.7-2.7-1.3-4-2c0.7-1.7,2-2.3,4-2C181.5,440.8,181.5,442.2,181.5,443.5z"/>
</g>
<g>
	<path class="st84" d="M195.5,437.5c0,1.3,0,2.7,0,4c-1.1-0.1-1.8-0.8-2-2C193.7,438.3,194.4,437.6,195.5,437.5z"/>
</g>
<g>
	<path class="st85" d="M197.5,439.5c1.3,0,2.7,0,4,0c0,0.7,0,1.3,0,2c-0.7,0-1.3,0-2,0C198.2,441.5,197.5,440.8,197.5,439.5z"/>
</g>
<g>
	<path class="st67" d="M277.5,441.5c-1.3,0-2.7,0-4,0c-0.9,0.1-1.5-0.2-2-1C274,436.6,276,437,277.5,441.5z"/>
</g>
<g>
	<path class="st52" d="M199.5,441.5c0.7,0,1.3,0,2,0c0,1.3,0.7,2,2,2c-0.5,1.2-1.5,1.9-3,2c-1.5-0.1-2.5-0.8-3-2
		C198.8,443.5,199.5,442.8,199.5,441.5z"/>
</g>
<g>
	<path class="st86" d="M245.5,443.5c-2,0-4,0-6,0c0.5-1.2,1.5-1.9,3-2C244,441.6,245,442.3,245.5,443.5z"/>
</g>
<g>
	<path class="st52" d="M307.5,441.5c2-0.3,3.3,0.3,4,2C309.5,443.8,308.2,443.2,307.5,441.5z"/>
</g>
<g>
	<path class="st54" d="M229.5,445.5c-3.3,0-6.7,0-10,0c1.2-1.3,2.9-1.9,5-2C226.6,443.6,228.3,444.2,229.5,445.5z"/>
</g>
<g>
	<path class="st87" d="M273.5,441.5c1.3,0,2.7,0,4,0c0.7,0,1.3,0,2,0c-0.7,2.4-2.4,3.7-5,4c-1.5-0.1-2.5-0.8-3-2
		C272.8,443.5,273.5,442.8,273.5,441.5z"/>
</g>
<g>
	<path class="st59" d="M145.5,443.5c0.3,1.5-0.1,2.8-1,4c-0.3-0.7-0.7-1.3-1-2C143.7,444.3,144.4,443.6,145.5,443.5z"/>
</g>
<g>
	<path class="st59" d="M185.5,443.5c0,4,0,8,0,12c-0.7,0-1.3,0-2,0c-1.8-1.4-2.5-3.4-2-6C182.8,447.5,184.2,445.5,185.5,443.5z"/>
</g>
<g>
	<path class="st67" d="M171.5,449.5c-0.3,2,0.3,3.3,2,4c0,1.3-0.7,2-2,2c-0.7,0-1.3,0-2,0C169,452.9,169.7,450.9,171.5,449.5z"/>
</g>
<g>
	<path class="st54" d="M319.5,453.5c0.7,0,1.3,0,2,0c1.1,0.1,1.8,0.8,2,2c-0.3,0.7-0.7,1.3-1,2C321.1,456.4,320.1,455.1,319.5,453.5
		z"/>
</g>
<g>
	<path class="st52" d="M203.5,455.5c0.7,0,1.3,0,2,0c-0.7,2-2,3.3-4,4C201.2,457.5,201.8,456.2,203.5,455.5z"/>
</g>
<g>
	<path class="st88" d="M169.5,455.5c0.7,0,1.3,0,2,0c0,2,0,4,0,6c-1.3,0-2-0.7-2-2S169.5,456.8,169.5,455.5z"/>
</g>
<g>
	<path class="st89" d="M183.5,455.5c0.7,0,1.3,0,2,0c0,3.3,0,6.7,0,10c0,1.3,0,2.7,0,4c-0.7,0-1.3,0-2,0
		C183.5,464.8,183.5,460.2,183.5,455.5z"/>
</g>
<g>
	<path class="st90" d="M215.5,459.5c0.7,0,1.3,0,2,0c1.2,0.2,2.2,0.9,3,2c1,2.6,1.3,5.3,1,8c-6.9,1.5-10.2-1.2-10-8
		C213.5,461.8,214.8,461.2,215.5,459.5z"/>
</g>
<g>
	<path class="st54" d="M169.5,459.5c0,1.3,0.7,2,2,2c0,1.3-0.7,2-2,2c-0.7,0-1.3,0-2,0C167.2,461.5,167.8,460.2,169.5,459.5z"/>
</g>
<g>
	<path class="st53" d="M201.5,459.5c0.3,1.5-0.1,2.8-1,4c-2,2.7-4,5.3-6,8C194.2,466.1,196.5,462.1,201.5,459.5z"/>
</g>
<g>
	<path class="st91" d="M239.5,457.5c1.9,4.2,2.6,8.9,2,14C239.6,467.3,238.9,462.6,239.5,457.5z"/>
</g>
<g>
	<path class="st92" d="M167.5,463.5c0.7,0,1.3,0,2,0c0,1.3,0,2.7,0,4c-0.7,0-1.3,0-2,0C167.5,466.2,167.5,464.8,167.5,463.5z"/>
</g>
<g>
	<path class="st55" d="M215.5,463.5c1.1,0.1,1.8,0.8,2,2c-0.3,0.7-0.7,1.3-1,2C215.6,466.3,215.2,465,215.5,463.5z"/>
</g>
<g>
	<path class="st53" d="M167.5,467.5c0.7,0,1.3,0,2,0c0,1.3,0,2.7,0,4c-1.3,0-2.7,0-4,0C165.2,469.5,165.8,468.2,167.5,467.5z"/>
</g>
<g>
	<path class="st93" d="M183.5,469.5c0.7,0,1.3,0,2,0c0,2,0,4,0,6c0.1,0.9-0.2,1.5-1,2C183.5,474.9,183.2,472.2,183.5,469.5z"/>
</g>
<g>
	<path class="st55" d="M263.5,465.5c1.3,1.5,2,3.5,2,6c-0.3,2-0.7,4-1,6c-0.8-2.8-1.8-5.5-3-8C263.2,468.8,263.8,467.5,263.5,465.5z
		"/>
</g>
<g>
	<path class="st50" d="M185.5,465.5c1.3,1.2,1.9,2.9,2,5c-0.1,2.1-0.7,3.8-2,5c0-2,0-4,0-6C185.5,468.2,185.5,466.8,185.5,465.5z"/>
</g>
<g>
	<path class="st52" d="M241.5,475.5c1.7,0.7,2.3,2,2,4c-0.7,0-1.3,0-2,0C241.5,478.2,241.5,476.8,241.5,475.5z"/>
</g>
<g>
	<path class="st94" d="M241.5,479.5c0.7,0,1.3,0,2,0c0,0.7,0,1.3,0,2c0,1.3,0,2.7,0,4c-1.3,0-2-0.7-2-2S241.5,480.8,241.5,479.5z"/>
</g>
<g>
	<path class="st54" d="M239.5,479.5c0.7,0,1.3,0,2,0c0,1.3,0,2.7,0,4C239.8,482.8,239.2,481.5,239.5,479.5z"/>
</g>
<g>
	<path class="st67" d="M243.5,481.5c1.1,0.1,1.8,0.8,2,2c-0.2,1.2-0.9,1.9-2,2C243.5,484.2,243.5,482.8,243.5,481.5z"/>
</g>
<g>
	<path class="st95" d="M243.5,499.5c0,1.3,0,2.7,0,4c-2.3-2-3.7-4.7-4-8c1.3,0,2.7,0,4,0C243.5,496.8,243.5,498.2,243.5,499.5z"/>
</g>
<g>
	<path class="st52" d="M243.5,499.5c1.1,0.1,1.8,0.8,2,2c-0.2,1.2-0.9,1.9-2,2C243.5,502.2,243.5,500.8,243.5,499.5z"/>
</g>
</svg>
