<svg class="h-6 w-6 sm:h-11 sm:w-11 fill-current text-black" viewBox="0 0 512 512" version="1.1" xmlns="http://www.w3.org/2000/svg" style="fill-rule:evenodd;clip-rule:evenodd;stroke-linejoin:round;stroke-miterlimit:1.41421;">
    <g>
        <path d="M231.722,148.243c-17.731,-9.694 -37.853,-15.056 -58.407,-15.25c-0.531,-0.002 -1.062,-0.002 -1.592,0c-44.162,0.417 -86.578,26.081 -107.43,64.446c-18.378,33.813 -19.567,76.467 -3.04,111.286c22.937,48.325 79.174,78.494 133.81,68.365c2.726,-0.505 5.429,-1.112 8.104,-1.817c7.256,8.252 15.218,15.862 23.766,22.719c-25.772,10.075 -54.284,13.489 -82.368,8.283c-46.914,-8.697 -88.945,-40.885 -109.727,-83.986c-20.263,-42.025 -19.758,-93.356 1.23,-134.928c25.169,-49.854 78.664,-83.513 135.464,-84.049c0.658,-0.002 1.316,-0.002 1.973,0c55.902,0.528 110.275,34.153 135.464,84.049c20.991,41.578 21.464,92.963 1.23,134.928c-7.403,15.354 -17.538,29.207 -29.658,41.097c24.342,13.362 53.134,18.962 81.494,13.704c50.404,-9.344 92.609,-53.425 99.447,-104.568c5.228,-39.107 -9.661,-80.32 -38.712,-107.044c-22.227,-20.447 -51.874,-32.196 -82.482,-32.485c-0.531,-0.002 -1.062,-0.002 -1.593,0c-9.935,0.094 -19.784,1.464 -29.321,3.971c-7.49,-8.418 -15.762,-16.149 -24.658,-23.091c16.993,-6.668 35.214,-10.386 53.789,-10.561c0.658,-0.002 1.315,-0.002 1.973,0c55.902,0.528 110.275,34.153 135.464,84.049c20.99,41.578 21.464,92.963 1.23,134.928c-28.682,59.486 -98.381,96.453 -165.635,83.986c-46.914,-8.697 -88.944,-40.885 -109.726,-83.986c-20.263,-42.025 -19.758,-93.356 1.23,-134.928c7.351,-14.562 17.119,-27.742 28.681,-39.118Z" style="fill-rule:nonzero;"></path>
    </g>
</svg>