<?xml version="1.0" encoding="utf-8"?>
<!-- Generator: Adobe Illustrator 26.0.1, SVG Export Plug-In . SVG Version: 6.00 Build 0)  -->
<svg version="1.1" id="Layer_1" xmlns="http://www.w3.org/2000/svg" xmlns:xlink="http://www.w3.org/1999/xlink" x="0px" y="0px"
	 viewBox="0 0 64 64" style="enable-background:new 0 0 64 64;" xml:space="preserve">
<style type="text/css">
	.st0{fill:#CCC3B0;stroke:#CCC3B0;stroke-width:0.25;stroke-miterlimit:10;}
	.st1{fill:#CCC3B0;stroke:#CCC3B0;stroke-width:0.75;stroke-miterlimit:10;}
	.st2{fill:#CCC3B0;stroke:#CCC3B0;stroke-width:2;stroke-miterlimit:10;}
	.st3{fill:#CCC3B0;stroke:#CCC3B0;stroke-miterlimit:10;}
	.st4{opacity:0.64;}
</style>
<g>
	<g>
		<path class="st0" d="M42.7,20.6h-3.1c-0.5,0-0.9-0.4-0.9-0.9s0.4-0.9,0.9-0.9h2.3V8.2H22.3v10.6h2.3c0.5,0,0.9,0.4,0.9,0.9
			s-0.4,0.9-0.9,0.9h-3.1c-0.5,0-0.9-0.4-0.9-0.9V7.3c0-0.5,0.4-0.9,0.9-0.9h21.3c0.5,0,0.9,0.4,0.9,0.9v12.4
			C43.6,20.2,43.2,20.6,42.7,20.6z"/>
	</g>
	<g>
		<path class="st1" d="M46.3,8.2H17.9c-0.5,0-0.9-0.4-0.9-0.9V3.7c0-0.5,0.4-0.9,0.9-0.9h12.4c0.5,0,0.9,0.4,0.9,0.9
			s-0.4,0.9-0.9,0.9H18.8v1.8h26.6V4.6H33.9c-0.5,0-0.9-0.4-0.9-0.9s0.4-0.9,0.9-0.9h12.4c0.5,0,0.9,0.4,0.9,0.9v3.5
			C47.2,7.8,46.8,8.2,46.3,8.2z"/>
	</g>
	<g>
		<path class="st2" d="M21.4,20.6h-3.5c-0.5,0-0.9-0.4-0.9-0.9V7.3c0-0.5,0.4-0.9,0.9-0.9h3.5c0.5,0,0.9,0.4,0.9,0.9v12.4
			C22.3,20.2,21.9,20.6,21.4,20.6z M18.8,18.8h1.8V8.2h-1.8V18.8z"/>
	</g>
	<g>
		<path class="st2" d="M46.3,20.6h-3.5c-0.5,0-0.9-0.4-0.9-0.9V7.3c0-0.5,0.4-0.9,0.9-0.9h3.5c0.5,0,0.9,0.4,0.9,0.9v12.4
			C47.2,20.2,46.8,20.6,46.3,20.6z M43.6,18.8h1.8V8.2h-1.8V18.8z"/>
	</g>
	<g>
		<path class="st2" d="M60.5,63.1c-0.5,0-0.9-0.4-0.9-0.9V49H48c-0.5,0-0.9-0.4-0.9-0.9s0.4-0.9,0.9-0.9h12.4c0.5,0,0.9,0.4,0.9,0.9
			v14.2C61.3,62.7,61,63.1,60.5,63.1z"/>
	</g>
	<g>
		<path class="st2" d="M3.7,63.1c-0.5,0-0.9-0.4-0.9-0.9V48.1c0-0.5,0.4-0.9,0.9-0.9h12.4c0.5,0,0.9,0.4,0.9,0.9S16.6,49,16.1,49
			H4.6v13.3C4.6,62.7,4.2,63.1,3.7,63.1z"/>
	</g>
	<g>
		<path class="st2" d="M55.1,49c-0.5,0-0.9-0.4-0.9-0.9V34.8h-9.8c-0.5,0-0.9-0.4-0.9-0.9s0.5-0.9,1-0.9h10.6c0.5,0,0.9,0.4,0.9,0.9
			v14.2C56,48.6,55.6,49,55.1,49z"/>
	</g>
	<g>
		<path class="st2" d="M9,49c-0.5,0-0.9-0.4-0.9-0.9V33.9C8.1,33.4,8.5,33,9,33h10.6c0.5,0,0.9,0.4,0.9,0.9s-0.4,0.9-0.9,0.9H9.9
			v13.3C9.9,48.6,9.5,49,9,49z"/>
	</g>
	<g>
		<path class="st2" d="M51.6,34.8c-0.5,0-0.9-0.4-0.9-0.9V20.6H39.6c-0.5,0-0.9-0.4-0.9-0.9s0.4-0.9,0.9-0.9h12
			c0.5,0,0.9,0.4,0.9,0.9v14.2C52.5,34.4,52.1,34.8,51.6,34.8z"/>
	</g>
	<g>
		<path class="st2" d="M12.6,34.8c-0.5,0-0.9-0.4-0.9-0.9V19.7c0-0.5,0.4-0.9,0.9-0.9h12c0.5,0,0.9,0.4,0.9,0.9s-0.4,0.9-0.9,0.9
			H13.5v13.3C13.5,34.4,13.1,34.8,12.6,34.8z"/>
	</g>
	<g>
		<path class="st0" d="M23.2,63.1h-0.1c-0.5-0.1-0.8-0.5-0.8-1L27.5,17h-1.8l-5.2,45.3c-0.1,0.5-0.5,0.8-1,0.8
			c-0.5-0.1-0.8-0.5-0.8-1L24.1,16c0-0.4,0.4-0.8,0.9-0.8h3.5c0.3,0,0.5,0.1,0.7,0.3s0.2,0.4,0.2,0.7l-5.3,46.1
			C24,62.8,23.7,63.1,23.2,63.1z"/>
	</g>
	<g>
		<path class="st0" d="M44.5,63.1c-0.4,0-0.8-0.3-0.9-0.8L38.4,17h-1.8l5.2,45.1c0.1,0.5-0.3,0.9-0.8,1s-0.9-0.3-1-0.8l-5.3-46.1
			c0-0.3,0-0.5,0.2-0.7s0.4-0.3,0.7-0.3h3.5c0.5,0,0.8,0.3,0.9,0.8l5.3,46.1C45.4,62.6,45,63,44.5,63.1
			C44.6,63.1,44.5,63.1,44.5,63.1z"/>
	</g>
	<g>
		<path class="st3" d="M41,63.1c-0.4,0-0.8-0.3-0.9-0.8L34.8,17h-5.5l-5.2,45.3c-0.1,0.5-0.5,0.8-1,0.8c-0.5-0.1-0.8-0.5-0.8-1
			L27.7,16c0-0.4,0.4-0.8,0.9-0.8h7.1c0.5,0,0.8,0.3,0.9,0.8l5.3,46.1c0.1,0.5-0.3,0.9-0.8,1C41,63.1,41,63.1,41,63.1z"/>
	</g>
	<g>
		<path class="st0" d="M36.5,24.1h-8.7c-0.5,0-0.9-0.4-0.9-0.9s0.4-0.9,0.9-0.9h8.7c0.5,0,0.9,0.4,0.9,0.9
			C37.3,23.7,36.9,24.1,36.5,24.1z"/>
	</g>
	<g>
		<path class="st0" d="M37.3,31.2H26.9c-0.5,0-0.9-0.4-0.9-0.9s0.4-0.9,0.9-0.9h10.4c0.5,0,0.9,0.4,0.9,0.9
			C38.2,30.8,37.8,31.2,37.3,31.2z"/>
	</g>
	<g>
		<path class="st0" d="M38.1,38.3h-12c-0.5,0-0.9-0.4-0.9-0.9s0.4-0.9,0.9-0.9h12c0.5,0,0.9,0.4,0.9,0.9
			C39,37.9,38.6,38.3,38.1,38.3z"/>
	</g>
	<g>
		<path class="st0" d="M38.9,45.4H25.3c-0.5,0-0.9-0.4-0.9-0.9s0.4-0.9,0.9-0.9h13.6c0.5,0,0.9,0.4,0.9,0.9
			C39.8,45,39.4,45.4,38.9,45.4z"/>
	</g>
	<g>
		<path class="st0" d="M39.7,52.5H24.5c-0.5,0-0.9-0.4-0.9-0.9s0.4-0.9,0.9-0.9h15.3c0.5,0,0.9,0.4,0.9,0.9
			C40.6,52.1,40.2,52.5,39.7,52.5z"/>
	</g>
	<g>
		<path class="st0" d="M37.4,11.7H26.8c-0.5,0-0.9-0.4-0.9-0.9s0.4-0.9,0.9-0.9h10.6c0.5,0,0.9,0.4,0.9,0.9
			C38.3,11.3,37.9,11.7,37.4,11.7z"/>
	</g>
	<g>
		<path class="st0" d="M42.7,17H21.4c-0.5,0-0.9-0.4-0.9-0.9s0.4-0.9,0.9-0.9h21.3c0.5,0,0.9,0.4,0.9,0.9S43.2,17,42.7,17z"/>
	</g>
	<g>
		<path class="st0" d="M33.9,17h-3.5c-0.5,0-0.9-0.4-0.9-0.9v-5.3c0-0.5,0.4-0.9,0.9-0.9h3.5c0.5,0,0.9,0.4,0.9,0.9v5.3
			C34.7,16.6,34.4,17,33.9,17z M31.2,15.3H33v-3.5h-1.8V15.3z"/>
	</g>
	<g>
		<path class="st0" d="M26.8,17c-0.5,0-0.9-0.4-0.9-0.9v-1.8c0-0.5,0.4-0.9,0.9-0.9s0.9,0.4,0.9,0.9v1.8C27.7,16.6,27.3,17,26.8,17z
			"/>
	</g>
	<g>
		<path class="st0" d="M37.4,17c-0.5,0-0.9-0.4-0.9-0.9v-1.8c0-0.5,0.4-0.9,0.9-0.9s0.9,0.4,0.9,0.9v1.8C38.3,16.6,37.9,17,37.4,17z
			"/>
	</g>
	<g>
		<path class="st0" d="M19.7,4.6c-0.5,0-0.9-0.4-0.9-0.9V2c0-0.5,0.4-0.9,0.9-0.9s0.9,0.4,0.9,0.9v1.8C20.6,4.2,20.2,4.6,19.7,4.6z"
			/>
	</g>
	<g>
		<path class="st0" d="M44.5,4.6c-0.5,0-0.9-0.4-0.9-0.9V2c0-0.5,0.4-0.9,0.9-0.9s0.9,0.4,0.9,0.9v1.8C45.4,4.2,45,4.6,44.5,4.6z"/>
	</g>
	<g>
		<path class="st0" d="M23.4,31.2h-3.7c-0.5,0-0.9-0.4-0.9-0.9v-2.7h-6.2c-0.5,0-0.9-0.4-0.9-0.9s0.4-0.9,0.9-0.9h7.1
			c0.5,0,0.9,0.4,0.9,0.9v2.7h2.8c0.5,0,0.9,0.4,0.9,0.9C24.2,30.8,23.8,31.2,23.4,31.2z"/>
	</g>
	<g>
		<path class="st0" d="M16.1,27.7c-0.5,0-0.9-0.4-0.9-0.9v-3.5c0-0.5,0.4-0.9,0.9-0.9h2.7v-2.7c0-0.5,0.4-0.9,0.9-0.9
			s0.9,0.4,0.9,0.9v3.5c0,0.5-0.4,0.9-0.9,0.9H17v2.7C17,27.3,16.6,27.7,16.1,27.7z"/>
	</g>
	<g>
		<path class="st0" d="M44.5,31.2h-3.7c-0.5,0-0.9-0.4-0.9-0.9s0.4-0.9,0.9-0.9h2.8v-2.7c0-0.5,0.4-0.9,0.9-0.9h7.1
			c0.5,0,0.9,0.4,0.9,0.9s-0.4,0.9-0.9,0.9h-6.2v2.7C45.4,30.8,45,31.2,44.5,31.2z"/>
	</g>
	<g>
		<path class="st0" d="M48,27.7c-0.5,0-0.9-0.4-0.9-0.9v-2.7h-2.7c-0.5,0-0.9-0.4-0.9-0.9v-3.5c0-0.5,0.4-0.9,0.9-0.9
			s0.9,0.4,0.9,0.9v2.7H48c0.5,0,0.9,0.4,0.9,0.9v3.5C48.9,27.3,48.5,27.7,48,27.7z"/>
	</g>
	<g>
		<path class="st0" d="M12.6,45.4H9c-0.5,0-0.9-0.4-0.9-0.9s0.4-0.9,0.9-0.9h2.7v-4.4c0-0.5,0.4-0.9,0.9-0.9h2.7v-4.4
			c0-0.5,0.4-0.9,0.9-0.9s0.9,0.4,0.9,0.9v5.3c0,0.5-0.4,0.9-0.9,0.9h-2.7v4.4C13.5,45,13.1,45.4,12.6,45.4z"/>
	</g>
	<g class="st4">
		<path class="st3" d="M21.3,48.8c-0.2,0-0.5-0.1-0.6-0.3l-5.2-5.2c-0.2-0.2-0.3-0.4-0.3-0.6v-3.5c0-0.5,0.4-0.9,0.9-0.9
			s0.9,0.4,0.9,0.9v3.2l4.9,4.9c0.3,0.3,0.3,0.9,0,1.3C21.8,48.8,21.6,48.8,21.3,48.8z"/>
	</g>
	<g>
		<path class="st0" d="M55.1,45.4h-3.5c-0.5,0-0.9-0.4-0.9-0.9v-4.4H48c-0.5,0-0.9-0.4-0.9-0.9v-5.3c0-0.5,0.4-0.9,0.9-0.9
			s0.9,0.4,0.9,0.9v4.4h2.7c0.5,0,0.9,0.4,0.9,0.9v4.4h2.7c0.5,0,0.9,0.4,0.9,0.9C56,45,55.6,45.4,55.1,45.4z"/>
	</g>
	<g class="st4">
		<path class="st3" d="M42.9,48.8c-0.2,0-0.5-0.1-0.6-0.3c-0.3-0.3-0.3-0.9,0-1.3l4.9-4.9v-3.2c0-0.5,0.4-0.9,0.9-0.9
			s0.9,0.4,0.9,0.9v3.5c0,0.2-0.1,0.5-0.3,0.6l-5.2,5.2C43.3,48.8,43.1,48.8,42.9,48.8z"/>
	</g>
	<g>
		<path class="st0" d="M19.7,38.3h-3.5c-0.5,0-0.9-0.4-0.9-0.9s0.4-0.9,0.9-0.9h3.5c0.5,0,0.9,0.4,0.9,0.9
			C20.6,37.9,20.2,38.3,19.7,38.3z"/>
	</g>
	<g>
		<path class="st0" d="M48,38.3h-3.5c-0.5,0-0.9-0.4-0.9-0.9s0.4-0.9,0.9-0.9H48c0.5,0,0.9,0.4,0.9,0.9C48.9,37.9,48.5,38.3,48,38.3
			z"/>
	</g>
	<g>
		<path class="st0" d="M20.7,54.3h-6.3c-0.2,0-0.5-0.1-0.6-0.3l-1.5-1.5h-5c-0.2,0-0.5-0.1-0.6-0.3l-3.5-3.5c-0.3-0.3-0.3-0.9,0-1.3
			s0.9-0.3,1.3,0l3.3,3.3h5c0.2,0,0.5,0.1,0.6,0.3l1.5,1.5h6c0.5,0,0.9,0.4,0.9,0.9C21.6,53.9,21.2,54.3,20.7,54.3z"/>
	</g>
	<g>
		<path class="st0" d="M9,63.1c-0.5,0-0.9-0.4-0.9-0.9v-5.3C8.1,56.4,8.5,56,9,56h4.4v-2.7c0-0.5,0.4-0.9,0.9-0.9s0.9,0.4,0.9,0.9
			v3.5c0,0.5-0.4,0.9-0.9,0.9H9.9v4.4C9.9,62.7,9.5,63.1,9,63.1z"/>
	</g>
	<g>
		<path class="st0" d="M49.8,54.3h-6.3c-0.5,0-0.9-0.4-0.9-0.9s0.4-0.9,0.9-0.9h6L51,51c0.2-0.2,0.4-0.3,0.6-0.3h5l3.3-3.3
			c0.3-0.3,0.9-0.3,1.3,0c0.3,0.3,0.3,0.9,0,1.3l-3.5,3.5c-0.2,0.2-0.4,0.3-0.6,0.3h-5L50.4,54C50.3,54.2,50.1,54.3,49.8,54.3z"/>
	</g>
	<g>
		<path class="st0" d="M55.1,63.1c-0.5,0-0.9-0.4-0.9-0.9v-4.4h-4.4c-0.5,0-0.9-0.4-0.9-0.9v-3.5c0-0.5,0.4-0.9,0.9-0.9
			s0.9,0.4,0.9,0.9v2.7h4.4c0.5,0,0.9,0.4,0.9,0.9v5.3C56,62.7,55.6,63.1,55.1,63.1z"/>
	</g>
</g>
</svg>
