<?xml version="1.0" encoding="utf-8"?>
<!-- Generator: Adobe Illustrator 25.4.1, SVG Export Plug-In . SVG Version: 6.00 Build 0)  -->
<svg version="1.1" id="Layer_1" xmlns="http://www.w3.org/2000/svg" xmlns:xlink="http://www.w3.org/1999/xlink" x="0px" y="0px"
	 viewBox="0 0 24 24" style="enable-background:new 0 0 24 24;" xml:space="preserve">
<path d="M7.3,4.1c-0.5,0-1,0.1-1.4,0.4C5.8,4.6,5.6,4.7,5.5,4.9C5.4,5.1,5.3,5.3,5.3,5.6v12.7c0,0.2,0.1,0.5,0.2,0.7
	c0.2,0.3,0.5,0.5,0.8,0.6c0.3,0.1,0.7,0.2,1,0.2l9.8,0.8v-1.8l1.9-0.1V3.7L7.3,4.1z M13.1,13.7l-4-0.3l0.1-1.2l4,0.3L13.1,13.7z
	 M14.9,10.8l-7-0.6L8,9.1l7,0.6L14.9,10.8z M18,17.6l-0.9,0V6.8L7.4,6h0C7,6,6.7,5.9,6.5,5.8C6.5,5.8,6.4,5.7,6.4,5.7
	c0,0,0-0.1,0-0.1c0,0,0,0,0-0.1c0-0.1,0.2-0.2,0.3-0.2c0.2-0.1,0.4-0.1,0.7-0.1h0L18,4.8V17.6z"/>
</svg>
