<?xml version="1.0" encoding="utf-8"?>
<!-- Generator: Adobe Illustrator 25.4.1, SVG Export Plug-In . SVG Version: 6.00 Build 0)  -->
<svg version="1.1" id="Layer_1" xmlns="http://www.w3.org/2000/svg" xmlns:xlink="http://www.w3.org/1999/xlink" x="0px" y="0px"
	 viewBox="0 0 24 24" style="enable-background:new 0 0 24 24;" xml:space="preserve">
<style type="text/css">
	.st0{fill:none;stroke:#000000;stroke-width:4.000000e-02;stroke-miterlimit:10;}
</style>
<path id="heart" transform="translate(94.507159, 111.490157)" d="M-86.9-97.9c0,0.5,0,0.9,0,0.9c0,0-0.1,0-0.2,0
	c-0.1-0.1-0.2-0.2-0.2-0.3c0-0.1,0-0.1,0-0.1c-0.1,0-0.1,0.1-0.1,0.2c0,0.1,0.1,0.2,0.1,0.2c0.1,0,0.1,0,0,0.1
	c-0.1,0.1-0.1,0.1,0.1,0c0.2-0.1,0.2,0,0.1,0.1c-0.2,0.1-0.5,0.1-0.4-0.1s-0.1-0.1-0.3,0.1c-0.1,0.1-0.1,0.2,0.1,0.4
	c0.2,0.2,0.2,0.3,0.1,0.3c-0.1,0-0.1,0.1,0,0.1c0.1,0,0.2-0.1,0.3-0.1c0.1-0.1,0.1-0.2-0.2-0.2c-0.2,0-0.3-0.1-0.3-0.2
	c0-0.1,0-0.1,0.2,0c0.2,0.1,0.2,0.1,0.4,0c0.3-0.2,0.3-0.2,0.3,0.2c0,0.3,0,0.4-0.4,0.4c-0.2,0-0.5,0-0.6,0c-0.2-0.1-0.2,0-0.2,0.2
	c0,0.1,0.1,0.3,0.1,0.3c0.1,0.1,0.1,0.1,0,0.1s-0.1,0.1-0.1,0.3c0,0.2,0.1,0.3,0.4,0.2c0.2,0,0.4-0.1,0.5-0.1c0.1,0,0.1,0,0.1-0.1
	c0-0.1-0.2-0.1-0.3,0c-0.1,0.1-0.3,0.1-0.4,0c-0.2-0.1-0.1-0.3,0.1-0.4c0.2,0,0.2-0.1,0-0.1c-0.1,0-0.2-0.1-0.2-0.2
	c0-0.1,0.2-0.2,0.4-0.2c0.2,0,0.4,0,0.5,0c0,0,0.1,0.4,0.1,0.9c0,0.7,0,1-0.1,1.3l-0.2,0.4l0-0.5c0-0.3,0-0.4,0-0.3
	c0,0.1-0.1,0.1-0.2,0.1c-0.1-0.1-0.1,0.1-0.1,0.4c0,0.2,0,0.5,0,0.7c-0.1,0.2-0.1,0-0.1-0.4c0-0.5,0-0.6-0.2-0.6
	c-0.1,0-0.2,0-0.2,0.1c0,0.1-0.1,0.1-0.2,0c-0.1,0-0.2,0-0.2,0.1c0,0.1,0.1,0.2,0.2,0.2c0.1,0,0.2,0,0.2,0.1c0,0.1-0.1,0.1-0.2,0.1
	c-0.3,0-0.4,0.5-0.3,1.5c0.1,0.7,0,0.9-0.1,1.1c-0.2,0.2-0.2,0.2,0.1,0.1c0.6-0.1,1.5-0.6,1.9-1c0.5-0.5,0.9-1.3,0.9-2.1
	c0-0.6,0-0.7-0.2-0.7c-0.2-0.1-0.2-0.1,0-0.1c0.1,0,0.3,0,0.3,0.1c0,0.1,0.2,0.1,0.3,0.1s0.2-0.1,0.1-0.1c0-0.1-0.1-0.1-0.2-0.1
	c-0.1,0-0.2-0.1-0.2-0.2c0-0.3-0.4-0.4-0.8-0.3c-0.2,0.1-0.2,0.1,0.1,0.1c0.2,0,0.4,0.1,0.5,0.2c0.2,0.1,0.2,0.1-0.1,0.2
	c-0.5,0-0.5,0.2-0.1,0.3l0.4,0.1l0,0.6c0,0.6-0.4,1.5-0.5,1.5c0,0,0-0.2,0.1-0.4c0.2-0.5,0.2-0.6,0-0.7c-0.1-0.1-0.2-0.1-0.2,0.1
	c0,0.1-0.1,0.1-0.1-0.1l-0.1-0.3l0,0.3c0,0.2-0.1,0.3-0.1,0.3s-0.1-0.2,0-0.4c0-0.2,0-0.6-0.1-0.9c-0.1-0.7-0.3-2.6-0.2-2.5
	c0,0,0.2,0,0.3,0c0.2-0.1,0.4,0.1,0.1,0.2c-0.2,0.1-0.2,0.1,0.1,0.2c0.2,0.1,0.3,0,0.6-0.2c0.2-0.1,0.4-0.3,0.4-0.4
	c0-0.1-0.5,0.3-0.6,0.5c0,0.1-0.1,0.1-0.2,0.1c-0.1,0-0.1-0.1,0.1-0.3c0.2-0.2,0.3-0.3,0.2-0.4s-0.1,0-0.2,0.1
	c-0.2,0.2-0.3,0.2-0.3,0c0-0.1,0-0.1-0.1-0.2c-0.1,0-0.1,0-0.1,0.1c0,0.1-0.1,0.2-0.1,0.2c-0.2,0-0.2-0.1-0.2-0.8c0-0.3,0-0.5,0-0.7
	c0-0.2,0-0.4,0.1-0.7C-86.8-98.8-86.9-98.4-86.9-97.9z M-79-99.1c0.9,0.6,1.3,1.2,1.4,2.1c0,0.3,0.1,0.6,0.1,0.6
	c0.2,0-0.1-1.3-0.4-1.7c-0.3-0.4-0.4-0.7-0.6-0.6C-78.5-98.7-79.1-99.2-79-99.1z M-82.6-96.3c-0.1,0.5,0.2,2.3,0.3,2.6
	c0.1,0.1-0.3,0.4-0.5,0.4c-0.2,0-0.2,0,0,0.1c0.2,0.1,0.2,0.1,0.4-0.1c0.2-0.2,0.5-0.3,0.6-0.1c0,0.1,0.1,0.1,0.2,0.1
	c0.1,0,0.1,0,0-0.1c-0.2-0.1,0-0.1,0.3,0c0.1,0.1,0.1,0.1,0.1,0.1c-0.1,0.1-0.1,0.1,0.1,0.1c0.1,0.1,0.1,0,0.1-0.1
	c-0.1-0.1,0-0.1,0.1-0.1c0.1,0,0.2,0,0.2,0c0-0.1-0.5-0.3-0.8-0.3c-0.3,0-0.4-0.1-0.6-0.7c-0.1-0.2-0.1-0.2,0.4,0.1
	c0.4,0.3,0.7,0.4,0.7,0.2c0-0.1,0-0.1-0.1-0.1c-0.1,0.1-1-0.6-1.1-0.8c-0.1-0.3,0-0.3,0.2-0.1c0.1,0.1,0.4,0.2,0.7,0.3
	c0.6,0.2,0.7,0.4,0.2,0.3c-0.5-0.1-0.5,0,0,0.2c0.3,0.1,0.4,0.2,0.6,0.9c0.2,0.6,0.2,0.7,0.2,0.4c0-0.2-0.1-0.6-0.2-0.8
	c-0.2-0.3-0.2-0.4-0.1-0.4c0.1,0,0.1,0,0.1-0.1c0-0.1-0.5-0.5-0.7-0.5c-0.1,0-0.1-0.1,0.1-0.2c0.1-0.1,0.2-0.3,0.2-0.4
	c0-0.1,0-0.1-0.2,0c-0.3,0.2-0.9,0.2-1.1,0c-0.1-0.1-0.1-0.1,0.1-0.1c0.3,0.1,0.6-0.1,0.6-0.4c0-0.2-0.2-0.1-0.2,0.1
	c0,0.1-0.1,0.2-0.2,0.2c-0.2,0-0.2,0,0-0.1c0.1-0.1,0.1-0.1-0.1,0c-0.3,0.1-0.3,0.1-0.2-0.7C-82.4-97-82.5-96.9-82.6-96.3z
	 M-81.2-95.1c0,0.1-0.4,0.2-0.6,0.2c-0.2-0.1-0.1-0.1,0.1-0.1C-81.3-95.2-81.2-95.2-81.2-95.1z M-85.8-96.5c0.1,0.1,0.6,0.2,0.6,0.1
	c0,0-0.1-0.1-0.2-0.1C-85.8-96.6-85.9-96.6-85.8-96.5z M-77-96.4c0,0.1,0,0.2-0.1,0.2c-0.1,0-0.1,0,0,0.1c0.1,0.1,0.1,0.1,0,0.2
	c-0.1,0-0.2,0-0.2-0.1c-0.1-0.1-0.3-0.2-0.4-0.2c-0.2,0-0.3,0-0.2-0.1c0-0.1,0-0.1-0.1-0.1c-0.1,0-0.1,0.1-0.1,0.2
	c0.1,0.2-0.2,0.2-0.3,0c-0.1-0.1-0.1-0.1-0.1,0c0,0.1,0.2,0.2,0.5,0.2c0.2,0,0.5,0,0.5,0.1c0,0,0.1,0.8,0.1,1.8c0,1,0,1.7,0,1.6
	c0-0.1-0.1-0.1-0.1,0c0,0.1-0.1,0-0.1-0.1c-0.1-0.2-0.2-0.2-0.2,0c0,0.1,0,0.4,0.1,0.6c0.1,0.2,0.2,0.4,0.1,0.3
	c-0.2-0.1-0.6-0.9-0.7-1.4c-0.1-0.5-0.1-0.5,0.2-0.5l0.3,0l-0.3-0.1l-0.3-0.1l0.4-0.1l0.4-0.1l-0.4,0c-0.4,0-0.4,0-0.2-0.2
	c0.1-0.1,0.3-0.2,0.5-0.2c0.2,0,0.3,0,0.3-0.1c0-0.1-0.7-0.1-0.9,0.1c-0.1,0.1-0.1,0.2-0.1,0.3c0,0.1,0,0.2-0.2,0.2
	c-0.1,0-0.2,0.1-0.2,0.1c0,0.1,0.1,0.1,0.2,0c0.2,0,0.2,0,0.2,0.5c0.1,0.6,0.4,1.4,0.8,1.8c0.4,0.4,1.4,0.9,2,1
	c0.4,0.1,0.5,0.1,0.3-0.1c-0.2-0.1-0.2-0.3-0.2-1c0-0.8-0.1-1.3-0.4-1.4c-0.1,0-0.1,0-0.1,0c0.1,0.1,0,0.1-0.1,0.1
	c-0.2-0.1-0.2-0.1,0-0.2c0.1-0.1,0.2-0.2,0.1-0.2c-0.1,0-0.1-0.1-0.1-0.1c0,0,0-0.3-0.1-0.5c-0.1-0.2-0.1-0.4-0.2-0.3
	c0,0.1-0.1,0.1-0.3,0.1l-0.3,0l0.3,0.1c0.4,0.1,0.6,0.4,0.5,0.6c0,0.1-0.1,0.1-0.2,0c-0.1,0-0.2,0-0.2,0.4c0,0.3,0.1,0.5,0.1,0.5
	c0.1,0,0.1,0,0.1-0.2c0-0.1,0.1-0.2,0.1-0.2c0.2,0.1,0.4,0.5,0.4,1.2c0,0.8-0.1,0.8-1,0.4c-0.5-0.3-0.6-0.4-0.7-0.6
	c0-0.2-0.1-0.4-0.1-0.5c-0.1-0.1,0-0.2,0.1-0.1c0.1,0,0.2,0,0.3-0.2l0.1-0.2l0.2,0.3c0.3,0.4,0.4,0.4,0.2,0
	c-0.1-0.1-0.1-0.4-0.1-0.6v-0.4l-0.1,0.4c-0.1,0.3-0.1,0.3-0.2,0.2c-0.2-0.2-0.2-0.6-0.3-1.5l-0.1-0.7l0.4,0c0.4,0,0.4,0-0.2-0.1
	c-0.2,0-0.2-0.1-0.2-0.4c0-0.3,0-0.3,0.2-0.2c0.2,0.1,0.5,0,0.5-0.1c0,0-0.1-0.1-0.1,0c-0.1,0-0.1,0-0.1-0.3c0-0.2,0-0.3-0.1-0.3
	C-77-96.6-77-96.5-77-96.4z M-86.1-96.3c0.5,0.2,0.4,0.5-0.1,0.5l-0.4,0l0.4,0.1c0.3,0.1,0.4,0.2,0.4,0.3c0,0.1,0,0.1,0.1,0
	c0.1-0.2-0.1-0.7-0.3-0.9c-0.1-0.1-0.2-0.1-0.4-0.1C-86.3-96.5-86.3-96.4-86.1-96.3z M-78.9-96.2c0,0.1,0.1,0.2,0.3,0.2
	c0.2,0.1,0.3,0.2,0.3,0.2c0.1,0.1,0.5,0,0.5-0.2c0-0.1-0.1-0.1-0.3-0.1c-0.2,0-0.4-0.1-0.6-0.2C-78.7-96.2-78.9-96.3-78.9-96.2z
	 M-76.6-96.1c0.2,0.2,0.1,0.5-0.2,0.5c-0.3,0-0.2,0.2,0.1,0.3c0.4,0.1,0.4,0.3,0.1,0.5c-0.1,0.1-0.1,0.1-0.1,0.1
	c0.2,0,0.4-0.2,0.4-0.5c0-0.2,0-0.2-0.3-0.2c-0.3,0-0.3,0-0.1-0.1c0.1-0.1,0.2-0.2,0.3-0.3c0.1-0.2-0.1-0.4-0.3-0.4
	C-76.7-96.3-76.7-96.2-76.6-96.1z M-83.6-95.7c0,0.1,0.2,0.3,0.4,0.4l0.3,0.1l-0.2,0.2c-0.1,0.1-0.3,0.2-0.4,0.2c-0.1,0-0.1,0,0-0.1
	c0.1-0.1,0.1-0.1,0.1-0.1c-0.1,0,0-0.1,0-0.2c0.1-0.1,0.1-0.2,0-0.2c-0.1,0-0.5,0.5-0.5,0.6c0,0.1,0.6,0,0.9-0.1
	c0.2-0.1,0.2-0.1,0,0.1c-0.1,0.1-0.4,0.3-0.6,0.4c-0.2,0.1-0.4,0.2-0.3,0.2c0,0,0.2,0,0.4-0.1l0.4-0.2l-0.2,0.2
	c-0.1,0.1-0.3,0.2-0.4,0.2c-0.1,0-0.1,0.1-0.1,0.2c0,0.1,0.1,0.2,0.1,0.2s0.1,0,0.1,0c0.2,0,0.4,0.6,0.4,1.3c0,0.5,0,0.6,0.1,0.7
	c0.1,0.1,0.1,0.2,0.1,0.5c0,0.3,0,0.5,0.4,0.9c0.4,0.5,0.6,0.9,0.6,1.5l0,0.3l0.5-0.5c0.2-0.3,0.6-0.8,0.8-1.2l0.3-0.7l-0.5-0.4
	c-0.5-0.4-0.6-0.6-1-2.1c-0.1-0.3-0.2-0.1-0.2,0.2c0,0.2,0,0.3-0.2,0.4c-0.4,0.2-0.5,0.1-0.2-0.1c0.2-0.1,0.3-0.2,0.2-0.2
	c-0.7,0.3-0.8,0.3-0.7,0.5c0.1,0.2,0.4,0.2,0.8-0.1c0.2-0.1,0.2-0.1,0.3,0.4c0.1,0.3,0.2,0.6,0.2,0.7c0.1,0.1,0,0.2-0.2,0.4
	c-0.3,0.3-0.9,0.7-1,0.7c0,0-0.1-0.2-0.1-0.4c0-0.4,0-0.4,0.2-0.5c0.3-0.1,0.6-0.4,0.5-0.5c-0.1-0.1-0.4,0.1-0.4,0.2
	c0,0.1-0.5,0.1-0.6,0c0-0.1-0.1-0.4-0.1-0.8c0-0.4-0.1-0.8-0.1-0.9c-0.1-0.1-0.1-0.2,0-0.2c0.2,0,0.7-0.4,0.7-0.5
	c0,0-0.2,0.1-0.4,0.2c-0.4,0.2-0.6,0.3-0.6,0.2c0,0,0.2-0.3,0.5-0.5c0.3-0.3,0.4-0.4,0.2-0.3c-0.3,0.2-0.4,0.1-0.1-0.1
	c0.1-0.1,0.2-0.3,0.2-0.4s0.1-0.2,0.1-0.2c0.2-0.1,0.1-0.2-0.2-0.2c-0.2,0-0.3,0-0.4-0.2C-83.4-95.8-83.6-95.9-83.6-95.7z
	 M-81.3-90.7c0,0.3,0,0.6,0,0.8c-0.2,0.5-0.4,0.9-0.5,0.9c0,0-0.1-0.2-0.2-0.4c-0.1-0.2-0.2-0.5-0.3-0.6c-0.2-0.3-0.2-0.4,0.3-0.7
	c0.4-0.2,0.4-0.2,0.5,0.4c0,0.2,0,0,0-0.4C-81.6-91.5-81.5-91.5-81.3-90.7z M-81-90.4c0,0.1-0.1,0-0.1-0.1c0-0.1,0-0.2,0.1-0.1
	C-81-90.6-81-90.5-81-90.4z M-78.7-95.5c-0.1,0.1-0.1,0.2-0.1,0.2c0.1,0,0.2-0.1,0.3-0.2c0.1-0.1,0.1-0.2,0.1-0.2
	C-78.5-95.7-78.6-95.6-78.7-95.5z M-78.3-95.5c-0.1,0.1-0.3,0.8-0.2,0.8c0,0,0.1,0,0.2-0.1c0.1-0.1,0.3-0.1,0.4-0.2
	c0.2-0.1,0.2-0.1-0.1-0.1c-0.3,0.1-0.4,0-0.4-0.1c0-0.1,0.1-0.2,0.3-0.3c0.2-0.1,0.2-0.1,0-0.1C-78.1-95.6-78.3-95.5-78.3-95.5z
	 M-87.9-94.7c0,0.1,0,0.3-0.1,0.5c-0.1,0.2-0.1,0.2,0.1,0c0.1-0.2,0.3-0.3,0.5-0.4c0.2,0,0.3-0.1,0.3-0.1c0,0-0.1,0-0.3,0
	C-87.6-94.7-87.8-94.7-87.9-94.7C-87.9-94.9-87.9-94.8-87.9-94.7z M-76.4-94.6c-0.1,0.2-0.1,0.2-0.4,0.1c-0.2,0-0.3,0-0.4,0.1
	c-0.1,0.1,0.1,0.1,0.4,0.1c0.4,0,0.5,0,0.5-0.3C-76.2-94.9-76.3-94.9-76.4-94.6z M-77-93.5C-77-93.3-77-93.3-77-93.5
	c0.1,0,0.1-0.1,0.1-0.1C-77-93.6-77-93.6-77-93.5z M-81.2-92.8c0.3,0.2,0.5,0.4,0.6,0.5c0.1,0.2,0.1,0.2,0.1,0
	c0-0.1-0.1-0.2-0.2-0.3c-0.1-0.1-0.1-0.2-0.1-0.2c0,0,0-0.1-0.1-0.2c-0.2-0.1-0.2-0.1,0,0c0.1,0.2,0,0.3-0.1,0.1
	c-0.1-0.1-0.2-0.1-0.4-0.2C-81.6-93.1-81.5-93-81.2-92.8z M-77.6-92.9C-77.6-92.8-77.6-92.8-77.6-92.9c0.1,0,0.1-0.1,0.1-0.1
	C-77.6-93.1-77.6-93.1-77.6-92.9z M-81.1-91.8c0.2,0.2,0.5,0.5,0.5,0.7l0.1,0.3l0-0.4c0-0.3-0.1-0.4-0.4-0.7
	C-81.5-92.3-81.7-92.3-81.1-91.8z M-80.6-91.9c0,0.1,0,0.2,0.1,0.1c0-0.1,0-0.2,0-0.3C-80.6-92.1-80.6-92-80.6-91.9z"/>
<path id="Group-2" transform="translate(109.601145, 80.142785)" class="st0" d="M-95.3-77.1c-0.6-0.6-1.3-0.9-2.2-0.9
	s-1.6,0.4-2.2,0.9c0.8,0,1.6,0.3,2.2,0.9C-96.9-76.8-96.1-77.1-95.3-77.1 M-95.3-77.1c-0.6-0.6-1.3-0.9-2.2-0.9s-1.6,0.4-2.2,0.9
	c0.8,0,1.6,0.3,2.2,0.9C-96.9-76.8-96.1-77.1-95.3-77.1z M-94.4-74.9c0.9,0,1.6,0.4,2.2,0.9c0-0.8-0.3-1.6-0.9-2.2
	c-0.6-0.6-1.4-0.9-2.2-0.9C-94.7-76.5-94.4-75.7-94.4-74.9 M-94.4-74.9c0.9,0,1.6,0.4,2.2,0.9c0-0.8-0.3-1.6-0.9-2.2
	c-0.6-0.6-1.4-0.9-2.2-0.9C-94.7-76.5-94.4-75.7-94.4-74.9z M-96.6-73.9c0.6-0.6,1.3-0.9,2.2-0.9c0-0.9-0.3-1.6-0.9-2.2
	c-0.8,0-1.6,0.3-2.2,0.9C-96.9-75.5-96.6-74.7-96.6-73.9 M-96.6-73.9c0.6-0.6,1.3-0.9,2.2-0.9c0-0.9-0.3-1.6-0.9-2.2
	c-0.8,0-1.6,0.3-2.2,0.9C-96.9-75.5-96.6-74.7-96.6-73.9z M-92.2-73.9c0,0.8-0.3,1.6-0.9,2.2c0.6,0.6,0.9,1.4,0.9,2.2
	c0.6-0.6,0.9-1.3,0.9-2.2C-91.3-72.6-91.7-73.4-92.2-73.9 M-92.2-73.9c0,0.8-0.3,1.6-0.9,2.2c0.6,0.6,0.9,1.4,0.9,2.2
	c0.6-0.6,0.9-1.3,0.9-2.2C-91.3-72.6-91.7-73.4-92.2-73.9z M-95.3-72.7c0.8,0,1.6,0.3,2.2,0.9c0.6-0.6,0.9-1.4,0.9-2.2
	c-0.6-0.6-1.3-0.9-2.2-0.9C-94.4-74-94.7-73.2-95.3-72.7 M-95.3-72.7c0.8,0,1.6,0.3,2.2,0.9c0.6-0.6,0.9-1.4,0.9-2.2
	c-0.6-0.6-1.3-0.9-2.2-0.9C-94.4-74-94.7-73.2-95.3-72.7z M-97.5-71.8c0.6-0.6,1.4-0.9,2.2-0.9c0.6-0.6,0.9-1.3,0.9-2.2
	c-0.9,0-1.6,0.4-2.2,0.9C-96.6-73.2-96.9-72.4-97.5-71.8 M-97.5-71.8c0.6-0.6,1.4-0.9,2.2-0.9c0.6-0.6,0.9-1.3,0.9-2.2
	c-0.9,0-1.6,0.4-2.2,0.9C-96.6-73.2-96.9-72.4-97.5-71.8z M-95.3-66.5c0.8,0,1.6-0.3,2.2-0.9s0.9-1.4,0.9-2.2
	c-0.6,0.6-1.3,0.9-2.2,0.9C-94.4-67.8-94.7-67-95.3-66.5 M-95.3-66.5c0.8,0,1.6-0.3,2.2-0.9s0.9-1.4,0.9-2.2
	c-0.6,0.6-1.3,0.9-2.2,0.9C-94.4-67.8-94.7-67-95.3-66.5z M-95.3-70.8c0.6,0.6,0.9,1.3,0.9,2.2c0.9,0,1.6-0.4,2.2-0.9
	c0-0.8-0.3-1.6-0.9-2.2C-93.7-71.1-94.5-70.8-95.3-70.8 M-95.3-70.8c0.6,0.6,0.9,1.3,0.9,2.2c0.9,0,1.6-0.4,2.2-0.9
	c0-0.8-0.3-1.6-0.9-2.2C-93.7-71.1-94.5-70.8-95.3-70.8z M-97.5-71.8c0.9,0,1.6,0.4,2.2,0.9c0.8,0,1.6-0.3,2.2-0.9
	c-0.6-0.6-1.4-0.9-2.2-0.9C-95.9-72.1-96.6-71.8-97.5-71.8 M-97.5-71.8c0.9,0,1.6,0.4,2.2,0.9c0.8,0,1.6-0.3,2.2-0.9
	c-0.6-0.6-1.4-0.9-2.2-0.9C-95.9-72.1-96.6-71.8-97.5-71.8z M-95.3-72.7c-0.8,0-1.6,0.3-2.2,0.9C-96.6-71.8-95.9-72.1-95.3-72.7
	 M-95.3-72.7c-0.8,0-1.6,0.3-2.2,0.9C-96.6-71.8-95.9-72.1-95.3-72.7z M-99.7-66.5c0.6,0.6,1.3,0.9,2.2,0.9s1.6-0.4,2.2-0.9
	c-0.8,0-1.6-0.3-2.2-0.9C-98.1-66.8-98.9-66.5-99.7-66.5 M-99.7-66.5c0.6,0.6,1.3,0.9,2.2,0.9s1.6-0.4,2.2-0.9
	c-0.8,0-1.6-0.3-2.2-0.9C-98.1-66.8-98.9-66.5-99.7-66.5z M-96.6-69.6c0,0.8-0.3,1.6-0.9,2.2c0.6,0.6,1.4,0.9,2.2,0.9
	c0.6-0.6,0.9-1.3,0.9-2.2C-95.2-68.6-96-69-96.6-69.6 M-96.6-69.6c0,0.8-0.3,1.6-0.9,2.2c0.6,0.6,1.4,0.9,2.2,0.9
	c0.6-0.6,0.9-1.3,0.9-2.2C-95.2-68.6-96-69-96.6-69.6z M-96.6-69.6c0.6,0.6,1.3,0.9,2.2,0.9c0-0.9-0.3-1.6-0.9-2.2
	c-0.8,0-1.6-0.3-2.2-0.9C-96.9-71.1-96.6-70.4-96.6-69.6 M-96.6-69.6c0.6,0.6,1.3,0.9,2.2,0.9c0-0.9-0.3-1.6-0.9-2.2
	c-0.8,0-1.6-0.3-2.2-0.9C-96.9-71.1-96.6-70.4-96.6-69.6z M-95.3-70.8c-0.6-0.6-1.3-0.9-2.2-0.9C-96.9-71.1-96.1-70.8-95.3-70.8
	 M-95.3-70.8c-0.6-0.6-1.3-0.9-2.2-0.9C-96.9-71.1-96.1-70.8-95.3-70.8z M-102.7-69.6c0,0.8,0.3,1.6,0.9,2.2
	c0.6,0.6,1.4,0.9,2.2,0.9c-0.6-0.6-0.9-1.3-0.9-2.2C-101.4-68.6-102.2-69-102.7-69.6 M-102.7-69.6c0,0.8,0.3,1.6,0.9,2.2
	c0.6,0.6,1.4,0.9,2.2,0.9c-0.6-0.6-0.9-1.3-0.9-2.2C-101.4-68.6-102.2-69-102.7-69.6z M-97.5-67.4c-0.6-0.6-0.9-1.4-0.9-2.2
	c-0.6,0.6-1.3,0.9-2.2,0.9c0,0.9,0.3,1.6,0.9,2.2C-98.9-66.5-98.1-66.8-97.5-67.4 M-97.5-67.4c-0.6-0.6-0.9-1.4-0.9-2.2
	c-0.6,0.6-1.3,0.9-2.2,0.9c0,0.9,0.3,1.6,0.9,2.2C-98.9-66.5-98.1-66.8-97.5-67.4z M-97.5-71.8c0,0.9-0.3,1.6-0.9,2.2
	c0,0.8,0.3,1.6,0.9,2.2c0.6-0.6,0.9-1.4,0.9-2.2C-97.1-70.1-97.5-70.9-97.5-71.8 M-97.5-71.8c0,0.9-0.3,1.6-0.9,2.2
	c0,0.8,0.3,1.6,0.9,2.2c0.6-0.6,0.9-1.4,0.9-2.2C-97.1-70.1-97.5-70.9-97.5-71.8z M-97.5-71.8c0,0.9,0.3,1.6,0.9,2.2
	C-96.6-70.4-96.9-71.1-97.5-71.8 M-97.5-71.8c0,0.9,0.3,1.6,0.9,2.2C-96.6-70.4-96.9-71.1-97.5-71.8z M-102.7-73.9
	c-0.6,0.6-0.9,1.3-0.9,2.2s0.3,1.6,0.9,2.2c0-0.8,0.3-1.6,0.9-2.2C-102.4-72.4-102.7-73.2-102.7-73.9 M-102.7-73.9
	c-0.6,0.6-0.9,1.3-0.9,2.2s0.3,1.6,0.9,2.2c0-0.8,0.3-1.6,0.9-2.2C-102.4-72.4-102.7-73.2-102.7-73.9z M-99.7-70.8
	c-0.8,0-1.6-0.3-2.2-0.9c-0.6,0.6-0.9,1.4-0.9,2.2c0.6,0.6,1.3,0.9,2.2,0.9C-100.6-69.5-100.2-70.3-99.7-70.8 M-99.7-70.8
	c-0.8,0-1.6-0.3-2.2-0.9c-0.6,0.6-0.9,1.4-0.9,2.2c0.6,0.6,1.3,0.9,2.2,0.9C-100.6-69.5-100.2-70.3-99.7-70.8z M-99.7-70.8
	c-0.6,0.6-0.9,1.3-0.9,2.2c0.9,0,1.6-0.4,2.2-0.9c0-0.8,0.3-1.6,0.9-2.2C-98.1-71.1-98.9-70.8-99.7-70.8 M-99.7-70.8
	c-0.6,0.6-0.9,1.3-0.9,2.2c0.9,0,1.6-0.4,2.2-0.9c0-0.8,0.3-1.6,0.9-2.2C-98.1-71.1-98.9-70.8-99.7-70.8z M-98.4-69.6
	c0.6-0.6,0.9-1.3,0.9-2.2C-98.1-71.1-98.4-70.4-98.4-69.6 M-98.4-69.6c0.6-0.6,0.9-1.3,0.9-2.2C-98.1-71.1-98.4-70.4-98.4-69.6z
	 M-99.7-77.1c-0.8,0-1.6,0.3-2.2,0.9s-0.9,1.4-0.9,2.2c0.6-0.6,1.3-0.9,2.2-0.9C-100.6-75.7-100.2-76.5-99.7-77.1 M-99.7-77.1
	c-0.8,0-1.6,0.3-2.2,0.9s-0.9,1.4-0.9,2.2c0.6-0.6,1.3-0.9,2.2-0.9C-100.6-75.7-100.2-76.5-99.7-77.1z M-100.6-74.9
	c0.9,0,1.6,0.4,2.2,0.9c0-0.8,0.3-1.6,0.9-2.2c-0.6-0.6-1.4-0.9-2.2-0.9C-100.2-76.5-100.6-75.7-100.6-74.9 M-100.6-74.9
	c0.9,0,1.6,0.4,2.2,0.9c0-0.8,0.3-1.6,0.9-2.2c-0.6-0.6-1.4-0.9-2.2-0.9C-100.2-76.5-100.6-75.7-100.6-74.9z M-96.6-73.9
	c0-0.8-0.3-1.6-0.9-2.2c-0.6,0.6-0.9,1.4-0.9,2.2c0.6,0.6,0.9,1.3,0.9,2.2C-97.5-72.6-97.1-73.4-96.6-73.9 M-96.6-73.9
	c0-0.8-0.3-1.6-0.9-2.2c-0.6,0.6-0.9,1.4-0.9,2.2c0.6,0.6,0.9,1.3,0.9,2.2C-97.5-72.6-97.1-73.4-96.6-73.9z M-97.5-71.8
	c0.6-0.6,0.9-1.4,0.9-2.2C-97.1-73.4-97.5-72.6-97.5-71.8 M-97.5-71.8c0.6-0.6,0.9-1.4,0.9-2.2C-97.1-73.4-97.5-72.6-97.5-71.8z
	 M-99.7-72.7c-0.6-0.6-0.9-1.3-0.9-2.2c-0.9,0-1.6,0.4-2.2,0.9c0,0.8,0.3,1.6,0.9,2.2C-101.2-72.4-100.4-72.7-99.7-72.7 M-99.7-72.7
	c-0.6-0.6-0.9-1.3-0.9-2.2c-0.9,0-1.6,0.4-2.2,0.9c0,0.8,0.3,1.6,0.9,2.2C-101.2-72.4-100.4-72.7-99.7-72.7z M-97.5-71.8
	c-0.6-0.6-0.9-1.4-0.9-2.2c-0.6-0.6-1.3-0.9-2.2-0.9c0,0.9,0.3,1.6,0.9,2.2C-98.9-72.7-98.1-72.4-97.5-71.8 M-97.5-71.8
	c-0.6-0.6-0.9-1.4-0.9-2.2c-0.6-0.6-1.3-0.9-2.2-0.9c0,0.9,0.3,1.6,0.9,2.2C-98.9-72.7-98.1-72.4-97.5-71.8z M-98.4-73.9
	c0,0.8,0.3,1.6,0.9,2.2C-97.5-72.6-97.8-73.4-98.4-73.9 M-98.4-73.9c0,0.8,0.3,1.6,0.9,2.2C-97.5-72.6-97.8-73.4-98.4-73.9z
	 M-99.7-72.7c-0.8,0-1.6,0.3-2.2,0.9c0.6,0.6,1.4,0.9,2.2,0.9c0.6-0.6,1.3-0.9,2.2-0.9C-98.3-71.8-99.1-72.1-99.7-72.7 M-99.7-72.7
	c-0.8,0-1.6,0.3-2.2,0.9c0.6,0.6,1.4,0.9,2.2,0.9c0.6-0.6,1.3-0.9,2.2-0.9C-98.3-71.8-99.1-72.1-99.7-72.7z M-99.7-72.7
	c0.6,0.6,1.3,0.9,2.2,0.9C-98.1-72.4-98.9-72.7-99.7-72.7 M-99.7-72.7c0.6,0.6,1.3,0.9,2.2,0.9C-98.1-72.4-98.9-72.7-99.7-72.7z
	 M-97.5-71.8c-0.9,0-1.6,0.4-2.2,0.9C-98.9-70.8-98.1-71.1-97.5-71.8 M-97.5-71.8c-0.9,0-1.6,0.4-2.2,0.9
	C-98.9-70.8-98.1-71.1-97.5-71.8z M-93.8-76.1c-0.4-0.7-1-1.3-1.8-1.5s-1.7-0.2-2.4,0.2c0.8,0.2,1.4,0.8,1.8,1.5
	C-95.4-76.3-94.6-76.4-93.8-76.1 M-93.8-76.1c-0.4-0.7-1-1.3-1.8-1.5s-1.7-0.2-2.4,0.2c0.8,0.2,1.4,0.8,1.8,1.5
	C-95.4-76.3-94.6-76.4-93.8-76.1z M-93.6-73.8c0.8,0.3,1.4,0.8,1.8,1.5c0.2-0.8,0.2-1.6-0.2-2.4c-0.4-0.8-1.1-1.3-1.8-1.5
	C-93.5-75.4-93.3-74.6-93.6-73.8 M-93.6-73.8c0.8,0.3,1.4,0.8,1.8,1.5c0.2-0.8,0.2-1.6-0.2-2.4c-0.4-0.8-1.1-1.3-1.8-1.5
	C-93.5-75.4-93.3-74.6-93.6-73.8z M-96-73.6c0.7-0.4,1.5-0.5,2.4-0.2c0.3-0.8,0.2-1.7-0.2-2.4c-0.8-0.2-1.6-0.2-2.4,0.2
	C-95.8-75.2-95.7-74.3-96-73.6 M-96-73.6c0.7-0.4,1.5-0.5,2.4-0.2c0.3-0.8,0.2-1.7-0.2-2.4c-0.8-0.2-1.6-0.2-2.4,0.2
	C-95.8-75.2-95.7-74.3-96-73.6z M-91.8-72.2c-0.2,0.8-0.8,1.4-1.5,1.8c0.4,0.8,0.4,1.6,0.2,2.4c0.7-0.4,1.3-1,1.5-1.8
	C-91.3-70.7-91.4-71.5-91.8-72.2 M-91.8-72.2c-0.2,0.8-0.8,1.4-1.5,1.8c0.4,0.8,0.4,1.6,0.2,2.4c0.7-0.4,1.3-1,1.5-1.8
	C-91.3-70.7-91.4-71.5-91.8-72.2z M-95.1-72c0.8,0.2,1.4,0.8,1.8,1.5c0.8-0.4,1.3-1.1,1.5-1.8c-0.4-0.7-1-1.3-1.8-1.5
	C-93.9-73-94.4-72.3-95.1-72 M-95.1-72c0.8,0.2,1.4,0.8,1.8,1.5c0.8-0.4,1.3-1.1,1.5-1.8c-0.4-0.7-1-1.3-1.8-1.5
	C-93.9-73-94.4-72.3-95.1-72z M-97.5-71.8c0.8-0.4,1.6-0.4,2.4-0.2c0.7-0.4,1.3-1,1.5-1.8c-0.8-0.3-1.7-0.2-2.4,0.2
	C-96.2-72.8-96.7-72.1-97.5-71.8 M-97.5-71.8c0.8-0.4,1.6-0.4,2.4-0.2c0.7-0.4,1.3-1,1.5-1.8c-0.8-0.3-1.7-0.2-2.4,0.2
	C-96.2-72.8-96.7-72.1-97.5-71.8z M-97-66c0.8,0.2,1.6,0.2,2.4-0.2c0.8-0.4,1.3-1.1,1.5-1.8c-0.7,0.4-1.5,0.5-2.4,0.2
	C-95.7-67-96.3-66.4-97-66 M-97-66c0.8,0.2,1.6,0.2,2.4-0.2c0.8-0.4,1.3-1.1,1.5-1.8c-0.7,0.4-1.5,0.5-2.4,0.2
	C-95.7-67-96.3-66.4-97-66z M-95.7-70.2c0.4,0.7,0.5,1.5,0.2,2.4c0.8,0.3,1.7,0.2,2.4-0.2c0.2-0.8,0.2-1.6-0.2-2.4
	C-94.1-70-94.9-70-95.7-70.2 M-95.7-70.2c0.4,0.7,0.5,1.5,0.2,2.4c0.8,0.3,1.7,0.2,2.4-0.2c0.2-0.8,0.2-1.6-0.2-2.4
	C-94.1-70-94.9-70-95.7-70.2z M-97.5-71.8c0.8,0.3,1.4,0.8,1.8,1.5c0.8,0.2,1.6,0.2,2.4-0.2c-0.4-0.8-1.1-1.3-1.8-1.5
	C-95.8-71.6-96.7-71.5-97.5-71.8 M-97.5-71.8c0.8,0.3,1.4,0.8,1.8,1.5c0.8,0.2,1.6,0.2,2.4-0.2c-0.4-0.8-1.1-1.3-1.8-1.5
	C-95.8-71.6-96.7-71.5-97.5-71.8z M-95.1-72c-0.8-0.2-1.6-0.2-2.4,0.2C-96.7-71.5-95.8-71.6-95.1-72 M-95.1-72
	c-0.8-0.2-1.6-0.2-2.4,0.2C-96.7-71.5-95.8-71.6-95.1-72z M-101.1-67.4c0.4,0.7,1,1.3,1.8,1.5c0.8,0.3,1.7,0.2,2.4-0.2
	c-0.8-0.2-1.4-0.8-1.8-1.5C-99.5-67.2-100.4-67.1-101.1-67.4 M-101.1-67.4c0.4,0.7,1,1.3,1.8,1.5c0.8,0.3,1.7,0.2,2.4-0.2
	c-0.8-0.2-1.4-0.8-1.8-1.5C-99.5-67.2-100.4-67.1-101.1-67.4z M-97.3-69.4c-0.2,0.8-0.8,1.4-1.5,1.8c0.4,0.8,1.1,1.3,1.8,1.5
	c0.7-0.4,1.3-1,1.5-1.8C-96.3-68.1-96.9-68.7-97.3-69.4 M-97.3-69.4c-0.2,0.8-0.8,1.4-1.5,1.8c0.4,0.8,1.1,1.3,1.8,1.5
	c0.7-0.4,1.3-1,1.5-1.8C-96.3-68.1-96.9-68.7-97.3-69.4z M-97.3-69.4c0.4,0.7,1,1.3,1.8,1.5c0.3-0.8,0.2-1.7-0.2-2.4
	c-0.8-0.2-1.4-0.8-1.8-1.5C-97.1-71-97-70.1-97.3-69.4 M-97.3-69.4c0.4,0.7,1,1.3,1.8,1.5c0.3-0.8,0.2-1.7-0.2-2.4
	c-0.8-0.2-1.4-0.8-1.8-1.5C-97.1-71-97-70.1-97.3-69.4z M-95.7-70.2c-0.4-0.7-1-1.3-1.8-1.5C-97.1-71-96.4-70.5-95.7-70.2
	 M-95.7-70.2c-0.4-0.7-1-1.3-1.8-1.5C-97.1-71-96.4-70.5-95.7-70.2z M-103.1-71.3c-0.2,0.8-0.2,1.6,0.2,2.4c0.4,0.8,1.1,1.3,1.8,1.5
	c-0.4-0.7-0.5-1.5-0.2-2.4C-102.2-70-102.8-70.5-103.1-71.3 M-103.1-71.3c-0.2,0.8-0.2,1.6,0.2,2.4c0.4,0.8,1.1,1.3,1.8,1.5
	c-0.4-0.7-0.5-1.5-0.2-2.4C-102.2-70-102.8-70.5-103.1-71.3z M-98.8-67.6c-0.4-0.8-0.4-1.6-0.2-2.4c-0.7,0.4-1.5,0.5-2.4,0.2
	c-0.3,0.8-0.2,1.7,0.2,2.4C-100.4-67.1-99.5-67.2-98.8-67.6 M-98.8-67.6c-0.4-0.8-0.4-1.6-0.2-2.4c-0.7,0.4-1.5,0.5-2.4,0.2
	c-0.3,0.8-0.2,1.7,0.2,2.4C-100.4-67.1-99.5-67.2-98.8-67.6z M-97.5-71.8c-0.3,0.8-0.8,1.5-1.5,1.8c-0.2,0.8-0.2,1.6,0.2,2.4
	c0.8-0.4,1.3-1.1,1.5-1.8C-97.6-70.1-97.7-70.9-97.5-71.8 M-97.5-71.8c-0.3,0.8-0.8,1.5-1.5,1.8c-0.2,0.8-0.2,1.6,0.2,2.4
	c0.8-0.4,1.3-1.1,1.5-1.8C-97.6-70.1-97.7-70.9-97.5-71.8z M-97.5-71.8c-0.3,0.8-0.2,1.7,0.2,2.4C-97-70.1-97.1-71-97.5-71.8
	 M-97.5-71.8c-0.3,0.8-0.2,1.7,0.2,2.4C-97-70.1-97.1-71-97.5-71.8z M-101.8-75.4c-0.7,0.4-1.3,1-1.5,1.8c-0.3,0.8-0.2,1.7,0.2,2.4
	c0.2-0.8,0.8-1.4,1.5-1.8C-102-73.8-102.1-74.7-101.8-75.4 M-101.8-75.4c-0.7,0.4-1.3,1-1.5,1.8c-0.3,0.8-0.2,1.7,0.2,2.4
	c0.2-0.8,0.8-1.4,1.5-1.8C-102-73.8-102.1-74.7-101.8-75.4z M-99.8-71.5c-0.8-0.2-1.4-0.8-1.8-1.5c-0.8,0.4-1.3,1.1-1.5,1.8
	c0.4,0.7,1,1.3,1.8,1.5C-101.1-70.5-100.5-71.2-99.8-71.5 M-99.8-71.5c-0.8-0.2-1.4-0.8-1.8-1.5c-0.8,0.4-1.3,1.1-1.5,1.8
	c0.4,0.7,1,1.3,1.8,1.5C-101.1-70.5-100.5-71.2-99.8-71.5z M-99.8-71.5c-0.7,0.4-1.3,1-1.5,1.8c0.8,0.3,1.7,0.2,2.4-0.2
	c0.2-0.8,0.8-1.4,1.5-1.8C-98.2-71.4-99.1-71.3-99.8-71.5 M-99.8-71.5c-0.7,0.4-1.3,1-1.5,1.8c0.8,0.3,1.7,0.2,2.4-0.2
	c0.2-0.8,0.8-1.4,1.5-1.8C-98.2-71.4-99.1-71.3-99.8-71.5z M-99-69.9c0.7-0.4,1.3-1,1.5-1.8C-98.2-71.4-98.8-70.7-99-69.9 M-99-69.9
	c0.7-0.4,1.3-1,1.5-1.8C-98.2-71.4-98.8-70.7-99-69.9z M-98-77.5c-0.8-0.2-1.6-0.2-2.4,0.2c-0.8,0.4-1.3,1.1-1.5,1.8
	c0.7-0.4,1.5-0.5,2.4-0.2C-99.2-76.5-98.7-77.1-98-77.5 M-98-77.5c-0.8-0.2-1.6-0.2-2.4,0.2c-0.8,0.4-1.3,1.1-1.5,1.8
	c0.7-0.4,1.5-0.5,2.4-0.2C-99.2-76.5-98.7-77.1-98-77.5z M-99.5-75.7c0.8,0.3,1.4,0.8,1.8,1.5c0.2-0.8,0.8-1.4,1.5-1.8
	c-0.4-0.8-1.1-1.3-1.8-1.5C-98.7-77.1-99.2-76.5-99.5-75.7 M-99.5-75.7c0.8,0.3,1.4,0.8,1.8,1.5c0.2-0.8,0.8-1.4,1.5-1.8
	c-0.4-0.8-1.1-1.3-1.8-1.5C-98.7-77.1-99.2-76.5-99.5-75.7z M-96-73.6c0.2-0.8,0.2-1.6-0.2-2.4c-0.8,0.4-1.3,1.1-1.5,1.8
	c0.4,0.7,0.5,1.5,0.2,2.4C-97.2-72.6-96.7-73.2-96-73.6 M-96-73.6c0.2-0.8,0.2-1.6-0.2-2.4c-0.8,0.4-1.3,1.1-1.5,1.8
	c0.4,0.7,0.5,1.5,0.2,2.4C-97.2-72.6-96.7-73.2-96-73.6z M-97.5-71.8c0.8-0.4,1.3-1.1,1.5-1.8C-96.7-73.2-97.2-72.6-97.5-71.8
	 M-97.5-71.8c0.8-0.4,1.3-1.1,1.5-1.8C-96.7-73.2-97.2-72.6-97.5-71.8z M-99.3-73.3c-0.4-0.7-0.5-1.5-0.2-2.4
	c-0.8-0.3-1.7-0.2-2.4,0.2c-0.2,0.8-0.2,1.6,0.2,2.4C-100.9-73.5-100-73.5-99.3-73.3 M-99.3-73.3c-0.4-0.7-0.5-1.5-0.2-2.4
	c-0.8-0.3-1.7-0.2-2.4,0.2c-0.2,0.8-0.2,1.6,0.2,2.4C-100.9-73.5-100-73.5-99.3-73.3z M-97.5-71.8c-0.4-0.8-0.4-1.6-0.2-2.4
	c-0.4-0.7-1-1.3-1.8-1.5c-0.3,0.8-0.2,1.7,0.2,2.4C-98.5-73-97.9-72.5-97.5-71.8 M-97.5-71.8c-0.4-0.8-0.4-1.6-0.2-2.4
	c-0.4-0.7-1-1.3-1.8-1.5c-0.3,0.8-0.2,1.7,0.2,2.4C-98.5-73-97.9-72.5-97.5-71.8z M-97.7-74.1c-0.2,0.8-0.2,1.6,0.2,2.4
	C-97.2-72.6-97.3-73.4-97.7-74.1 M-97.7-74.1c-0.2,0.8-0.2,1.6,0.2,2.4C-97.2-72.6-97.3-73.4-97.7-74.1z M-99.3-73.3
	c-0.8-0.2-1.6-0.2-2.4,0.2c0.4,0.8,1.1,1.3,1.8,1.5c0.7-0.4,1.5-0.5,2.4-0.2C-98.3-72-98.9-72.6-99.3-73.3 M-99.3-73.3
	c-0.8-0.2-1.6-0.2-2.4,0.2c0.4,0.8,1.1,1.3,1.8,1.5c0.7-0.4,1.5-0.5,2.4-0.2C-98.3-72-98.9-72.6-99.3-73.3z M-99.3-73.3
	c0.4,0.7,1,1.3,1.8,1.5C-97.9-72.5-98.5-73-99.3-73.3 M-99.3-73.3c0.4,0.7,1,1.3,1.8,1.5C-97.9-72.5-98.5-73-99.3-73.3z M-97.5-71.8
	c-0.8-0.3-1.7-0.2-2.4,0.2C-99.1-71.3-98.2-71.4-97.5-71.8 M-97.5-71.8c-0.8-0.3-1.7-0.2-2.4,0.2C-99.1-71.3-98.2-71.4-97.5-71.8z"
	/>
<path d="M12.1,15c-3.6,0-6.6-3-6.6-6.6s3-6.6,6.6-6.6s6.6,3,6.6,6.6S15.7,15,12.1,15z M12.1,3.2c-2.9,0-5.3,2.4-5.3,5.3
	s2.4,5.3,5.3,5.3s5.3-2.4,5.3-5.3S15,3.2,12.1,3.2z"/>
</svg>
