<?xml version="1.0" encoding="UTF-8"?>
<svg viewBox="0 0 64 64" version="1.1" xmlns="http://www.w3.org/2000/svg" xmlns:xlink="http://www.w3.org/1999/xlink">
    <title>bx-directions</title>
    <g id="Page-1" stroke="none" stroke-width="1" fill="none" fill-rule="evenodd">
        <g id="bx-directions" fill="#000000" fill-rule="nonzero">
            <path d="M63.2992,38 L56.8992,30 C56.2912,29.2416 55.3728,28.8 54.4,28.8 L35.2,28.8 L35.2,22.4 L54.4,22.4 C57.9296,22.4 60.8,19.5296 60.8,16 L60.8,6.4 C60.8,2.8704 57.9296,0 54.4,0 L9.6,0 C8.6272,0 7.7088,0.4416 7.1008,1.2 L0.7008,9.2 C-0.2336,10.368 -0.2336,12.032 0.7008,13.2 L7.1008,21.2 C7.7088,21.9584 8.6272,22.4 9.6,22.4 L28.8,22.4 L28.8,28.8 L9.6,28.8 C6.0704,28.8 3.2,31.6704 3.2,35.2 L3.2,44.8 C3.2,48.3296 6.0704,51.2 9.6,51.2 L28.8,51.2 L28.8,64 L35.2,64 L35.2,51.2 L54.4,51.2 C55.3728,51.2 56.2912,50.7584 56.8992,50 L63.2992,42 C64.2336,40.832 64.2336,39.168 63.2992,38 Z M7.2992,11.2 L11.136,6.4 L54.4,6.4 L54.4064,16 L11.136,16 L7.2992,11.2 Z M52.864,44.8 L9.6,44.8 L9.6,35.2 L52.864,35.2 L56.704,40 L52.864,44.8 Z" id="Shape"></path>
        </g>
    </g>
</svg>