<?xml version="1.0" encoding="utf-8"?>
<!-- Generator: Adobe Illustrator 25.4.1, SVG Export Plug-In . SVG Version: 6.00 Build 0)  -->
<svg version="1.1" id="Layer_1" xmlns="http://www.w3.org/2000/svg" xmlns:xlink="http://www.w3.org/1999/xlink" x="0px" y="0px"
	 viewBox="0 0 24 24" style="enable-background:new 0 0 24 24;" xml:space="preserve">
<path d="M12,9.3c-1.7,0-3,1.3-3,3s1.3,3,3,3s3-1.3,3-3S13.6,9.3,12,9.3 M12,17.3c-2.8,0-5-2.2-5-5s2.2-5,5-5s5,2.2,5,5
	S14.7,17.3,12,17.3 M12,4.8c-5,0-9.3,3.1-11,7.5c1.7,4.4,6,7.5,11,7.5s9.3-3.1,11-7.5C21.3,7.9,17,4.8,12,4.8z"/>
</svg>
