<?xml version="1.0" encoding="utf-8"?>
<!-- Generator: Adobe Illustrator 26.0.1, SVG Export Plug-In . SVG Version: 6.00 Build 0)  -->
<svg version="1.1" id="duotone" xmlns="http://www.w3.org/2000/svg" xmlns:xlink="http://www.w3.org/1999/xlink" x="0px" y="0px"
	 viewBox="0 0 64 64" style="enable-background:new 0 0 64 64;" xml:space="preserve">
<path d="M43,16c-0.6,0-1-0.4-1-1V9c0-0.6,0.4-1,1-1s1,0.4,1,1v6C44,15.6,43.6,16,43,16z"/>
<path d="M21,62c-0.6,0-1-0.4-1-1v-7c0-0.6,0.4-1,1-1s1,0.4,1,1v7C22,61.6,21.6,62,21,62z"/>
<path d="M43,62c-0.6,0-1-0.4-1-1v-7c0-0.6,0.4-1,1-1s1,0.4,1,1v7C44,61.6,43.6,62,43,62z"/>
<path d="M21,24c-0.6,0-1-0.4-1-1v-5c0-0.6,0.4-1,1-1s1,0.4,1,1v5C22,23.6,21.6,24,21,24z"/>
<path d="M43,55c-0.6,0-1-0.4-1-1V16c0-0.6,0.4-1,1-1s1,0.4,1,1v38C44,54.6,43.6,55,43,55z"/>
<path d="M43,55c-0.2,0-0.3,0-0.5-0.1l-5-2.8C36,51.1,35,49.5,35,47.7V6c0-0.6,0.4-1,1-1s1,0.4,1,1v41.7c0,1.1,0.6,2.1,1.5,2.6
	l4.5,2.6l4.5-2.6c0.9-0.5,1.5-1.5,1.5-2.6V6c0-0.6,0.4-1,1-1s1,0.4,1,1v41.7c0,1.8-1,3.4-2.5,4.3l-5,2.8C43.3,55,43.2,55,43,55z"/>
<path d="M43,50c-0.6,0-1-0.4-1-1c0-1.8,1-3.4,2.5-4.3l3-1.7c0.9-0.5,1.5-1.5,1.5-2.6c0-0.6,0.4-1,1-1s1,0.4,1,1c0,1.8-1,3.5-2.5,4.3
	l-3,1.7C44.6,46.9,44,47.9,44,49C44,49.6,43.6,50,43,50z"/>
<path d="M43,50c-0.6,0-1-0.4-1-1c0-1.1-0.6-2.1-1.5-2.6l-3-1.7C36,43.8,35,42.2,35,40.4c0-0.6,0.4-1,1-1s1,0.4,1,1
	c0,1.1,0.6,2.1,1.5,2.6l3,1.7C43,45.6,44,47.2,44,49C44,49.6,43.6,50,43,50z"/>
<path d="M43,42c-0.6,0-1-0.4-1-1c0-1.8,1-3.4,2.5-4.3l3-1.7c0.9-0.5,1.5-1.5,1.5-2.6c0-0.6,0.4-1,1-1s1,0.4,1,1c0,1.8-1,3.5-2.5,4.3
	l-3,1.7C44.6,38.9,44,39.9,44,41C44,41.6,43.6,42,43,42z"/>
<path d="M43,42c-0.6,0-1-0.4-1-1c0-1.1-0.6-2.1-1.5-2.6l-3-1.7C36,35.8,35,34.2,35,32.4c0-0.6,0.4-1,1-1s1,0.4,1,1
	c0,1.1,0.6,2.1,1.5,2.6l3,1.7C43,37.6,44,39.2,44,41C44,41.6,43.6,42,43,42z"/>
<path d="M43,34c-0.6,0-1-0.4-1-1c0-1.8,1-3.4,2.5-4.3l3-1.7c0.9-0.5,1.5-1.5,1.5-2.6c0-0.6,0.4-1,1-1s1,0.4,1,1c0,1.8-1,3.5-2.5,4.3
	l-3,1.7C44.6,30.9,44,31.9,44,33C44,33.6,43.6,34,43,34z"/>
<path d="M43,34c-0.6,0-1-0.4-1-1c0-1.1-0.6-2.1-1.5-2.6l-3-1.7C36,27.8,35,26.2,35,24.4c0-0.6,0.4-1,1-1s1,0.4,1,1
	c0,1.1,0.6,2.1,1.5,2.6l3,1.7C43,29.6,44,31.2,44,33C44,33.6,43.6,34,43,34z"/>
<path d="M43,26c-0.6,0-1-0.4-1-1c0-1.8,1-3.4,2.5-4.3l3-1.7c0.9-0.5,1.5-1.5,1.5-2.6c0-0.6,0.4-1,1-1s1,0.4,1,1c0,1.8-1,3.5-2.5,4.3
	l-3,1.7C44.6,22.9,44,23.9,44,25C44,25.6,43.6,26,43,26z"/>
<path d="M43,26c-0.6,0-1-0.4-1-1c0-1.1-0.6-2.1-1.5-2.6l-3-1.7C36,19.8,35,18.2,35,16.4c0-0.6,0.4-1,1-1s1,0.4,1,1
	c0,1.1,0.6,2.1,1.5,2.6l3,1.7C43,21.6,44,23.2,44,25C44,25.6,43.6,26,43,26z"/>
<path d="M43,18c-0.6,0-1-0.4-1-1c0-1.8,1-3.4,2.5-4.3l3-1.7c0.9-0.5,1.5-1.5,1.5-2.6c0-0.6,0.4-1,1-1s1,0.4,1,1c0,1.8-1,3.5-2.5,4.3
	l-3,1.7C44.6,14.9,44,15.9,44,17C44,17.6,43.6,18,43,18z"/>
<path d="M43,18c-0.6,0-1-0.4-1-1c0-1.1-0.6-2.1-1.5-2.6l-3-1.7C36,11.8,35,10.2,35,8.4c0-0.6,0.4-1,1-1s1,0.4,1,1
	c0,1.1,0.6,2.1,1.5,2.6l3,1.7C43,13.6,44,15.2,44,17C44,17.6,43.6,18,43,18z"/>
<path d="M21,55c-0.6,0-1-0.4-1-1V23c0-0.6,0.4-1,1-1s1,0.4,1,1v31C22,54.6,21.6,55,21,55z"/>
<path d="M21,15c-0.6,0-1-0.4-1-1v-3c0-0.6,0.4-1,1-1s1,0.4,1,1v3C22,14.6,21.6,15,21,15z"/>
<path d="M21,55c-0.2,0-0.3,0-0.5-0.1l-5-2.8C14,51.1,13,49.5,13,47.7V14c0-0.6,0.4-1,1-1s1,0.4,1,1v33.7c0,1.1,0.6,2.1,1.5,2.6
	l4.5,2.6l4.5-2.6c0.9-0.5,1.5-1.5,1.5-2.6V14c0-0.6,0.4-1,1-1s1,0.4,1,1v33.7c0,1.8-1,3.4-2.5,4.3l-5,2.8C21.3,55,21.2,55,21,55z"/>
<path d="M21,50c-0.6,0-1-0.4-1-1c0-1.8,1-3.4,2.5-4.3l3-1.7c0.9-0.5,1.5-1.5,1.5-2.6c0-0.6,0.4-1,1-1s1,0.4,1,1c0,1.8-1,3.5-2.5,4.3
	l-3,1.7C22.6,46.9,22,47.9,22,49C22,49.6,21.6,50,21,50z"/>
<path d="M21,50c-0.6,0-1-0.4-1-1c0-1.1-0.6-2.1-1.5-2.6l-3-1.7C14,43.8,13,42.2,13,40.4c0-0.6,0.4-1,1-1s1,0.4,1,1
	c0,1.1,0.6,2.1,1.5,2.6l3,1.7C21,45.6,22,47.2,22,49C22,49.6,21.6,50,21,50z"/>
<path d="M21,42c-0.6,0-1-0.4-1-1c0-1.8,1-3.4,2.5-4.3l3-1.7c0.9-0.5,1.5-1.5,1.5-2.6c0-0.6,0.4-1,1-1s1,0.4,1,1c0,1.8-1,3.5-2.5,4.3
	l-3,1.7C22.6,38.9,22,39.9,22,41C22,41.6,21.6,42,21,42z"/>
<path d="M21,42c-0.6,0-1-0.4-1-1c0-1.1-0.6-2.1-1.5-2.6l-3-1.7C14,35.8,13,34.2,13,32.4c0-0.6,0.4-1,1-1s1,0.4,1,1
	c0,1.1,0.6,2.1,1.5,2.6l3,1.7C21,37.6,22,39.2,22,41C22,41.6,21.6,42,21,42z"/>
<path d="M21,34c-0.6,0-1-0.4-1-1c0-1.8,1-3.4,2.5-4.3l3-1.7c0.9-0.5,1.5-1.5,1.5-2.6c0-0.6,0.4-1,1-1s1,0.4,1,1c0,1.8-1,3.5-2.5,4.3
	l-3,1.7C22.6,30.9,22,31.9,22,33C22,33.6,21.6,34,21,34z"/>
<path d="M21,34c-0.6,0-1-0.4-1-1c0-1.1-0.6-2.1-1.5-2.6l-3-1.7C14,27.8,13,26.2,13,24.4c0-0.6,0.4-1,1-1s1,0.4,1,1
	c0,1.1,0.6,2.1,1.5,2.6l3,1.7C21,29.6,22,31.2,22,33C22,33.6,21.6,34,21,34z"/>
<path d="M21,26c-0.6,0-1-0.4-1-1c0-1.8,1-3.4,2.5-4.3l3-1.7c0.9-0.5,1.5-1.5,1.5-2.6c0-0.6,0.4-1,1-1s1,0.4,1,1c0,1.8-1,3.5-2.5,4.3
	l-3,1.7C22.6,22.9,22,23.9,22,25C22,25.6,21.6,26,21,26z"/>
<path d="M21,26c-0.6,0-1-0.4-1-1c0-1.1-0.6-2.1-1.5-2.6l-3-1.7C14,19.8,13,18.2,13,16.4c0-0.6,0.4-1,1-1s1,0.4,1,1
	c0,1.1,0.6,2.1,1.5,2.6l3,1.7C21,21.6,22,23.2,22,25C22,25.6,21.6,26,21,26z"/>
<path d="M43,6c-0.6,0-1-0.4-1-1V3c0-0.6,0.4-1,1-1s1,0.4,1,1v2C44,5.6,43.6,6,43,6z"/>
</svg>
