<?xml version="1.0" encoding="utf-8"?>
<!-- Generator: Adobe Illustrator 25.4.1, SVG Export Plug-In . SVG Version: 6.00 Build 0)  -->
<svg version="1.1" id="Layer_1" xmlns="http://www.w3.org/2000/svg" xmlns:xlink="http://www.w3.org/1999/xlink" x="0px" y="0px"
	 viewBox="0 0 24 24" style="enable-background:new 0 0 24 24;" xml:space="preserve">
<path d="M15,10.1c0,0,0,0.9-0.9,0.9c-0.5,0-1.2,0-1.2,0s0.1-1,0.9-1C14.5,10,15,10.1,15,10.1z"/>
<path d="M15.9,13.2c0,0-1.4,1-1.5,1.4c0.1,0.8,0.2,1.2-0.4,1.9c-0.5,0.6-1,1.5-1,1.5s-0.5,0.2-1.3,0.2c-0.7,0-1.3-0.2-1.3-0.2
	s-0.5-0.9-1-1.5c-0.6-0.6-0.5-1.1-0.4-1.9c-0.1-0.4-1.5-1.4-1.5-1.4S7.2,9.6,8.1,8.4c0.9-1.3,2.7,0.2,3.8,0.2c1.1,0,2.9-1.5,3.8-0.2
	C16.4,9.6,15.9,13.2,15.9,13.2z M20.8,9c-0.7-2.4-1.5-3.1-2.7-3.8c-0.5-0.3-1.4-0.7-1.4-0.7s0.5-0.3,0.7-0.7C16,3,13.1,2.8,11.9,4
	C10.6,2.8,7.7,3,6.4,3.7c0.2,0.4,0.7,0.7,0.7,0.7S6.1,4.9,5.6,5.2C4.4,5.9,3.6,6.6,2.9,9C3.4,8.9,3.7,8.9,4,8.7
	c-0.6,1.4-1.6,3.6-0.7,7.6c0.4-0.6,1.1-0.5,1.3-1.1c0.1,1.4,0.8,4,2.5,5.2c0.1-0.7,0.6-0.9,0.8-1.9c0.4,2.1,2.9,2,4,4.1
	c1.1-2.1,3.6-2,4-4.1c0.2,1.1,0.7,1.2,0.8,1.9c1.7-1.2,2.4-3.8,2.5-5.2c0.2,0.6,0.9,0.5,1.3,1.1c0.9-4-0.1-6.2-0.7-7.6
	C20.1,8.9,20.3,8.9,20.8,9z M8.6,10.1c0,0,0,0.9,0.9,0.9c0.5,0,1.2,0,1.2,0s-0.1-1-0.9-1C9.1,10,8.6,10.1,8.6,10.1z M10.5,13.6
	l0.2,0.4c0.1,0.1,0.1,0.2,0.2,0.2l0.8,0.5H12l0.8-0.5c0.1-0.1,0.2-0.2,0.2-0.2l0.2-0.4H10.5z M13.6,15.9c-0.7,0.1-1.2-0.2-1.5-0.3
	v-1.4h-0.6v1.4c-0.2,0.1-0.7,0.4-1.5,0.3L10,16.5c0.2,0,0.3,0,0.4,0c0.7,0,1.2-0.2,1.4-0.4c0.2,0.2,0.7,0.4,1.4,0.4
	c0.1,0,0.3,0,0.4,0L13.6,15.9z"/>
</svg>
