<?xml version="1.0" encoding="utf-8"?>
<!-- Generator: Adobe Illustrator 26.0.1, SVG Export Plug-In . SVG Version: 6.00 Build 0)  -->
<svg version="1.1" id="Layer_1" xmlns="http://www.w3.org/2000/svg" xmlns:xlink="http://www.w3.org/1999/xlink" x="0px" y="0px"
	 viewBox="0 0 24 24" style="enable-background:new 0 0 24 24;" xml:space="preserve">
<path d="M17.2,5.7l1.5,1.5L7,18.9l-1.5-1.5L17.2,5.7z"/>
<path d="M7.1,6l11.7,11.7l-1.5,1.5L5.6,7.5L7.1,6z"/>
<path d="M18.9,5.4c3.8,3.8,3.8,10,0,13.9s-10,3.8-13.9,0s-3.8-10,0-13.9S15.1,1.6,18.9,5.4z M6.5,17.8c3,3,8,3,11,0s3-8,0-11
	s-8-3-11,0S3.4,14.8,6.5,17.8z"/>
<polygon points="7.1,18.6 10,20.1 12.2,20.4 14.6,20.1 17.2,18.9 11.7,13.4 "/>
</svg>
