<?xml version="1.0" encoding="utf-8"?>
<!-- Generator: Adobe Illustrator 25.4.1, SVG Export Plug-In . SVG Version: 6.00 Build 0)  -->
<svg version="1.1" id="Layer_1" xmlns="http://www.w3.org/2000/svg" xmlns:xlink="http://www.w3.org/1999/xlink" x="0px" y="0px"
	 viewBox="0 0 24 24" style="enable-background:new 0 0 24 24;" xml:space="preserve">
<style type="text/css">
	.st0{fill-rule:evenodd;clip-rule:evenodd;fill:url(#Fill-65_00000075131042221428858730000011185590928028795569_);}
	.st1{fill-rule:evenodd;clip-rule:evenodd;fill:url(#Fill-66_00000134226194532392653550000014622924911801606585_);}
	.st2{fill-rule:evenodd;clip-rule:evenodd;fill:#8D50C7;}
	.st3{fill-rule:evenodd;clip-rule:evenodd;fill:#9253C9;}
	.st4{fill-rule:evenodd;clip-rule:evenodd;fill:#9B57CB;}
	.st5{fill-rule:evenodd;clip-rule:evenodd;fill:#A35BCD;}
	.st6{fill-rule:evenodd;clip-rule:evenodd;fill:#AB5FD0;}
	.st7{fill-rule:evenodd;clip-rule:evenodd;fill:#626767;}
	.st8{fill-rule:evenodd;clip-rule:evenodd;fill:url(#Fill-74_00000098940850835040356350000011005384235982800053_);}
	.st9{fill-rule:evenodd;clip-rule:evenodd;fill:url(#Fill-75_00000172426536530506905550000004044320237420912571_);}
	.st10{fill-rule:evenodd;clip-rule:evenodd;fill:url(#Fill-76_00000175300986111524124460000004181089060548897206_);}
	.st11{fill-rule:evenodd;clip-rule:evenodd;fill:url(#Fill-77_00000059269671125923173190000009044140334379624065_);}
	.st12{fill-rule:evenodd;clip-rule:evenodd;fill:url(#Fill-78_00000086673358844253219600000015541185729757654452_);}
	.st13{fill-rule:evenodd;clip-rule:evenodd;fill:url(#Fill-79_00000111171008317514513000000001284765676536293265_);}
	.st14{fill-rule:evenodd;clip-rule:evenodd;fill:url(#Fill-82_00000011736716292299757250000000912020434003308680_);}
	.st15{fill-rule:evenodd;clip-rule:evenodd;fill:url(#Fill-83_00000103953540567332199900000003711394596234678946_);}
	.st16{fill-rule:evenodd;clip-rule:evenodd;fill:#8770B7;}
</style>
<g id="seed-flower">
	
		<linearGradient id="Fill-65_00000157281243428413465720000012258325396629655969_" gradientUnits="userSpaceOnUse" x1="-936.3668" y1="547.4514" x2="-936.3668" y2="547.334" gradientTransform="matrix(83 0 0 -83 77734 45449)">
		<stop  offset="0" style="stop-color:#FFFFFF"/>
		<stop  offset="1" style="stop-color:#DCFFF5"/>
	</linearGradient>
	
		<path id="Fill-65" style="fill-rule:evenodd;clip-rule:evenodd;fill:url(#Fill-65_00000157281243428413465720000012258325396629655969_);" d="
		M15.6,20.3c-0.9,0-1.7-0.2-2.4-0.6c0.1-0.1,0.1-0.1,0.2-0.2c0.7,0.4,1.4,0.6,2.2,0.6c0.3,0,0.5,0,0.8-0.1c-0.1,0.1-0.2,0.2-0.2,0.3
		C15.9,20.3,15.7,20.3,15.6,20.3 M16.5,20.2c0.1-0.1,0.2-0.2,0.2-0.3c1.9-0.5,3.4-2.2,3.5-4.2c0.1-0.1,0.2-0.2,0.2-0.3
		C20.4,17.8,18.7,19.8,16.5,20.2 M13,19.5c-0.9-0.5-1.5-1.3-1.9-2.3c0.1-0.1,0.1-0.1,0.2-0.2c0.4,0.9,1,1.7,1.9,2.3
		C13.1,19.4,13,19.5,13,19.5 M11,17c-0.2-0.5-0.3-1.1-0.3-1.6c0-0.4,0.1-0.8,0.2-1.2c0.1-0.1,0.2-0.3,0.4-0.4
		c-0.2,0.5-0.3,1-0.3,1.6c0,0.5,0.1,1,0.2,1.4C11.1,16.9,11,17,11,17 M20.2,15.4c0-1.1-0.4-2.1-1-2.8c0.1-0.1,0.1-0.1,0.2-0.2
		c0.6,0.8,1,1.7,1.1,2.7C20.3,15.2,20.3,15.3,20.2,15.4 M11,13.7c0.1-0.4,0.3-0.7,0.5-1c0.1,0,0.1-0.1,0.2-0.1
		C11.5,13,11.3,13.4,11,13.7 M19,12.3c-0.7-0.8-1.6-1.3-2.6-1.5c0.1-0.1,0.1-0.1,0.2-0.2c1,0.2,1.9,0.8,2.6,1.5
		C19.1,12.2,19.1,12.3,19,12.3 M12.1,12.1c0-0.1,0-0.1,0-0.2c0.3-0.3,0.6-0.5,0.9-0.7C12.8,11.5,12.5,11.8,12.1,12.1 M13.2,11.4
		c0.1-0.1,0.2-0.3,0.3-0.4c0.6-0.3,1.3-0.4,2-0.4c0.3,0,0.5,0,0.8,0.1c-0.1,0.1-0.1,0.1-0.2,0.2c-0.2,0-0.4,0-0.6,0
		C14.7,10.8,13.9,11,13.2,11.4"/>
	
		<linearGradient id="Fill-66_00000036240350591330179990000017273642399902425253_" gradientUnits="userSpaceOnUse" x1="-932.8091" y1="547.592" x2="-932.6895" y2="547.4736" gradientTransform="matrix(62 0 0 -83 57844 45463)">
		<stop  offset="0" style="stop-color:#3023AE"/>
		<stop  offset="1" style="stop-color:#C86DD7"/>
	</linearGradient>
	
		<path id="Fill-66" style="fill-rule:evenodd;clip-rule:evenodd;fill:url(#Fill-66_00000036240350591330179990000017273642399902425253_);" d="
		M12.7,21.9c-0.1,0-0.1,0-0.2,0v-0.2c0.1,0,0.1,0,0.2,0c0,0,0.1,0,0.1,0C12.8,21.8,12.8,21.8,12.7,21.9
		C12.8,21.9,12.8,21.9,12.7,21.9C12.8,21.9,12.8,21.9,12.7,21.9 M12.9,21.9C12.9,21.9,12.9,21.9,12.9,21.9c0-0.1,0-0.2,0-0.2
		c0.4,0,0.8-0.1,1.2-0.2c-0.1,0-0.1,0.1-0.1,0.2c0,0,0,0.1,0,0.1C13.7,21.8,13.3,21.9,12.9,21.9 M12.5,21.9c-0.1,0-0.2,0-0.3,0
		c0,0,0,0,0,0c0,0,0.1-0.1,0.1-0.2c0,0,0,0,0,0c0.1,0,0.2,0,0.2,0V21.9 M12.1,21.9c-0.1,0-0.2,0-0.4-0.1v-0.2c0.1,0,0.3,0.1,0.5,0.1
		c0,0,0,0,0,0C12.2,21.8,12.1,21.8,12.1,21.9C12.1,21.9,12.1,21.9,12.1,21.9 M11.6,21.8c-0.2,0-0.3-0.1-0.5-0.1v-0.2h0.2
		c0.1,0,0.2,0.1,0.3,0.1V21.8 M14.1,21.7C14.1,21.7,14.1,21.7,14.1,21.7c0-0.1,0-0.2,0.1-0.2s0.1-0.1,0.2-0.1c0.1,0,0.2,0,0.2,0.1
		l0-0.1c-0.1,0-0.2-0.1-0.3-0.1c0,0,0,0,0,0c0.7-0.2,1.2-0.6,1.7-1.1c0.1-0.1,0.2-0.2,0.2-0.3c0.6-0.8,1-1.8,1.1-2.8
		c0.1,0,0.2,0,0.2,0c0,1-0.4,2-0.9,2.8c-0.1,0.1-0.1,0.2-0.2,0.3c-0.4,0.5-0.9,0.9-1.5,1.2h0v0C14.7,21.5,14.4,21.6,14.1,21.7
		 M11.1,21.6c-0.1-0.1-0.3-0.1-0.4-0.2v0h-0.1c-0.1,0-0.2-0.1-0.3-0.1c0.1,0,0.2,0,0.3-0.1c0.2,0.1,0.3,0.1,0.5,0.2h-0.4v0.1h0.3
		V21.6 M17.4,17c0-1.1-0.4-2.1-1-2.8c0.1,0,0.2,0,0.3,0c0.6,0.8,1,1.8,1,2.8C17.5,16.9,17.5,16.9,17.4,17 M16.2,13.9
		c-0.7-0.7-1.6-1.2-2.6-1.4c0.2,0,0.3-0.1,0.5-0.1c0.9,0.3,1.7,0.8,2.3,1.5C16.3,13.9,16.2,13.9,16.2,13.9 M12.7,12.3
		c-0.2,0-0.4,0-0.5,0c0.1,0,0.1-0.1,0.2-0.1c0.1,0,0.3,0,0.4,0c0.3,0,0.6,0,0.9,0.1C13.3,12.3,13,12.3,12.7,12.3"/>
	<path id="Fill-67" class="st2" d="M10.7,21.4C10.6,21.4,10.6,21.4,10.7,21.4L10.7,21.4L10.7,21.4"/>
	<path id="Fill-68" class="st3" d="M11.2,21.6C11.1,21.6,11.1,21.6,11.2,21.6l-0.1-0.2h-0.3v-0.1h0.4c0.1,0,0.1,0,0.2,0.1h-0.2V21.6
		"/>
	<path id="Fill-69" class="st4" d="M12.2,21.9C12.1,21.9,12.1,21.9,12.2,21.9C12.1,21.9,12.1,21.9,12.2,21.9c0-0.1,0-0.1,0-0.2
		c0,0,0,0,0,0c0,0,0.1,0,0.1,0c0,0,0,0,0,0C12.2,21.8,12.2,21.8,12.2,21.9C12.2,21.9,12.2,21.9,12.2,21.9 M11.7,21.8
		C11.7,21.8,11.7,21.8,11.7,21.8l-0.1-0.3c0,0,0,0,0.1,0V21.8"/>
	<path id="Fill-70" class="st5" d="M12.6,21.9C12.5,21.9,12.5,21.9,12.6,21.9l-0.1-0.2c0,0,0,0,0.1,0V21.9"/>
	<path id="Fill-71" class="st5" d="M12.8,21.9C12.8,21.9,12.8,21.9,12.8,21.9c0-0.1,0-0.2,0-0.2c0,0,0.1,0,0.1,0
		C12.9,21.7,12.9,21.8,12.8,21.9C12.9,21.9,12.9,21.9,12.8,21.9C12.9,21.9,12.8,21.9,12.8,21.9"/>
	<path id="Fill-72" class="st6" d="M14.1,21.7C14.1,21.7,14.1,21.7,14.1,21.7c0-0.2,0-0.2,0.1-0.3c0.1,0,0.2-0.1,0.2-0.1
		c0,0,0,0,0,0c0.1,0,0.2,0,0.3,0.1l0,0.1c-0.1,0-0.2-0.1-0.2-0.1c-0.1,0-0.1,0-0.2,0.1C14.2,21.5,14.1,21.6,14.1,21.7
		C14.1,21.7,14.1,21.7,14.1,21.7C14.1,21.7,14.1,21.7,14.1,21.7"/>
	<path id="Fill-73" class="st7" d="M14.9,21.5L14.9,21.5L14.9,21.5C14.9,21.5,14.9,21.5,14.9,21.5"/>
	
		<linearGradient id="Fill-74_00000065777699154099922730000001688486344996588951_" gradientUnits="userSpaceOnUse" x1="-918.9005" y1="547.0459" x2="-918.7808" y2="546.9274" gradientTransform="matrix(32 0 0 -75 29413 41040)">
		<stop  offset="0" style="stop-color:#3023AE"/>
		<stop  offset="1" style="stop-color:#C86DD7"/>
	</linearGradient>
	
		<path id="Fill-74" style="fill-rule:evenodd;clip-rule:evenodd;fill:url(#Fill-74_00000065777699154099922730000001688486344996588951_);" d="
		M10.1,21.1c-0.8-0.6-1.5-1.3-1.8-2.3c0.1,0,0.2,0,0.2,0c0.4,0.9,1.1,1.7,2,2.3C10.3,21.1,10.2,21.1,10.1,21.1 M8.1,18.6
		c-0.2-0.5-0.3-1-0.3-1.6c0-0.5,0.1-1,0.2-1.5c0.1,0,0.2,0,0.3,0c-0.2,0.5-0.3,1-0.3,1.6c0,0.5,0.1,1.1,0.3,1.5
		C8.3,18.6,8.2,18.6,8.1,18.6 M8.2,15.2c0.3-0.9,0.9-1.6,1.7-2.2c0.2,0,0.4,0,0.5-0.1c-0.9,0.5-1.6,1.3-2,2.2
		C8.4,15.2,8.3,15.2,8.2,15.2 M10.4,12.8c0.3-0.2,0.7-0.4,1.1-0.5c0.1,0,0.1,0,0.2,0C11.2,12.5,10.8,12.7,10.4,12.8"/>
	
		<linearGradient id="Fill-75_00000025414838184736429020000018151125527491909282_" gradientUnits="userSpaceOnUse" x1="-935.8828" y1="547.4884" x2="-935.7643" y2="547.4884" gradientTransform="matrix(83 0 0 -83 77683 45458)">
		<stop  offset="0" style="stop-color:#3023AE"/>
		<stop  offset="0.4752" style="stop-color:#53A0FD"/>
		<stop  offset="1" style="stop-color:#B4EC51"/>
	</linearGradient>
	
		<path id="Fill-75" style="fill-rule:evenodd;clip-rule:evenodd;fill:url(#Fill-75_00000025414838184736429020000018151125527491909282_);" d="
		M9.6,21.3c-2.1,0-3.8-1.3-4.5-3.1c0.1,0.1,0.2,0.1,0.3,0.2c0.7,1.6,2.3,2.7,4.2,2.7c0.2,0,0.4,0,0.5,0c0.1,0,0.2,0,0.3-0.1
		c1-0.2,1.9-0.7,2.6-1.5c0.1-0.1,0.1-0.1,0.2-0.2c0.6-0.8,1-1.8,1-2.8c0.1,0,0.2,0.1,0.2,0.1c0,1.1-0.4,2.1-1.1,2.8
		c0,0.1-0.1,0.1-0.2,0.2c-0.6,0.7-1.5,1.3-2.5,1.5c-0.1,0-0.2,0.1-0.3,0.1C10.1,21.3,9.9,21.3,9.6,21.3 M5.2,18
		C5.1,18,5,17.9,4.9,17.8c-0.1-0.4-0.2-0.9-0.2-1.4c0-0.6,0.1-1.1,0.3-1.6c0.1,0,0.1,0.1,0.2,0.1c-0.2,0.5-0.2,1-0.2,1.5
		C4.9,17,5,17.5,5.2,18 M14.4,16.4c-0.1,0-0.2-0.1-0.2-0.1c0-1.1-0.4-2-1.1-2.8c0.2,0.1,0.3,0.2,0.5,0.2
		C14.1,14.5,14.4,15.4,14.4,16.4 M5.3,14.8c-0.1,0-0.1-0.1-0.2-0.1c0.4-0.9,1.1-1.7,1.9-2.3c0.1,0,0.1,0.1,0.2,0.1
		C6.3,13,5.6,13.8,5.3,14.8 M13.3,13.3c-0.4-0.2-0.7-0.5-1-0.8c0.1,0,0.1,0,0.2,0C12.8,12.8,13,13,13.3,13.3 M7.4,12.4
		c-0.1,0-0.2-0.1-0.2-0.1c0.7-0.4,1.5-0.6,2.4-0.6c0.1,0,0.3,0,0.4,0c0.1,0.1,0.3,0.2,0.4,0.3c-0.3,0-0.5-0.1-0.8-0.1
		C8.8,11.8,8.1,12,7.4,12.4 M11.7,12.2c-0.4-0.1-0.8-0.3-1.2-0.5c0.4,0.1,0.8,0.2,1.1,0.3C11.6,12.1,11.6,12.1,11.7,12.2"/>
	
		<linearGradient id="Fill-76_00000004517533413418877980000014280101494540903048_" gradientUnits="userSpaceOnUse" x1="-935.633" y1="547.3237" x2="-935.633" y2="547.2064" gradientTransform="matrix(83 0 0 -83 77665 45437)">
		<stop  offset="0" style="stop-color:#FFFFFF"/>
		<stop  offset="1" style="stop-color:#DCFFF5"/>
	</linearGradient>
	
		<path id="Fill-76" style="fill-rule:evenodd;clip-rule:evenodd;fill:url(#Fill-76_00000004517533413418877980000014280101494540903048_);" d="
		M7.5,18.9c-0.8,0-1.5-0.2-2.2-0.5c-0.1-0.1-0.2-0.1-0.3-0.2c-1.4-0.9-2.4-2.4-2.4-4.2c0-0.6,0.1-1.1,0.3-1.7c0,0.1,0.1,0.2,0.1,0.3
		c-0.1,0.4-0.2,0.9-0.2,1.3c0,1.6,0.8,3,2,3.8C4.9,17.9,5.1,18,5.2,18c0.7,0.4,1.5,0.6,2.3,0.6c0.2,0,0.5,0,0.7-0.1
		c0.1,0,0.2,0,0.2,0c1-0.2,1.9-0.8,2.6-1.5c0.1-0.1,0.1-0.1,0.2-0.2c0.6-0.8,1-1.8,1-2.8c0.1,0.2,0.1,0.3,0.2,0.5
		c-0.1,1-0.5,1.9-1.1,2.6c-0.1,0.1-0.1,0.1-0.2,0.2c-0.7,0.7-1.6,1.3-2.6,1.5c-0.1,0-0.2,0-0.2,0C8,18.8,7.7,18.9,7.5,18.9 M12.3,14
		c-0.2-0.4-0.3-0.9-0.3-1.3c0,0,0.1,0.1,0.1,0.1C12.3,13.2,12.3,13.6,12.3,14 M3.1,12.3c0-0.1-0.1-0.2-0.1-0.3
		c0.4-0.9,1.1-1.7,1.9-2.2C4.9,9.9,5,10,5,10.1C4.2,10.6,3.5,11.4,3.1,12.3 M11.8,12c-0.3-0.3-0.5-0.7-0.6-1.1
		c0.2,0.3,0.5,0.6,0.6,1C11.8,11.9,11.8,12,11.8,12 M11,11c-0.6-0.8-1.5-1.3-2.5-1.5c0-0.1-0.1-0.2-0.1-0.3c0.9,0.2,1.8,0.6,2.4,1.3
		C10.9,10.7,10.9,10.8,11,11 M5.2,9.9c0-0.1-0.1-0.1-0.1-0.2c0.7-0.4,1.5-0.6,2.3-0.6c0.2,0,0.5,0,0.7,0c0,0.1,0.1,0.2,0.1,0.2
		C8,9.4,7.7,9.4,7.5,9.4C6.6,9.4,5.9,9.6,5.2,9.9"/>
	
		<linearGradient id="Fill-77_00000020396179112258435820000002629914446613424257_" gradientUnits="userSpaceOnUse" x1="-935.6913" y1="546.9567" x2="-935.5729" y2="546.9567" gradientTransform="matrix(83 0 0 -83 77665 45408)">
		<stop  offset="0" style="stop-color:#3023AE"/>
		<stop  offset="0.4752" style="stop-color:#53A0FD"/>
		<stop  offset="1" style="stop-color:#B4EC51"/>
	</linearGradient>
	
		<path id="Fill-77" style="fill-rule:evenodd;clip-rule:evenodd;fill:url(#Fill-77_00000020396179112258435820000002629914446613424257_);" d="
		M7.5,15.5c-0.8,0-1.6-0.2-2.3-0.6c-0.1,0-0.1-0.1-0.2-0.1c-0.8-0.5-1.5-1.3-1.9-2.2c0-0.1-0.1-0.2-0.1-0.3
		c-0.2-0.5-0.3-1.1-0.3-1.7c0-1.8,1-3.3,2.4-4.2c0,0.1-0.1,0.2-0.1,0.3c-1.2,0.8-2,2.2-2,3.8c0,0.5,0.1,0.9,0.2,1.3
		c0,0.1,0.1,0.2,0.1,0.3c0.4,0.9,1,1.7,1.9,2.3c0.1,0,0.1,0.1,0.2,0.1c0.7,0.4,1.4,0.6,2.3,0.6c0.3,0,0.5,0,0.8-0.1
		c0.1,0,0.2,0,0.3-0.1c1-0.2,1.9-0.8,2.5-1.5c0.3-0.3,0.5-0.7,0.7-1.1c0,0,0.1,0,0.1-0.1c0,0.1,0,0.2,0,0.3c-0.2,0.3-0.4,0.7-0.6,1
		c-0.1,0.1-0.2,0.3-0.4,0.4c-0.7,0.6-1.5,1.1-2.4,1.3c-0.1,0-0.2,0-0.3,0C7.9,15.4,7.7,15.5,7.5,15.5 M12,12c0-0.5,0.1-1,0.3-1.4
		c0,0.4-0.1,0.8-0.2,1.2C12.2,11.9,12.1,11.9,12,12C12.1,12,12.1,12,12,12 M12.1,10.6c0-1.1-0.4-2-1-2.8c0-0.1,0.1-0.2,0.1-0.3
		c0.6,0.7,1,1.6,1.1,2.6C12.2,10.3,12.2,10.4,12.1,10.6 M11,7.6c-0.7-0.8-1.6-1.3-2.6-1.5c0-0.1,0.1-0.1,0.1-0.2
		c1,0.2,1.9,0.7,2.6,1.5C11,7.4,11,7.5,11,7.6 M5.2,6.6c0-0.1,0.1-0.2,0.1-0.3c0.7-0.3,1.4-0.5,2.2-0.5c0.3,0,0.5,0,0.8,0.1
		c0,0.1-0.1,0.1-0.1,0.2C7.9,6,7.7,6,7.5,6C6.6,6,5.8,6.2,5.2,6.6"/>
	
		<linearGradient id="Fill-78_00000172417324600158763630000014428283488349296544_" gradientUnits="userSpaceOnUse" x1="-935.8244" y1="546.8026" x2="-935.8244" y2="546.6853" gradientTransform="matrix(83 0 0 -83 77683 45388)">
		<stop  offset="0" style="stop-color:#FFFFFF"/>
		<stop  offset="1" style="stop-color:#DCFFF5"/>
	</linearGradient>
	
		<path id="Fill-78" style="fill-rule:evenodd;clip-rule:evenodd;fill:url(#Fill-78_00000172417324600158763630000014428283488349296544_);" d="
		M9.6,13.1c-0.9,0-1.7-0.2-2.4-0.6c-0.1,0-0.1-0.1-0.2-0.1c-0.8-0.5-1.5-1.3-1.9-2.3C5,10,5,9.9,5,9.9c-0.2-0.5-0.3-1-0.3-1.6
		c0-0.5,0.1-0.9,0.2-1.4C4.9,6.7,5,6.6,5,6.5c0.7-1.8,2.5-3.1,4.5-3.1c0.3,0,0.6,0,0.8,0.1c-0.1,0.1-0.2,0.1-0.3,0.2
		c-0.2,0-0.4,0-0.5,0c-1.9,0-3.5,1.1-4.2,2.7c0,0.1-0.1,0.2-0.1,0.3C5,7.2,4.9,7.7,4.9,8.2c0,0.5,0.1,1,0.2,1.5
		c0,0.1,0.1,0.1,0.1,0.2c0.4,0.9,1.1,1.7,1.9,2.3c0.1,0,0.2,0.1,0.2,0.1c0.6,0.3,1.4,0.5,2.2,0.5c0.3,0,0.6,0,0.8-0.1
		c0.4-0.1,0.9-0.2,1.2-0.4c0.1,0,0.1,0,0.2,0c0,0,0,0.1,0,0.1c0,0-0.1,0-0.1,0.1c-0.1,0-0.1,0.1-0.2,0.1c-0.3,0.2-0.7,0.3-1.1,0.3
		c-0.2,0-0.3,0.1-0.5,0.1C9.8,13.1,9.7,13.1,9.6,13.1 M12.3,12.3c-0.1,0-0.1,0-0.2,0c0,0,0-0.1,0-0.1c0,0,0.1,0,0.1-0.1
		c0.4-0.2,0.7-0.5,0.9-0.9c0.6-0.8,1-1.7,1.1-2.8c0.1,0,0.2-0.1,0.2-0.1c0,1-0.3,1.9-0.8,2.7c-0.1,0.1-0.2,0.3-0.3,0.4
		c-0.2,0.3-0.5,0.5-0.8,0.8C12.4,12.2,12.3,12.2,12.3,12.3 M14.2,8.2c0-1.1-0.4-2.1-1-2.8c0.1,0,0.1-0.1,0.2-0.1
		C14,6,14.4,7,14.4,8.1C14.4,8.1,14.3,8.1,14.2,8.2 M13,5.2c-0.7-0.7-1.6-1.3-2.6-1.5c0.1-0.1,0.2-0.1,0.3-0.2
		c1,0.2,1.8,0.8,2.5,1.5C13.2,5.1,13.1,5.1,13,5.2"/>
	
		<linearGradient id="Fill-79_00000183962899769565935990000006606220317136320905_" gradientUnits="userSpaceOnUse" x1="-936.1705" y1="546.7492" x2="-936.0508" y2="546.6307" gradientTransform="matrix(83 0 0 -83 77710 45383)">
		<stop  offset="0" style="stop-color:#3023AE"/>
		<stop  offset="1" style="stop-color:#C86DD7"/>
	</linearGradient>
	
		<path id="Fill-79" style="fill-rule:evenodd;clip-rule:evenodd;fill:url(#Fill-79_00000183962899769565935990000006606220317136320905_);" d="
		M12.7,12.5c-0.1,0-0.3,0-0.4,0c-0.1,0-0.1,0-0.2,0c-0.1-0.1-0.1-0.1-0.2-0.2c0,0,0,0,0-0.1c0.1,0,0.1,0,0.2,0c0.2,0,0.4,0,0.5,0
		c0.3,0,0.6,0,0.9-0.1c1-0.2,1.9-0.7,2.6-1.4c0.1-0.1,0.1-0.1,0.2-0.2c0.6-0.8,1-1.8,1.1-2.8c0.1,0,0.2,0,0.2,0c0,1.1-0.4,2.1-1,2.8
		c-0.1,0.1-0.1,0.1-0.2,0.2c-0.6,0.7-1.4,1.2-2.3,1.5c-0.2,0-0.3,0.1-0.5,0.1C13.3,12.5,13,12.5,12.7,12.5 M11.8,12.4
		c-0.1,0-0.1,0-0.2,0c-0.1,0-0.1,0-0.2,0c-0.4-0.1-0.7-0.3-1.1-0.5c-0.2-0.1-0.3-0.2-0.4-0.3C9.1,11,8.5,10.3,8.2,9.4
		c0-0.1-0.1-0.2-0.1-0.2C8,8.7,7.9,8.2,7.9,7.7c0-0.5,0.1-1.1,0.3-1.6c0-0.1,0.1-0.1,0.1-0.2C8.6,5,9.2,4.2,10,3.6
		c0.1-0.1,0.2-0.1,0.3-0.2c0.6-0.4,1.3-0.6,2.1-0.6c0,0,0,0,0,0c0,0,0,0,0.1,0c0,0,0,0,0.1,0c0,0,0,0,0,0v0c0,0,0.1,0,0.1,0
		c0.2,0,0.4,0,0.5,0c0,0,0,0,0,0c0,0,0,0,0,0c1.2,0.2,2.3,0.8,3.1,1.7c-0.1,0-0.2,0-0.4-0.1C15.2,3.6,14,3,12.7,3
		c-0.7,0-1.4,0.2-2.1,0.5c-0.1,0.1-0.2,0.1-0.3,0.2C9.5,4.2,8.8,5,8.4,5.9c0,0.1-0.1,0.1-0.1,0.2c-0.2,0.5-0.3,1-0.3,1.5
		c0,0.5,0.1,1.1,0.3,1.6c0,0.1,0.1,0.2,0.1,0.3c0.4,0.9,1.1,1.7,1.9,2.2c0.4,0.2,0.8,0.4,1.2,0.5C11.7,12.2,11.7,12.3,11.8,12.4
		C11.8,12.4,11.8,12.4,11.8,12.4 M17.6,7.6c-0.1,0-0.2,0-0.2,0c0-1.1-0.4-2-1.1-2.8c0.1,0,0.2,0,0.4,0.1C17.2,5.6,17.6,6.5,17.6,7.6
		"/>
	<path id="Fill-80" class="st7" d="M12.6,2.8C12.5,2.8,12.5,2.8,12.6,2.8c-0.1,0-0.1,0-0.1,0c0.1,0,0.2,0,0.2,0v0
		C12.7,2.8,12.6,2.8,12.6,2.8C12.6,2.8,12.6,2.8,12.6,2.8"/>
	<path id="Fill-81" class="st7" d="M13.4,2.8C13.4,2.8,13.4,2.8,13.4,2.8C13.4,2.8,13.4,2.8,13.4,2.8C13.4,2.8,13.4,2.8,13.4,2.8"/>
	
		<linearGradient id="Fill-82_00000090297007385462342940000013831381212574337967_" gradientUnits="userSpaceOnUse" x1="-936.4252" y1="546.829" x2="-936.3066" y2="546.829" gradientTransform="matrix(83 0 0 -83 77734 45396)">
		<stop  offset="0" style="stop-color:#3023AE"/>
		<stop  offset="0.4752" style="stop-color:#53A0FD"/>
		<stop  offset="1" style="stop-color:#B4EC51"/>
	</linearGradient>
	
		<path id="Fill-82" style="fill-rule:evenodd;clip-rule:evenodd;fill:url(#Fill-82_00000090297007385462342940000013831381212574337967_);" d="
		M15.6,14.1c-0.7,0-1.4-0.2-2-0.4c-0.2-0.1-0.3-0.2-0.5-0.2c-0.3-0.2-0.6-0.4-0.9-0.7c0,0-0.1-0.1-0.1-0.1c0-0.1,0-0.2,0-0.3
		c0,0,0,0,0,0c0.1,0.1,0.1,0.1,0.2,0.2c0.3,0.3,0.6,0.6,1,0.8c0.7,0.4,1.5,0.6,2.3,0.6c0.2,0,0.4,0,0.6,0c0.1,0,0.2,0,0.3,0
		c1-0.2,1.9-0.7,2.6-1.5c0.1-0.1,0.1-0.1,0.1-0.2c0.6-0.8,1-1.8,1-2.8c0.1,0.1,0.2,0.2,0.2,0.3c-0.1,1-0.5,2-1.1,2.7
		c0,0.1-0.1,0.1-0.2,0.2c-0.7,0.7-1.6,1.3-2.6,1.5c-0.1,0-0.2,0-0.3,0C16.1,14,15.8,14.1,15.6,14.1 M11.8,12.3
		c-0.1-0.1-0.1-0.1-0.2-0.2c0,0-0.1-0.1-0.1-0.2c-0.2-0.3-0.4-0.6-0.5-1c-0.1-0.2-0.1-0.3-0.2-0.5c-0.1-0.4-0.2-0.8-0.2-1.2
		c0-0.6,0.1-1.1,0.3-1.6c0-0.1,0.1-0.2,0.1-0.2c0.4-0.9,1.1-1.7,1.9-2.3C13,5,13.1,5,13.2,4.9c0.7-0.4,1.5-0.6,2.4-0.6
		c0.2,0,0.4,0,0.6,0c0.1,0,0.2,0,0.4,0.1c2.2,0.4,3.9,2.4,4,4.7c-0.1-0.1-0.2-0.2-0.2-0.3c-0.1-2-1.6-3.7-3.5-4.2
		c-0.1,0-0.2-0.1-0.4-0.1c-0.3,0-0.5-0.1-0.8-0.1c-0.8,0-1.6,0.2-2.2,0.6c-0.1,0-0.1,0.1-0.2,0.1c-0.9,0.5-1.5,1.3-1.9,2.3
		c0,0.1-0.1,0.2-0.1,0.3c-0.1,0.4-0.2,0.9-0.2,1.4c0,0.6,0.1,1.1,0.3,1.6c0.2,0.4,0.4,0.8,0.6,1.1C11.8,12,11.8,12.1,11.8,12.3
		C11.8,12.3,11.8,12.3,11.8,12.3"/>
	
		<linearGradient id="Fill-83_00000098918979333805142340000002426440440638687381_" gradientUnits="userSpaceOnUse" x1="-936.5321" y1="547.1746" x2="-936.4124" y2="547.0561" gradientTransform="matrix(83 0 0 -83 77744 45423)">
		<stop  offset="0" style="stop-color:#3023AE"/>
		<stop  offset="1" style="stop-color:#C86DD7"/>
	</linearGradient>
	
		<path id="Fill-83" style="fill-rule:evenodd;clip-rule:evenodd;fill:url(#Fill-83_00000098918979333805142340000002426440440638687381_);" d="
		M16.7,17.2c-0.8,0-1.6-0.2-2.3-0.6c-0.1,0-0.2-0.1-0.2-0.1c-0.8-0.5-1.4-1.2-1.9-2c-0.1-0.2-0.1-0.3-0.2-0.5
		c-0.1-0.4-0.2-0.8-0.3-1.2c0-0.1,0-0.2,0-0.3c0,0,0-0.1,0-0.1c0,0,0,0,0-0.1c0,0,0,0,0,0c0-0.1,0-0.2,0-0.3c0-0.1,0-0.1,0-0.2
		c0-0.4,0.1-0.8,0.3-1.2c0.1-0.2,0.1-0.3,0.2-0.5c0.4-0.8,1.1-1.5,1.9-2c0.1,0,0.2-0.1,0.2-0.1c0.7-0.4,1.5-0.6,2.3-0.6
		c0.3,0,0.5,0,0.7,0.1c0.1,0,0.2,0,0.2,0c1,0.2,1.9,0.7,2.5,1.4c0.1,0.1,0.2,0.2,0.2,0.3c0.7,0.8,1.1,1.9,1.1,3.1
		c0,1.2-0.4,2.3-1.1,3.1c-0.1,0.1-0.2,0.2-0.2,0.3c-0.7,0.7-1.6,1.2-2.5,1.4c-0.1,0-0.2,0-0.2,0C17.2,17.2,17,17.2,16.7,17.2
		 M14.4,16.4c0.7,0.4,1.5,0.6,2.3,0.6c0.3,0,0.5,0,0.7-0.1c0.1,0,0.2,0,0.2,0c1-0.2,1.9-0.8,2.6-1.5c0.1-0.1,0.2-0.2,0.2-0.3
		c0.6-0.8,0.9-1.7,0.9-2.7c0-1-0.3-2-0.9-2.7c-0.1-0.1-0.1-0.2-0.2-0.3c-0.7-0.8-1.5-1.3-2.6-1.5c-0.1,0-0.2,0-0.2,0
		c-0.2,0-0.5-0.1-0.7-0.1c-0.8,0-1.6,0.2-2.3,0.6c-0.1,0-0.2,0.1-0.2,0.1c-0.8,0.5-1.5,1.3-1.8,2.3c-0.2,0.4-0.3,0.9-0.3,1.4
		c0,0,0,0.1,0,0.1c0,0,0,0,0,0.1c0,0,0,0,0,0c0,0.1,0,0.2,0,0.3c0,0.5,0.1,0.9,0.3,1.3c0.4,0.9,1,1.7,1.8,2.3
		C14.3,16.3,14.4,16.3,14.4,16.4"/>
	<path id="Fill-84" class="st7" d="M15.5,8.8c-1.9,0-3.5,1.6-3.5,3.5c0,1.9,1.6,3.5,3.5,3.5s3.5-1.6,3.5-3.5
		C19,10.4,17.4,8.8,15.5,8.8z M15.5,15.9c-2,0-3.6-1.6-3.6-3.6c0-2,1.6-3.6,3.6-3.6c2,0,3.6,1.6,3.6,3.6
		C19.1,14.3,17.5,15.9,15.5,15.9z"/>
	<path id="Fill-85" class="st16" d="M14.7,11.2c-1.9,0-3.5,1.6-3.5,3.5s1.6,3.5,3.5,3.5s3.5-1.6,3.5-3.5S16.6,11.2,14.7,11.2z
		 M14.7,18.3c-2,0-3.6-1.6-3.6-3.6s1.6-3.6,3.6-3.6c2,0,3.6,1.6,3.6,3.6S16.7,18.3,14.7,18.3z"/>
	<path id="Fill-86" class="st16" d="M12.6,12.4c-1.9,0-3.5,1.6-3.5,3.5s1.6,3.5,3.5,3.5c1.9,0,3.5-1.6,3.5-3.5S14.5,12.4,12.6,12.4z
		 M12.6,19.5c-2,0-3.6-1.6-3.6-3.6c0-2,1.6-3.6,3.6-3.6c2,0,3.6,1.6,3.6,3.6C16.2,17.8,14.6,19.5,12.6,19.5z"/>
	<path id="Fill-87" class="st16" d="M10.2,11.9c-1.9,0-3.5,1.6-3.5,3.5s1.6,3.5,3.5,3.5c1.9,0,3.5-1.6,3.5-3.5S12.1,11.9,10.2,11.9z
		 M10.2,19c-2,0-3.6-1.6-3.6-3.6c0-2,1.6-3.6,3.6-3.6c2,0,3.6,1.6,3.6,3.6C13.9,17.4,12.2,19,10.2,19z"/>
	<path id="Fill-88" class="st16" d="M8.7,10.1c-1.9,0-3.5,1.6-3.5,3.5s1.6,3.5,3.5,3.5s3.5-1.6,3.5-3.5S10.6,10.1,8.7,10.1z
		 M8.7,17.2c-2,0-3.6-1.6-3.6-3.6S6.7,10,8.7,10s3.6,1.6,3.6,3.6S10.7,17.2,8.7,17.2z"/>
	<path id="Fill-89" class="st16" d="M8.7,7.7c-1.9,0-3.5,1.6-3.5,3.5s1.6,3.5,3.5,3.5s3.5-1.6,3.5-3.5S10.6,7.7,8.7,7.7z M8.7,14.8
		c-2,0-3.6-1.6-3.6-3.6c0-2,1.6-3.6,3.6-3.6s3.6,1.6,3.6,3.6C12.3,13.1,10.7,14.8,8.7,14.8z"/>
	<path id="Fill-90" class="st16" d="M10.2,5.8c-1.9,0-3.5,1.6-3.5,3.5c0,1.9,1.6,3.5,3.5,3.5c1.9,0,3.5-1.6,3.5-3.5
		C13.7,7.3,12.1,5.8,10.2,5.8z M10.2,12.9c-2,0-3.6-1.6-3.6-3.6c0-2,1.6-3.6,3.6-3.6c2,0,3.6,1.6,3.6,3.6
		C13.9,11.3,12.2,12.9,10.2,12.9z"/>
	<path id="Fill-91" class="st16" d="M12.6,5.4c-1.9,0-3.5,1.6-3.5,3.5c0,1.9,1.6,3.5,3.5,3.5c1.9,0,3.5-1.6,3.5-3.5
		C16,7,14.5,5.4,12.6,5.4z M12.6,12.5c-2,0-3.6-1.6-3.6-3.6c0-2,1.6-3.6,3.6-3.6c2,0,3.6,1.6,3.6,3.6C16.2,10.9,14.6,12.5,12.6,12.5
		z"/>
	<path id="Fill-92" class="st16" d="M14.7,6.6c-1.9,0-3.5,1.6-3.5,3.5c0,1.9,1.6,3.5,3.5,3.5s3.5-1.6,3.5-3.5
		C18.1,8.2,16.6,6.6,14.7,6.6z M14.7,13.7c-2,0-3.6-1.6-3.6-3.6c0-2,1.6-3.6,3.6-3.6c2,0,3.6,1.6,3.6,3.6
		C18.3,12.1,16.7,13.7,14.7,13.7z"/>
	<path id="Fill-93" class="st16" d="M15.5,8.8c-1.9,0-3.5,1.6-3.5,3.5c0,1.9,1.6,3.5,3.5,3.5s3.5-1.6,3.5-3.5
		C19,10.4,17.4,8.8,15.5,8.8z M15.5,15.9c-2,0-3.6-1.6-3.6-3.6c0-2,1.6-3.6,3.6-3.6c2,0,3.6,1.6,3.6,3.6
		C19.1,14.3,17.5,15.9,15.5,15.9z"/>
</g>
<path d="M13,20.7h-2.1V4.1H13V20.7z"/>
<path d="M19.9,13.3H3.3v-2.1h16.6V13.3z"/>
<path d="M12,22.1c-5.4,0-9.8-4.4-9.8-9.8S6.6,2.5,12,2.5c5.4,0,9.8,4.4,9.8,9.8S17.4,22.1,12,22.1z M12,4.5c-4.3,0-7.8,3.5-7.8,7.8
	c0,4.3,3.5,7.8,7.8,7.8s7.8-3.5,7.8-7.8C19.8,8,16.3,4.5,12,4.5z"/>
</svg>
