<?xml version="1.0" ?><svg data-name="Layer 1" id="Layer_1" viewBox="0 0 512 512" xmlns="http://www.w3.org/2000/svg"><title/><path d="M466.86,292.18c-26.25-33.86-60.88-43.1-78.79-45.71C425.71,200.77,421.16,144,421,141.56a5.61,5.61,0,0,0-6-5.22c-56.73,2.83-83.2,11.81-95.51,18.9C313.18,97,262.58,39.89,260.29,37.33a6,6,0,0,0-8.58,0c-2.29,2.56-52.89,59.63-59.13,117.91-12.31-7.09-38.78-16.07-95.52-18.9a5.64,5.64,0,0,0-6,5.22c-.22,2.47-4.76,59.15,32.83,104.85-17.94,2.62-52.59,12-78.74,45.77a5.73,5.73,0,0,0-.67,5.93c1,2.2,15.66,32.19,58.94,46.76-12.64,7.27-29.58,21.54-41.08,48.95a5.75,5.75,0,0,0,1.22,6.28c.42.43,26.67,26,75.34,26,29.25,0,66.68-9.51,111.36-39v83.62a5.75,5.75,0,0,0,11.5,0V387.12c44.68,29.48,82.11,39,111.36,39,48.66,0,74.92-25.57,75.34-26a5.75,5.75,0,0,0,1.22-6.28c-11.5-27.42-28.44-41.68-41.08-48.95,43.27-14.57,57.93-44.56,58.94-46.76A5.73,5.73,0,0,0,466.86,292.18ZM376.48,242.5c-25.34,28.62-64,44.33-114.73,47V266.63C276.57,262.52,319.09,244.1,320,169c3.7-3.47,22.1-16.78,89.72-20.83C409.79,163.53,407.2,207.83,376.48,242.5ZM256,50.11c13.24,16.22,52.55,68.5,52.55,116.64,0,77.87-46.05,88.4-52.55,89.49-6.5-1.09-52.55-11.62-52.55-89.49C203.45,118.61,242.76,66.33,256,50.11ZM192,169c.87,75.11,43.39,93.53,58.21,97.64v22.91c-50.73-2.71-89.39-18.42-114.74-47-30.71-34.67-33.31-79-33.19-94.34C170.13,152.22,188.42,165.58,192,169ZM56.57,296.31c28.71-34.56,68.15-38.82,77.18-39.34,27.4,26.7,66.49,41.53,116.5,44.1v21.82c-56.4,19.39-97.38,21.08-126.84,15.23a5.82,5.82,0,0,0-1.67-.32C79.87,329,61.79,305,56.57,296.31Zm18,98.23c15.79-34.22,40.44-43.28,46.63-45.06a173.94,173.94,0,0,0,33.83,3.25c25.77,0,57.35-5.18,95.2-17.8v38.39C147.85,444.35,88.13,405.58,74.59,394.54Zm362.8-.06c-13.54,10.73-74.18,49.21-175.64-21.16V334.93c37.86,12.62,69.43,17.8,95.2,17.8a173.84,173.84,0,0,0,33.82-3.25C397,351.26,421.59,360.31,437.39,394.48ZM390.05,337.8a5.75,5.75,0,0,0-1.3.25c-29.47,5.89-70.5,4.23-127-15.16V301.07c50-2.57,89.1-17.4,116.51-44.11,9,.49,48.32,4.61,77.17,39.35C450.2,305,432.08,329,390.05,337.8Z"/></svg>