<?xml version="1.0" encoding="utf-8"?>
<!-- Generator: Adobe Illustrator 25.4.1, SVG Export Plug-In . SVG Version: 6.00 Build 0)  -->
<svg version="1.1" id="Layer_1" xmlns="http://www.w3.org/2000/svg" xmlns:xlink="http://www.w3.org/1999/xlink" x="0px" y="0px"
	 viewBox="0 0 24 24" style="enable-background:new 0 0 24 24;" xml:space="preserve">
<circle cx="12" cy="12" r="3"/>
<path d="M13,4.1V2h-2v2.1C7.4,4.5,4.5,7.4,4.1,11H2v2h2.1c0.5,3.6,3.3,6.5,6.9,6.9V22h2v-2.1c3.6-0.5,6.5-3.3,6.9-6.9H22v-2h-2.1
	C19.5,7.4,16.6,4.5,13,4.1z M12,18c-3.3,0-6-2.7-6-6s2.7-6,6-6s6,2.7,6,6S15.3,18,12,18z"/>
</svg>
