<?xml version="1.0" encoding="utf-8"?>
<!-- Generator: Adobe Illustrator 25.4.1, SVG Export Plug-In . SVG Version: 6.00 Build 0)  -->
<svg version="1.1" id="Layer_1" xmlns="http://www.w3.org/2000/svg" xmlns:xlink="http://www.w3.org/1999/xlink" x="0px" y="0px"
	 viewBox="0 0 24 24" style="enable-background:new 0 0 24 24;" xml:space="preserve">
<path d="M5.1,8.6C5,8.6,5,8.6,4.9,8.5c0-0.1,0-0.2,0.1-0.2C5.9,8.2,7,8,8.4,8c1.7-0.1,3-0.7,4.2-1.3c0.2-0.1,0.3-0.2,0.5-0.2
	c0.1,0,0.2,0,0.2,0.1c0,0.1,0,0.2-0.1,0.2c-0.2,0.1-0.3,0.2-0.5,0.2c-1.2,0.6-2.5,1.3-4.3,1.4C7,8.4,5.9,8.5,5.1,8.6
	C5.1,8.6,5.1,8.6,5.1,8.6z M4.4,17.1c-0.1,0-0.1,0-0.1-0.1l-0.5-1.2c0,0,0-0.1,0-0.1c0,0,0.4-0.8,0-1.8c-0.1-0.2-0.2-0.5-0.4-0.8
	c-0.5-1-1.1-2.2-0.7-3.2c0.3-0.7,0.9-1.1,1.9-1.4c0.1,0,0.2,0,0.2,0.1c0,0.1,0,0.2-0.1,0.2C3.6,9.1,3.1,9.5,2.8,10
	c-0.3,0.8,0.3,2,0.7,2.9c0.2,0.3,0.3,0.6,0.4,0.9c0.4,0.9,0.1,1.7,0,2l0.5,1.2C4.5,17,4.5,17.1,4.4,17.1C4.4,17.1,4.4,17.1,4.4,17.1
	z M5.2,19.1c-0.1,0-0.1,0-0.1-0.1l-0.6-1.4c0-0.1,0-0.2,0.1-0.2c0.1,0,0.2,0,0.2,0.1l0.6,1.3l1.2,0c0-0.1-0.1-0.3-0.3-0.3
	c-0.2-0.1-0.3-0.1-0.5,0c-0.1,0-0.2,0-0.2-0.1c0-0.1,0-0.2,0.1-0.2c0.2-0.1,0.5-0.2,0.8-0.1c0.3,0.1,0.5,0.4,0.5,0.8
	c0,0,0,0.1,0,0.1c0,0-0.1,0-0.1,0L5.2,19.1C5.2,19.1,5.2,19.1,5.2,19.1z M6.1,18.4c-0.1,0-0.1,0-0.2-0.1c-0.5-1.7-0.5-2.4-0.5-2.4
	c0-0.1,0-0.1,0.1-0.1c1.3-0.9,2-2,2-3.1c0-0.7-0.3-1.4-0.9-1.9c-0.1-0.1-0.1-0.2,0-0.2c0.1-0.1,0.2-0.1,0.2,0c0.7,0.5,1,1.3,1,2.1
	C7.8,13.8,7,15,5.7,16c0,0.2,0.1,0.9,0.5,2.2C6.3,18.3,6.2,18.4,6.1,18.4C6.1,18.4,6.1,18.4,6.1,18.4z M7.4,19.1
	c-0.1,0-0.1,0-0.1-0.1l-1-2.3c0-0.1,0-0.2,0.1-0.2c0.1,0,0.2,0,0.2,0.1l0.9,2.2l1.2,0c0-0.1-0.1-0.3-0.3-0.3c-0.2-0.1-0.3-0.1-0.5,0
	c-0.1,0-0.2,0-0.2-0.1c0-0.1,0-0.2,0.1-0.2c0.2-0.1,0.5-0.2,0.8-0.1c0.3,0.1,0.5,0.4,0.5,0.8c0,0,0,0.1,0,0.1c0,0-0.1,0-0.1,0
	L7.4,19.1C7.4,19.1,7.4,19.1,7.4,19.1z M6.2,16.3c-0.1,0-0.1,0-0.1-0.1l-0.2-0.6c0-0.1,0-0.2,0.1-0.2c0.1,0,0.2,0,0.2,0.1l0.2,0.6
	C6.4,16.2,6.4,16.2,6.2,16.3C6.3,16.3,6.3,16.3,6.2,16.3z M8.3,18.4c-0.1,0-0.1,0-0.2-0.1c-0.5-1.7-0.7-2.4-0.7-2.4
	c0-0.1,0-0.1,0.1-0.2c0.6-0.5,1.1-1,1.5-1.5c0-0.1,0.1-0.1,0.2,0c0.1,0,0.1,0.1,0,0.2c-0.4,0.5-0.9,1-1.5,1.5
	c0.1,0.2,0.3,0.9,0.7,2.3C8.5,18.3,8.5,18.4,8.3,18.4C8.4,18.4,8.3,18.4,8.3,18.4z M11.9,15.1C11.9,15.1,11.8,15.1,11.9,15.1
	c-2.4-0.3-4.4-1.2-4.4-1.2c-0.1,0-0.1-0.1-0.1-0.2s0.1-0.1,0.2-0.1c0,0,2,0.9,4.3,1.2c0.1,0,0.2,0.1,0.1,0.2
	C12,15,11.9,15.1,11.9,15.1z M15.3,9.6c-0.1,0-0.2-0.1-0.2-0.2c0-1.8,1.5-2.7,2.7-2.9c0.1,0,0.2,0,0.2,0.1c0,0.1,0,0.2-0.1,0.2
	c-1.1,0.2-2.5,1-2.5,2.6C15.5,9.5,15.4,9.6,15.3,9.6z M20.5,10.8c-0.1,0-0.2-0.1-0.2-0.2c0-0.1,0.1-0.2,0.2-0.2c0.6,0,1-0.2,1.3-0.6
	c0-0.1,0.1-0.1,0.2,0c0.1,0,0.1,0.1,0,0.2C21.8,10.5,21.2,10.8,20.5,10.8C20.6,10.8,20.5,10.8,20.5,10.8z M20.6,9.7
	c-0.1,0-0.2-0.1-0.2-0.2c0-0.1,0.1-0.2,0.2-0.2c0.3,0,1.4-0.1,1.5-1.5c0-0.1,0.1-0.1,0.1-0.1c0.1,0,0.1,0,0.2,0.1c0,0,0.2,0.9,0,1.6
	c0,0.1-0.1,0.1-0.2,0.1C22,9.6,22,9.5,22,9.4c0.1-0.2,0.1-0.4,0.1-0.6C21.7,9.6,20.8,9.6,20.6,9.7C20.6,9.7,20.6,9.7,20.6,9.7z
	 M16,10.8C16,10.8,16,10.8,16,10.8c-0.7,0-1.2-0.2-1.5-0.6c-0.7-0.9-0.4-2.3-0.4-2.3c0-0.1,0.1-0.1,0.2-0.1c0.1,0,0.1,0.1,0.1,0.1
	c0.1,1.5,1.5,1.5,1.5,1.5c0.1,0,0.2,0.1,0.2,0.2c0,0.1-0.1,0.2-0.2,0.2c0,0-1.1,0-1.6-0.9c0,0.4,0.1,0.8,0.4,1.2
	c0.3,0.3,0.7,0.5,1.3,0.5c0.1,0,0.2,0.1,0.2,0.2S16.1,10.8,16,10.8z M19.5,13.7C19.5,13.7,19.5,13.7,19.5,13.7
	c-0.2-0.1-0.2-0.2-0.1-0.2c0.5-0.8,1.2-2.3,1-4.2c0-0.1,0-0.2,0.1-0.2c0.1,0,0.2,0,0.2,0.1c0.3,2-0.5,3.6-1,4.4
	C19.6,13.7,19.6,13.7,19.5,13.7z M17,13.7c-0.1,0-0.1,0-0.1-0.1c-0.5-0.8-1.3-2.4-1-4.4C15.9,9.1,16,9,16,9.1c0.1,0,0.1,0.1,0.1,0.2
	c-0.3,1.9,0.5,3.4,0.9,4.2C17.2,13.5,17.2,13.6,17,13.7C17.1,13.7,17,13.7,17,13.7z M18.3,14.9c-0.9,0-1.4-0.5-1.4-1.2
	c0-0.9,0.9-0.9,1.4-0.9s1.4,0,1.4,0.9C19.7,14.5,19.1,14.9,18.3,14.9z M18.3,13.1c-0.8,0-1.1,0.2-1.1,0.6c0,0.8,0.8,0.9,1.1,0.9
	s1.1-0.1,1.1-0.9C19.4,13.3,19.1,13.1,18.3,13.1z M20.3,12c0,0-0.1,0-0.1-0.1c-0.1-0.1,0-0.2,0-0.2c0.7-0.5,0.8-1.2,0.9-1.2
	c0-0.1,0.1-0.1,0.2-0.1c0.1,0,0.1,0.1,0.1,0.2C21.4,10.6,21.2,11.4,20.3,12C20.4,12,20.4,12,20.3,12z M16.2,12
	C16.2,12,16.1,12,16.2,12c-0.9-0.6-1.1-1.4-1.1-1.4c0-0.1,0-0.2,0.1-0.2c0.1,0,0.2,0,0.2,0.1l0,0c0,0,0.2,0.7,0.9,1.2
	c0.1,0.1,0.1,0.2,0,0.2C16.3,12,16.3,12,16.2,12z M19.5,11c-0.1,0-0.1,0-0.1-0.1c-0.1-0.1-0.1-0.2,0-0.4c0-0.1,0.1-0.2,0.3-0.3
	c0.2-0.1,0.3,0,0.5,0.1c0.1,0.1,0.1,0.2,0,0.2c-0.1,0.1-0.2,0.1-0.2,0c0,0-0.1,0-0.2,0c-0.1,0-0.1,0.1-0.1,0.2
	C19.7,10.8,19.6,10.9,19.5,11C19.5,10.9,19.5,11,19.5,11z M17.1,11C17.1,11,17.1,10.9,17.1,11c-0.1,0-0.2-0.1-0.1-0.2
	c0-0.1,0-0.2-0.1-0.2c-0.1,0-0.1,0-0.2,0c-0.1,0.1-0.2,0-0.2,0c-0.1-0.1,0-0.2,0-0.2c0.1-0.1,0.3-0.1,0.5-0.1
	c0.2,0.1,0.4,0.4,0.3,0.6C17.2,10.9,17.2,11,17.1,11z M18,16.9C18,16.9,18,16.9,18,16.9c-0.1,0-0.5-0.2-0.8-0.9
	c-0.5-0.9,0.1-1.5,0.1-1.6c0.1-0.1,0.2-0.1,0.2,0c0.1,0.1,0.1,0.2,0,0.2c0,0-0.4,0.5,0,1.2c0.1,0.3,0.3,0.4,0.4,0.6
	c0-0.1,0.1-0.3,0.1-0.4c0.2-0.6,0.4-0.7,0.4-0.8c0,0,0.1,0,0.1,0c0,0,0.1,0,0.1,0.1l0.2,0.3c0.2-0.5,0-0.9-0.1-0.9
	c0-0.1,0-0.2,0.1-0.2c0.1,0,0.2,0,0.2,0.1c0,0,0.4,0.7-0.1,1.4c0,0-0.1,0.1-0.1,0.1c-0.1,0-0.1,0-0.1-0.1l-0.2-0.3
	c-0.1,0.1-0.1,0.3-0.2,0.5c-0.1,0.2-0.2,0.6-0.2,0.6C18.2,16.8,18.1,16.9,18,16.9C18.1,16.9,18,16.9,18,16.9z M18.5,14
	C18.5,14,18.5,14,18.5,14c-0.1-0.1-0.2-0.1-0.1-0.2c0.1-0.2,0.4-0.3,0.6-0.2c0.1,0,0.1,0.1,0.1,0.2c0,0.1-0.1,0.1-0.2,0.1
	c0,0-0.1,0-0.1,0c0,0-0.1,0-0.1,0.1C18.6,13.9,18.6,14,18.5,14z M18,14c-0.1,0-0.1,0-0.1-0.1c0-0.1-0.1-0.1-0.2-0.1
	c-0.1,0-0.2,0-0.2-0.1c0-0.1,0-0.2,0.1-0.2c0.2-0.1,0.5,0,0.6,0.2C18.1,13.8,18.1,13.9,18,14C18,14,18,14,18,14z M15,18.4
	c-0.1,0-0.2-0.1-0.2-0.2c-0.1-3.2,2.1-4.4,2.1-4.5c0.1,0,0.2,0,0.2,0.1c0,0.1,0,0.2-0.1,0.2c-0.1,0-2.1,1.2-2,4.2
	C15.1,18.4,15.1,18.4,15,18.4C15,18.4,15,18.4,15,18.4z M16.2,18.4c-0.1,0-0.1,0-0.2-0.1c-0.2-0.9-0.3-1.8-0.1-2.8
	c0-0.1,0.1-0.1,0.2-0.1c0.1,0,0.1,0.1,0.1,0.2c-0.2,0.9-0.2,1.8,0.1,2.6C16.4,18.3,16.3,18.4,16.2,18.4
	C16.2,18.4,16.2,18.4,16.2,18.4z M12.6,9.9C12.6,9.9,12.5,9.9,12.6,9.9c-0.1-0.1-0.2-0.1-0.2-0.2c0.3-1.1,1.1-1.6,1.1-1.6
	c0.1,0,0.2,0,0.2,0.1c0,0.1,0,0.2-0.1,0.2l0,0c0,0-0.5,0.3-0.8,0.9c0.1-0.1,0.2-0.1,0.4-0.1c0.1,0,0.2,0,0.2,0.1
	c0,0.1,0,0.2-0.1,0.2c-0.4,0.1-0.7,0.4-0.7,0.4C12.7,9.8,12.6,9.9,12.6,9.9z M11.8,13.5C11.8,13.5,11.8,13.5,11.8,13.5
	c-0.1,0-0.2-0.1-0.2-0.2c0.1-0.6,0.5-1,0.6-1.2c-0.1-0.6,0.2-1,0.4-1.1C12.5,10.4,13,9.9,13,9.9c0.1-0.1,0.2-0.1,0.2,0
	c0.1,0.1,0.1,0.2,0,0.2c0,0-0.4,0.5-0.3,1c0,0.1,0,0.1-0.1,0.2c0,0-0.5,0.4-0.3,0.9c0,0.1,0,0.1,0,0.2c0,0-0.4,0.4-0.6,1.1
	C11.9,13.5,11.9,13.5,11.8,13.5z M13.9,19.1c-0.1,0-0.2-0.1-0.2-0.1c-0.1-1.1-0.6-1.6-0.8-1.9c-0.1-0.1-0.1-0.1-0.1-0.2
	c-0.8-1-1.2-1.9-1.2-2.8c0-0.1,0.1-0.2,0.2-0.2c0.1,0,0.2,0.1,0.2,0.2c0,0.8,0.4,1.7,1.2,2.6c0,0,0.1,0.1,0.1,0.1
	c0.3,0.3,0.9,0.9,0.9,2.1C14.1,19,14,19.1,13.9,19.1C14,19.1,14,19.1,13.9,19.1z M1.8,13.3c-0.1,0-0.1-0.1-0.2-0.1
	c-0.1-0.3-0.1-0.6-0.1-0.9c0-0.1,0.1-0.2,0.2-0.1c0.1,0,0.2,0.1,0.1,0.2c0,0.3,0,0.5,0.1,0.8C1.9,13.2,1.9,13.3,1.8,13.3
	C1.8,13.3,1.8,13.3,1.8,13.3z M1.8,12C1.8,12,1.8,12,1.8,12c-0.1,0-0.2-0.1-0.2-0.2c0.2-1,0.8-1.5,0.8-1.6c0.1-0.1,0.2-0.1,0.2,0
	c0.1,0.1,0.1,0.2,0,0.2c0,0-0.5,0.5-0.7,1.4C1.9,12,1.9,12,1.8,12z M2.3,13.4c-0.1,0-0.1-0.1-0.2-0.1c-0.1-0.9,0.5-1.6,0.6-1.7
	c0.1-0.1,0.2-0.1,0.2,0c0.1,0.1,0.1,0.2,0,0.2l0,0c0,0-0.6,0.6-0.5,1.4C2.5,13.3,2.4,13.4,2.3,13.4C2.3,13.4,2.3,13.4,2.3,13.4z
	 M2.1,15.7C2.1,15.7,2.1,15.7,2.1,15.7C2,15.7,1.9,15.6,2,15.5c0,0,0.1-0.3-0.3-0.9c-0.3-0.5-0.4-1.1-0.2-1.4C1.6,13.1,1.8,13,2,13
	c0.3,0,0.5,0.3,0.7,0.6c0.2,0.6,0.1,1.4-0.5,2C2.2,15.7,2.2,15.7,2.1,15.7z M1.9,13.3c-0.1,0-0.1,0-0.1,0.1
	c-0.1,0.2-0.1,0.7,0.2,1.1c0.1,0.2,0.2,0.4,0.3,0.6c0.3-0.5,0.3-0.9,0.2-1.3C2.3,13.5,2.2,13.3,1.9,13.3C2,13.3,2,13.3,1.9,13.3z
	 M15.4,19.1h-1.5c-0.1,0-0.2-0.1-0.2-0.2s0.1-0.2,0.2-0.2h1.3c0-0.1-0.1-0.3-0.3-0.3c-0.2-0.1-0.3-0.1-0.5,0c-0.1,0-0.2,0-0.2-0.1
	c0-0.1,0-0.2,0.1-0.2c0.2-0.1,0.5-0.2,0.8-0.1c0.3,0.1,0.5,0.4,0.5,0.8c0,0,0,0.1,0,0.1C15.5,19.1,15.5,19.1,15.4,19.1z M16.7,19.1
	h-1.5c-0.1,0-0.2-0.1-0.2-0.2s0.1-0.2,0.2-0.2h1.3c0-0.1-0.1-0.3-0.3-0.3c-0.2-0.1-0.3-0.1-0.4,0c-0.1,0-0.2,0-0.2-0.1
	c0-0.1,0-0.2,0.1-0.2c0.2-0.1,0.5-0.1,0.7,0c0.3,0.1,0.5,0.4,0.5,0.8c0,0,0,0.1,0,0.1C16.8,19.1,16.8,19.1,16.7,19.1z M13.1,7.5
	c0,0-0.1,0-0.1-0.1c0-0.1,0-0.1,0-0.2c0.2-0.4,0.7-0.7,1.1-0.8c-0.3-0.1-0.7-0.2-0.7-0.2c-0.1,0-0.1-0.1-0.1-0.1
	c0-0.1,0-0.1,0.1-0.2c1.8-0.8,3.5-0.3,4.2,0.3c0.1,0.1,0.1,0.2,0,0.2c-0.1,0.1-0.2,0.1-0.2,0c-0.4-0.3-1.8-1-3.5-0.4
	c0.2,0.1,0.5,0.2,0.7,0.3c0.1,0,0.1,0.1,0.1,0.2c0,0.1,0,0.1-0.1,0.1c0,0-0.5,0.2-0.9,0.5L14,7c0.1,0,0.2,0,0.2,0.1
	c0,0.1,0,0.2-0.1,0.2L13.1,7.5C13.1,7.5,13.1,7.5,13.1,7.5z M21.1,9.6C21.1,9.6,21.1,9.6,21.1,9.6C21,9.6,21,9.5,21,9.4
	c0-0.1,0-2-2.2-2.5C18.8,7,18.9,7,19,7.1c0,0.1,0,0.1,0,0.2c0,0.1-0.1,0.1-0.2,0.1c0,0-0.4-0.1-0.7,0l0.2,0.1c0.1,0,0.1,0.1,0.1,0.2
	c0,0.1-0.1,0.1-0.2,0.1l-0.7-0.3c-0.1,0-0.1-0.1-0.1-0.1c0-0.1,0-0.1,0.1-0.2C17.8,7,18.2,7,18.5,7c-0.2-0.2-0.2-0.3-0.2-0.3
	c0,0-0.1-0.1,0-0.2c0-0.1,0.1-0.1,0.2-0.1c2.9,0.3,2.9,2.9,2.9,2.9C21.3,9.5,21.2,9.6,21.1,9.6z"/>
</svg>
