<?xml version="1.0" encoding="utf-8"?>
<!-- Generator: Adobe Illustrator 26.0.1, SVG Export Plug-In . SVG Version: 6.00 Build 0)  -->
<svg version="1.1" id="Layer_1" xmlns="http://www.w3.org/2000/svg" xmlns:xlink="http://www.w3.org/1999/xlink" x="0px" y="0px"
	 viewBox="0 0 24 24" style="enable-background:new 0 0 24 24;" xml:space="preserve">
<path d="M17.7,10.6c-1.9,0-3.5,1.6-3.5,3.5s1.6,3.5,3.5,3.5s3.5-1.6,3.5-3.5S19.7,10.6,17.7,10.6z M17.7,16.3c-1.2,0-2.1-1-2.1-2.1
	s1-2.1,2.1-2.1s2.1,1,2.1,2.1S18.8,16.3,17.7,16.3z M24,24v-0.7c0-2.8-2.2-5-5-5h-2.8c-2.8,0-5,2.2-5,5V24h1.4v-0.7
	c0-1.9,1.6-3.5,3.5-3.5H19c1.9,0,3.5,1.6,3.5,3.5V24H24z"/>
<path d="M6.5,0C4.6,0,3,1.6,3,3.5s1.5,3.6,3.5,3.6S10,5.6,10,3.6S8.4,0,6.5,0z M6.5,5.8c-1.2,0-2.1-1-2.1-2.1s1-2.1,2.1-2.1
	s2.1,1,2.1,2.1S7.7,5.8,6.5,5.8z M12.9,13.6v-0.7c0-2.8-2.2-5-5-5H5c-2.8,0-5,2.2-5,5v0.7h1.5v-0.7c0-1.9,1.6-3.5,3.5-3.5h2.9
	c1.9,0,3.5,1.6,3.5,3.5v0.7H12.9z"/>
</svg>
