<?xml version="1.0" encoding="UTF-8"?>
<svg width="3155px" height="3155px" viewBox="0 0 3155 3155" version="1.1" xmlns="http://www.w3.org/2000/svg" xmlns:xlink="http://www.w3.org/1999/xlink">
    <!-- Generator: Sketch 52.6 (67491) - http://www.bohemiancoding.com/sketch -->
    <title>icon</title>
    <desc>Created with Sketch.</desc>
    <defs>
        <radialGradient cx="50%" cy="38.2022359%" fx="50%" fy="38.2022359%" r="77.365355%" gradientTransform="translate(0.500000,0.382022),scale(0.868218,1.000000),rotate(90.000000),translate(-0.500000,-0.382022)" id="radialGradient-1">
            <stop stop-color="#FAD961" offset="0%"></stop>
            <stop stop-color="#F68F1C" offset="100%"></stop>
        </radialGradient>
    </defs>
    <g id="icon" stroke="none" stroke-width="1" fill="none" fill-rule="evenodd">
        <g id="protocol.love.icon" transform="translate(102.000000, 100.000000)">
            <g id="iconfinder_heart-love-romance-coin_1842647" transform="translate(0.111262, 0.894189)">
                <g id="Group">
                    <path d="M1485.80394,425.399941 C1736.24583,425.399941 1966.31205,513.106993 2148.00213,658.768606 L2359.51764,419.96351 C2121.4473,224.566309 1817.10794,107.092175 1485.80394,107.092175 C1154.49993,107.092175 850.159243,224.566309 612.088907,419.96351 L823.604417,658.768606 C1005.29582,513.106993 1235.36071,425.399941 1485.80394,425.399941 Z" id="Path" fill="#ED5175"></path>
                    <path d="M2546.82982,1486.42583 C2546.82982,1784.85925 2422.53329,2054.42879 2223.54187,2247.39624 L2434.85711,2485.93874 C2699.57909,2234.45703 2865.13759,1879.52663 2865.13759,1486.4245 C2865.13759,1095.22956 2701.18124,741.841627 2438.7073,490.580087 L2227.49286,729.045655 C2424.24552,921.758461 2546.82982,1189.90623 2546.82982,1486.42583 Z" id="Path" fill="#ED5175"></path>
                    <path d="M2143.71558,2317.29132 C1962.67937,2460.94495 1734.32935,2547.45171 1485.80394,2547.45171 C1237.27852,2547.45171 1008.9285,2460.94495 827.892288,2317.29132 L616.27598,2556.17732 C853.730921,2749.55327 1156.4058,2865.75815 1485.80394,2865.75815 C1815.20207,2865.75815 2117.87695,2749.55327 2355.33189,2556.17732 L2143.71558,2317.29132 Z" id="Path" fill="#ED5175"></path>
                    <path d="M536.750764,2485.93874 L748.066006,2247.39624 C549.07458,2054.42747 424.77805,1784.85793 424.77805,1486.42583 C424.77805,1189.90623 547.362349,921.758461 744.11501,729.045655 L532.900566,490.580087 C270.425309,741.841627 106.470284,1095.22956 106.470284,1486.4245 C106.470284,1879.52796 272.028784,2234.45703 536.750764,2485.93874 Z" id="Path" fill="#ED5175"></path>
                    <path d="M2971.24018,1486.42583 C2971.24018,1063.67996 2793.44142,681.924169 2509.04934,411.1623 L2510.43531,409.598613 L2431.01354,339.243313 L2429.9419,340.454209 C2173.09804,128.471847 1844.06198,0.989586675 1485.80394,0.989586675 C1127.54589,0.989586675 798.511155,128.473173 541.665966,340.454209 L540.59433,339.243313 L461.172564,409.598613 L462.558529,411.1623 C178.165129,681.922843 0.367695277,1063.67996 0.367695277,1486.42583 C0.367695277,1921.28463 188.20376,2313.08303 486.985997,2584.98285 C489.915755,2592.92861 494.102828,2600.45659 500.88411,2606.46067 C507.90147,2612.6491 516.202671,2615.87329 524.745256,2617.74866 C784.014889,2838.33063 1119.51658,2971.86207 1485.80394,2971.86207 C1852.09129,2971.86207 2187.59431,2838.33063 2446.86261,2617.74866 C2455.40387,2615.87329 2463.7064,2612.6491 2470.72376,2606.46067 C2477.50372,2600.45791 2481.69079,2592.92861 2484.62187,2584.98285 C2783.40411,2313.0817 2971.24018,1921.28463 2971.24018,1486.42583 Z M2865.13759,1486.42583 C2865.13759,1879.52796 2699.57909,2234.45703 2434.85711,2485.94006 L2223.54187,2247.39624 C2422.53329,2054.42747 2546.82982,1784.85793 2546.82982,1486.42583 C2546.82982,1189.90623 2424.24552,921.758461 2227.49286,729.045655 L2438.7073,490.580087 C2701.18124,741.841627 2865.13759,1095.23089 2865.13759,1486.42583 Z M530.880638,1486.42583 C530.880638,959.902341 959.253924,531.50253 1485.80394,531.50253 C2012.35395,531.50253 2440.72723,959.902341 2440.72723,1486.42583 C2440.72723,2012.94931 2012.35395,2441.34912 1485.80394,2441.34912 C959.253924,2441.34912 530.880638,2012.94931 530.880638,1486.42583 Z M1485.80394,107.092175 C1817.10927,107.092175 2121.44863,224.566309 2359.51764,419.96351 L2148.00213,658.768606 C1966.31205,513.106993 1736.24583,425.399941 1485.80394,425.399941 C1235.36204,425.399941 1005.29582,513.106993 823.604417,658.768606 L612.088907,419.96351 C850.159243,224.566309 1154.4986,107.092175 1485.80394,107.092175 Z M106.470284,1486.42583 C106.470284,1095.23089 270.426635,741.842954 532.900566,490.581414 L744.11501,729.046982 C547.361023,921.759787 424.77805,1189.90755 424.77805,1486.42715 C424.77805,1784.86058 549.07458,2054.43012 748.066006,2247.39757 L536.750764,2485.94006 C272.028784,2234.45703 106.470284,1879.52796 106.470284,1486.42583 Z M616.27598,2556.17732 L827.892288,2317.29132 C1008.9285,2460.94495 1237.27852,2547.45171 1485.80394,2547.45171 C1734.32935,2547.45171 1962.67937,2460.94495 2143.71558,2317.29132 L2355.33189,2556.17732 C2117.87695,2749.55327 1815.20207,2865.75815 1485.80394,2865.75815 C1156.4058,2865.75815 853.730921,2749.5546 616.27598,2556.17732 Z" id="Shape" fill="#643458" fill-rule="nonzero"></path>
                    <g id="holo-heart" transform="translate(703.648607, 896.503038)">
                        <path d="M1475.75301,476.310675 C1475.75301,218.479102 1355.69584,98.3910484 1097.89679,98.3910484 C1000.82912,98.3910484 908.555738,135.160262 838.096449,201.841346 C813.013008,225.591686 773.766176,225.591686 748.681109,201.841346 C678.223446,135.160262 585.950066,98.3910484 488.882398,98.3910484 C231.08334,98.3910484 111.026175,218.479102 111.026175,476.310675 C111.026175,750.780005 670.855622,1222.94178 792.944954,1283.27112 C915.382193,1221.22663 1475.75301,745.826395 1475.75301,476.310675 Z" id="Path" fill="url(#radialGradient-1)"></path>
                        <path d="M787.624237,1393.00755 L787.592972,1392.64176 C869.021491,1381.95554 1062.53186,1211.64972 1122.34407,1157.42448 C1286.94098,1008.18472 1563.10074,722.956672 1563.10074,489.144739 C1563.10074,174.179415 1389.64971,0.697119974 1074.71409,0.697119974 C968.126987,0.697119974 866.060739,34.9536868 781.913767,98.1549735 C697.768358,34.9536868 595.700547,0.697119974 489.113445,0.697119974 C174.177822,0.697119974 0.726791554,174.179415 0.726791554,489.144739 C0.726791554,722.040621 272.856556,1005.07077 435.041407,1153.08965 C495.616471,1208.29034 691.965658,1382.13843 775.837502,1392.64176 L775.806237,1392.94659 C777.180314,1393.06852 778.584092,1393.12949 780.0504,1393.12949 C781.119647,1393.12949 782.309263,1393.12949 783.408212,1393.19045 C784.877646,1393.19045 786.281424,1393.12949 787.624237,1393.00755 Z M125.786553,489.144739 C125.786553,241.226242 241.227775,125.755318 489.115008,125.755318 C582.450631,125.755318 671.176296,161.110834 738.925011,225.228172 C763.045611,248.065362 800.783486,248.065362 824.902522,225.228172 C892.652801,161.110834 981.378466,125.755318 1074.71409,125.755318 C1322.60132,125.755318 1438.04254,241.226242 1438.04254,489.144739 C1438.04254,748.298153 899.218356,1205.42026 781.487006,1265.07927 C664.093312,1207.06946 125.786553,753.061307 125.786553,489.144739 Z" id="Shape" fill="#643458" fill-rule="nonzero"></path>
                    </g>
                </g>
            </g>
        </g>
    </g>
</svg>