<?xml version="1.0" encoding="utf-8"?>
<!-- Generator: Adobe Illustrator 25.4.1, SVG Export Plug-In . SVG Version: 6.00 Build 0)  -->
<svg version="1.1" id="Layer_1" xmlns="http://www.w3.org/2000/svg" xmlns:xlink="http://www.w3.org/1999/xlink" x="0px" y="0px"
	 viewBox="0 0 24 24" style="enable-background:new 0 0 24 24;" xml:space="preserve">
<path d="M22.3,16.7c-0.8-0.1-1.5-0.4-2.1-0.8c-0.5-0.4-1.3-0.4-1.8,0C17,17,14.4,17,13,15.8c-0.5-0.4-1.2-0.3-1.7,0.1
	C9.9,17,7.4,17,6,15.8c-0.5-0.4-1.2-0.3-1.7,0.1c-0.6,0.4-1.3,0.7-2.1,0.8c-0.3,0-0.5,0.3-0.5,0.6v1.2c0,0.3,0.3,0.6,0.6,0.6
	c1.1-0.1,2.1-0.4,2.9-1c2.1,1.3,5,1.3,7.1,0c2.1,1.3,5,1.3,7.1,0c0.9,0.5,1.9,0.9,2.9,0.9c0.3,0,0.6-0.3,0.6-0.6v-1.2
	C22.8,17,22.6,16.7,22.3,16.7z M22.3,11.4c-0.8-0.1-1.5-0.4-2.1-0.8c-0.5-0.4-1.3-0.4-1.8,0c-1.4,1.1-3.9,1.1-5.4-0.1
	c-0.5-0.4-1.2-0.3-1.7,0.1c-1.4,1.1-3.9,1.1-5.3-0.1c-0.5-0.4-1.2-0.3-1.7,0.1c-0.6,0.4-1.3,0.7-2.1,0.8c-0.3,0-0.5,0.3-0.5,0.6v1.2
	c0,0.3,0.3,0.6,0.6,0.6c1.1-0.1,2.1-0.4,2.9-1c2.1,1.3,5,1.3,7.1,0c2.1,1.3,5,1.3,7.1,0c0.9,0.5,1.9,0.9,2.9,0.9
	c0.3,0,0.6-0.3,0.6-0.6V12C22.8,11.7,22.6,11.4,22.3,11.4L22.3,11.4z M22.3,6.1c-0.8-0.1-1.5-0.4-2.1-0.8c-0.5-0.4-1.3-0.4-1.8,0
	C17,6.4,14.4,6.4,13,5.2c-0.5-0.4-1.2-0.3-1.7,0.1C9.9,6.4,7.4,6.4,6,5.2C5.5,4.8,4.7,4.9,4.2,5.3C3.7,5.7,2.9,6,2.1,6.1
	c-0.3,0-0.5,0.3-0.5,0.6v1.2c0,0.3,0.3,0.6,0.6,0.6c1.1-0.1,2.1-0.4,2.9-1c2.1,1.3,5,1.3,7.1,0c2.1,1.3,5,1.3,7.1,0
	c0.9,0.5,1.9,0.9,2.9,0.9c0.3,0,0.6-0.3,0.6-0.6V6.7C22.8,6.4,22.6,6.1,22.3,6.1L22.3,6.1z"/>
</svg>
