<?xml version="1.0" encoding="utf-8"?>
<!-- Generator: Adobe Illustrator 25.4.1, SVG Export Plug-In . SVG Version: 6.00 Build 0)  -->
<svg version="1.1" id="Layer_1" xmlns="http://www.w3.org/2000/svg" xmlns:xlink="http://www.w3.org/1999/xlink" x="0px" y="0px"
	 viewBox="0 0 24 24" style="enable-background:new 0 0 24 24;" xml:space="preserve">
<style type="text/css">
	.st0{clip-path:url(#SVGID_00000181056886050336537650000013386849804568101009_);}
	.st1{opacity:0.2;fill:none;stroke:#FFFFFF;stroke-width:4.327568e-02;stroke-miterlimit:10;enable-background:new    ;}
	.st2{opacity:0.27;fill:none;stroke:#FFFFFF;stroke-width:4.327568e-02;stroke-miterlimit:10;enable-background:new    ;}
	.st3{opacity:0.33;fill:none;stroke:#FFFFFF;stroke-width:4.327568e-02;stroke-miterlimit:10;enable-background:new    ;}
	.st4{opacity:0.4;fill:none;stroke:#FFFFFF;stroke-width:4.327568e-02;stroke-miterlimit:10;enable-background:new    ;}
	.st5{opacity:0.47;fill:none;stroke:#FFFFFF;stroke-width:4.327568e-02;stroke-miterlimit:10;enable-background:new    ;}
	.st6{opacity:0.53;fill:none;stroke:#FFFFFF;stroke-width:4.327568e-02;stroke-miterlimit:10;enable-background:new    ;}
	.st7{opacity:0.6;fill:none;stroke:#FFFFFF;stroke-width:4.327568e-02;stroke-miterlimit:10;enable-background:new    ;}
	.st8{opacity:0.67;fill:none;stroke:#FFFFFF;stroke-width:4.327568e-02;stroke-miterlimit:10;enable-background:new    ;}
	.st9{opacity:0.73;fill:none;stroke:#FFFFFF;stroke-width:4.327568e-02;stroke-miterlimit:10;enable-background:new    ;}
	.st10{opacity:0.8;fill:none;stroke:#FFFFFF;stroke-width:4.327568e-02;stroke-miterlimit:10;enable-background:new    ;}
	.st11{opacity:0.87;fill:none;stroke:#FFFFFF;stroke-width:4.327568e-02;stroke-miterlimit:10;enable-background:new    ;}
	.st12{opacity:0.93;fill:none;stroke:#FFFFFF;stroke-width:4.327568e-02;stroke-miterlimit:10;enable-background:new    ;}
	.st13{fill:none;stroke:#FFFFFF;stroke-width:4.327568e-02;stroke-miterlimit:10;}
	.st14{opacity:0.4;fill:none;stroke:#FFFFFF;stroke-width:4.342472e-02;stroke-miterlimit:10.0344;enable-background:new    ;}
	.st15{opacity:0.67;fill:none;stroke:#FFFFFF;stroke-width:4.342472e-02;stroke-miterlimit:10.0344;enable-background:new    ;}
	.st16{clip-path:url(#SVGID_00000108270080515557938690000013976101929245870732_);}
	.st17{opacity:0.88;fill:none;stroke:#FFFFFF;stroke-width:4.327568e-02;stroke-miterlimit:10;enable-background:new    ;}
	.st18{opacity:0.75;fill:none;stroke:#FFFFFF;stroke-width:4.327568e-02;stroke-miterlimit:10;enable-background:new    ;}
	.st19{opacity:0.63;fill:none;stroke:#FFFFFF;stroke-width:4.327568e-02;stroke-miterlimit:10;enable-background:new    ;}
	.st20{opacity:0.5;fill:none;stroke:#FFFFFF;stroke-width:4.327568e-02;stroke-miterlimit:10;enable-background:new    ;}
	.st21{opacity:0.38;fill:none;stroke:#FFFFFF;stroke-width:4.327568e-02;stroke-miterlimit:10;enable-background:new    ;}
	.st22{opacity:0.25;fill:none;stroke:#FFFFFF;stroke-width:4.327568e-02;stroke-miterlimit:10;enable-background:new    ;}
	.st23{opacity:0.13;fill:none;stroke:#FFFFFF;stroke-width:4.327568e-02;stroke-miterlimit:10;enable-background:new    ;}
	.st24{fill:none;stroke:#FFFFFF;stroke-width:4.327568e-02;stroke-miterlimit:10;stroke-opacity:0;}
	.st25{opacity:0.88;fill:none;stroke:#FFFFFF;stroke-width:4.342472e-02;stroke-miterlimit:10.0344;enable-background:new    ;}
	.st26{opacity:0.75;fill:none;stroke:#FFFFFF;stroke-width:4.342472e-02;stroke-miterlimit:10.0344;enable-background:new    ;}
	.st27{clip-path:url(#SVGID_00000068654991610933880400000017486046054205882765_);}
	.st28{clip-path:url(#SVGID_00000103243977065060391810000015131266586202252455_);}
	.st29{fill:#FFFFFF;}
	.st30{opacity:0.75;fill:#BFBFBF;enable-background:new    ;}
	.st31{opacity:0.5;fill:#808080;enable-background:new    ;}
	.st32{opacity:0.25;fill:#404040;enable-background:new    ;}
	.st33{fill-opacity:0;}
	.st34{clip-path:url(#SVGID_00000018196149072379611780000011478386948077369754_);}
	.st35{clip-path:url(#SVGID_00000098907275513173295860000010113826127098321070_);}
	.st36{clip-path:url(#SVGID_00000129164355213241991760000002219837096139343270_);}
	.st37{clip-path:url(#SVGID_00000108280536003250364490000017716396028946807726_);}
	.st38{clip-path:url(#SVGID_00000168090885014331468810000010048477452648834436_);}
	.st39{clip-path:url(#SVGID_00000036228514471791213820000015204658012452202932_);}
	.st40{clip-path:url(#SVGID_00000051343570429558249500000016218170774372112025_);}
	.st41{clip-path:url(#SVGID_00000071520959606609636140000000253936621260789380_);}
	.st42{clip-path:url(#SVGID_00000070816698541467956610000012054124588655091886_);}
	.st43{clip-path:url(#SVGID_00000129888809388386939490000011560385155145788343_);}
	.st44{clip-path:url(#SVGID_00000173883721585821935080000010318779106162529196_);}
	.st45{opacity:0.17;fill:#2B2B2B;enable-background:new    ;}
	.st46{opacity:0.33;fill:#555555;enable-background:new    ;}
	.st47{opacity:0.67;fill:#AAAAAA;enable-background:new    ;}
	.st48{opacity:0.83;fill:#D4D4D4;enable-background:new    ;}
</style>
<g>
	<g id="_ÎÓÈ_2">
		<g id="_ÌÂ_ÌËÂ_Í_Û_Ë">
			<g>
				<defs>
					<path id="SVGID_1_" d="M19.4,11.9c1.2-2.1,0.5-4.7-1.6-5.9c-0.7-0.4-1.4-0.6-2.2-0.6c-1.2-2.1-3.8-2.8-5.9-1.6
						C9.1,4.3,8.5,4.8,8.1,5.5c-2.4,0-4.3,1.9-4.3,4.3c0,0.8,0.2,1.5,0.6,2.2C3.2,14,3.9,16.7,6,17.9c0.7,0.4,1.4,0.6,2.2,0.6
						c1.2,2.1,3.8,2.8,5.9,1.6c0.7-0.4,1.2-0.9,1.6-1.6c2.4,0,4.3-1.9,4.3-4.3C20,13.4,19.8,12.6,19.4,11.9z M23.8,11.9
						c0,6.6-5.3,11.9-11.9,11.9S0,18.5,0,11.9S5.3,0,11.9,0S23.8,5.4,23.8,11.9z"/>
				</defs>
				<clipPath id="SVGID_00000136408809827925959040000016287819902136662701_">
					<use xlink:href="#SVGID_1_"  style="overflow:visible;"/>
				</clipPath>
				<g style="clip-path:url(#SVGID_00000136408809827925959040000016287819902136662701_);">
					<path class="st1" d="M4.4,7.6c2.4,0,4.3,1.9,4.3,4.3s-1.9,4.3-4.3,4.3s-4.3-1.9-4.3-4.3c0,0,0,0,0,0C0.1,9.6,2,7.6,4.4,7.6z"/>
					<path class="st2" d="M8.7,11.9c0,2.3-1.8,4.1-4,4.1s-4-1.9-4-4.1s1.8-4.1,4-4.1S8.7,9.7,8.7,11.9z"/>
					<path class="st3" d="M8.7,11.9c0,2.2-1.7,4-3.7,4s-3.7-1.8-3.7-4S3,8,5,8S8.7,9.8,8.7,11.9z"/>
					<path class="st4" d="M8.7,11.9c0,2.1-1.6,3.8-3.4,3.8S1.9,14,1.9,11.9s1.6-3.8,3.4-3.8S8.7,9.9,8.7,11.9z"/>
					<path class="st5" d="M8.7,11.9c0,2-1.5,3.6-3.1,3.6s-3.1-1.6-3.1-3.6s1.5-3.6,3.1-3.6S8.7,10,8.7,11.9z"/>
					<path class="st6" d="M8.7,11.9c0,1.9-1.4,3.4-2.8,3.4s-2.8-1.5-2.8-3.4S4.6,8.5,6,8.5S8.7,10.1,8.7,11.9z"/>
					<path class="st7" d="M8.7,11.9c0,1.8-1.3,3.2-2.5,3.2s-2.5-1.5-2.5-3.2s1.3-3.2,2.5-3.2S8.7,10.2,8.7,11.9z"/>
					<path class="st8" d="M8.7,11.9c0,1.7-1.1,3.1-2.1,3.1s-2.1-1.4-2.1-3.1s1.1-3.1,2.1-3.1S8.7,10.3,8.7,11.9z"/>
					<path class="st9" d="M8.7,11.9c0,1.6-1,2.9-1.8,2.9s-1.8-1.3-1.8-2.9s1-2.9,1.8-2.9S8.7,10.4,8.7,11.9z"/>
					<path class="st10" d="M8.7,11.9c0,1.5-0.9,2.7-1.5,2.7s-1.5-1.2-1.5-2.7s0.9-2.7,1.5-2.7S8.7,10.5,8.7,11.9z"/>
					<path class="st11" d="M8.7,11.9c0,1.4-0.8,2.5-1.2,2.5s-1.2-1.1-1.2-2.5s0.8-2.5,1.2-2.5C7.9,9.4,8.7,10.5,8.7,11.9z"/>
					<path class="st12" d="M8.7,11.9c0,1.3-0.7,2.3-0.9,2.3c-0.2,0-0.9-1-0.9-2.3s0.7-2.3,0.9-2.3C8,9.6,8.7,10.6,8.7,11.9z"/>
					<path class="st13" d="M8.7,11.9c0,1.2-0.6,2.2-0.6,2.2s-0.6-1-0.6-2.2s0.6-2.2,0.6-2.2S8.7,10.7,8.7,11.9z"/>
					<circle class="st1" cx="19.4" cy="11.9" r="4.3"/>
					<ellipse class="st2" cx="19.1" cy="11.9" rx="4" ry="4.1"/>
					<ellipse class="st3" cx="18.8" cy="11.9" rx="3.7" ry="4"/>
					<ellipse class="st4" cx="18.5" cy="11.9" rx="3.4" ry="3.8"/>
					<ellipse class="st5" cx="18.1" cy="11.9" rx="3.1" ry="3.6"/>
					<ellipse class="st6" cx="17.8" cy="11.9" rx="2.8" ry="3.4"/>
					<ellipse class="st7" cx="17.5" cy="11.9" rx="2.5" ry="3.2"/>
					<ellipse class="st8" cx="17.2" cy="11.9" rx="2.1" ry="3.1"/>
					<ellipse class="st9" cx="16.9" cy="11.9" rx="1.8" ry="2.9"/>
					<ellipse class="st10" cx="16.6" cy="11.9" rx="1.5" ry="2.7"/>
					<ellipse class="st11" cx="16.3" cy="11.9" rx="1.2" ry="2.5"/>
					<ellipse class="st12" cx="16" cy="11.9" rx="0.9" ry="2.3"/>
					<path class="st13" d="M15.1,11.9c0,1.2,0.6,2.2,0.6,2.2s0.6-1,0.6-2.2s-0.6-2.2-0.6-2.2S15.1,10.7,15.1,11.9z"/>
					<path class="st1" d="M4.4,16.3c1.2-2.1,3.8-2.8,5.9-1.6s2.8,3.8,1.6,5.9S8.1,23.4,6,22.2c0,0,0,0,0,0C3.9,21,3.2,18.3,4.4,16.3
						z"/>
					<path class="st2" d="M10.3,14.7c2,1.1,2.7,3.7,1.6,5.6s-3.6,2.5-5.6,1.4c-2-1.1-2.7-3.7-1.6-5.6S8.3,13.5,10.3,14.7z"/>
					<path class="st3" d="M10.3,14.7c1.9,1.1,2.6,3.5,1.6,5.2c-1,1.7-3.4,2.3-5.3,1.2C4.7,20,4,17.6,5,15.9S8.4,13.6,10.3,14.7z"/>
					<path class="st4" d="M10.3,14.7c1.8,1,2.5,3.3,1.6,4.8c-0.9,1.6-3.2,2.1-5,1s-2.5-3.3-1.6-4.8S8.5,13.6,10.3,14.7z"/>
					<path class="st5" d="M10.3,14.7c1.7,1,2.4,3.1,1.6,4.5C11.1,20.5,9,21,7.2,20s-2.4-3.1-1.6-4.5S8.6,13.7,10.3,14.7z"/>
					<path class="st6" d="M10.3,14.7c1.6,0.9,2.3,2.9,1.6,4.1s-2.7,1.6-4.4,0.7c-1.6-0.9-2.3-2.9-1.6-4.1S8.7,13.7,10.3,14.7z"/>
					<path class="st7" d="M10.3,14.7c1.6,0.9,2.2,2.7,1.6,3.7c-0.6,1-2.5,1.4-4,0.5s-2.2-2.7-1.6-3.7C6.9,14.2,8.8,13.8,10.3,14.7z"
						/>
					<path class="st8" d="M10.3,14.7c1.5,0.8,2.1,2.5,1.6,3.4c-0.5,0.9-2.3,1.2-3.7,0.3S6.1,15.9,6.6,15S8.8,13.8,10.3,14.7z"/>
					<path class="st9" d="M10.3,14.7c1.4,0.8,2,2.3,1.6,3c-0.4,0.7-2,0.9-3.4,0.1c-1.4-0.8-2-2.3-1.6-3S8.9,13.9,10.3,14.7z"/>
					<path class="st10" d="M10.3,14.7c1.3,0.7,1.9,2.2,1.6,2.7s-1.8,0.7-3.1,0s-1.9-2.2-1.6-2.7S9,13.9,10.3,14.7z"/>
					<path class="st11" d="M10.3,14.7c1.2,0.7,1.8,2,1.6,2.3c-0.2,0.3-1.6,0.5-2.8-0.2c-1.2-0.7-1.8-2-1.6-2.3
						C7.7,14.1,9.1,14,10.3,14.7z"/>
					<path class="st12" d="M10.3,14.7c1.1,0.6,1.7,1.8,1.6,1.9c-0.1,0.2-1.4,0.3-2.5-0.4c-1.1-0.6-1.7-1.8-1.6-1.9
						C7.9,14.1,9.2,14,10.3,14.7z"/>
					<path class="st13" d="M10.3,14.7c1,0.6,1.6,1.6,1.6,1.6s-1.1,0-2.2-0.6s-1.6-1.6-1.6-1.6S9.3,14.1,10.3,14.7z"/>
					<circle class="st1" cx="15.6" cy="5.5" r="4.3"/>
					<ellipse transform="matrix(0.5 -0.866 0.866 0.5 2.7862 16.2764)" class="st2" cx="15.5" cy="5.7" rx="4" ry="4.1"/>
					<ellipse transform="matrix(0.5 -0.866 0.866 0.5 2.474 16.2762)" class="st3" cx="15.3" cy="6" rx="3.7" ry="4"/>
					<ellipse transform="matrix(0.4983 -0.867 0.867 0.4983 2.2535 16.2936)" class="st14" cx="15.2" cy="6.2" rx="3.4" ry="3.8"/>
					<ellipse transform="matrix(0.5 -0.866 0.866 0.5 1.8505 16.2758)" class="st5" cx="15" cy="6.5" rx="3.1" ry="3.6"/>
					<ellipse transform="matrix(0.5 -0.866 0.866 0.5 1.5378 16.2756)" class="st6" cx="14.9" cy="6.8" rx="2.8" ry="3.4"/>
					<ellipse transform="matrix(0.5 -0.866 0.866 0.5 1.2259 16.2753)" class="st7" cx="14.7" cy="7.1" rx="2.5" ry="3.2"/>
					<ellipse transform="matrix(0.4983 -0.867 0.867 0.4983 1.0031 16.2985)" class="st15" cx="14.6" cy="7.3" rx="2.2" ry="3.1"/>
					<ellipse transform="matrix(0.5 -0.866 0.866 0.5 0.6022 16.2745)" class="st9" cx="14.4" cy="7.6" rx="1.8" ry="2.9"/>
					<ellipse transform="matrix(0.5 -0.866 0.866 0.5 0.2904 16.2741)" class="st10" cx="14.2" cy="7.9" rx="1.5" ry="2.7"/>
					<ellipse transform="matrix(0.5 -0.866 0.866 0.5 -2.171519e-02 16.2736)" class="st11" cx="14.1" cy="8.2" rx="1.2" ry="2.5"/>
					<ellipse transform="matrix(0.5 -0.866 0.866 0.5 -0.3336 16.2732)" class="st12" cx="13.9" cy="8.4" rx="0.9" ry="2.3"/>
					<path class="st13" d="M13.5,9.2c1,0.6,2.2,0.6,2.2,0.6s-0.5-1-1.6-1.6s-2.2-0.6-2.2-0.6S12.4,8.6,13.5,9.2z"/>
					<path class="st1" d="M11.9,20.6c-1.2-2.1-0.5-4.7,1.6-5.9s4.7-0.5,5.9,1.6c1.2,2.1,0.5,4.7-1.6,5.9
						C15.7,23.4,13.1,22.7,11.9,20.6C11.9,20.6,11.9,20.6,11.9,20.6z"/>
					<path class="st2" d="M13.5,14.7c2-1.1,4.5-0.5,5.6,1.4s0.4,4.4-1.6,5.6c-2,1.1-4.5,0.5-5.6-1.4S11.5,15.8,13.5,14.7z"/>
					<path class="st3" d="M13.5,14.7c1.9-1.1,4.3-0.5,5.3,1.2s0.3,4.1-1.6,5.2c-1.9,1.1-4.3,0.5-5.3-1.2S11.6,15.8,13.5,14.7z"/>
					<path class="st4" d="M13.5,14.7c1.8-1,4.1-0.5,5,1s0.2,3.8-1.6,4.8c-1.8,1-4.1,0.5-5-1C11,18,11.7,15.7,13.5,14.7z"/>
					<path class="st5" d="M13.5,14.7c1.7-1,3.9-0.5,4.7,0.9s0.1,3.5-1.6,4.5s-3.9,0.5-4.7-0.9C11.1,17.8,11.8,15.7,13.5,14.7z"/>
					<path class="st6" d="M13.5,14.7c1.6-0.9,3.7-0.5,4.4,0.7c0.7,1.2,0.1,3.2-1.6,4.1c-1.6,0.9-3.7,0.5-4.4-0.7
						S11.8,15.6,13.5,14.7z"/>
					<path class="st7" d="M13.5,14.7c1.6-0.9,3.4-0.5,4,0.5c0.6,1,0,2.9-1.6,3.7s-3.4,0.5-4-0.5C11.3,17.4,11.9,15.6,13.5,14.7z"/>
					<ellipse transform="matrix(0.866 -0.5 0.5 0.866 -6.325 9.4931)" class="st8" cx="14.6" cy="16.5" rx="3.1" ry="2.1"/>
					<ellipse transform="matrix(0.866 -0.5 0.5 0.866 -6.2109 9.3786)" class="st9" cx="14.4" cy="16.3" rx="2.9" ry="1.8"/>
					<ellipse transform="matrix(0.866 -0.5 0.5 0.866 -6.0969 9.2644)" class="st10" cx="14.2" cy="16" rx="2.7" ry="1.5"/>
					<path class="st11" d="M13.5,14.7c1.2-0.7,2.6-0.6,2.8-0.2c0.2,0.3-0.4,1.6-1.6,2.3s-2.6,0.6-2.8,0.2
						C11.7,16.7,12.3,15.4,13.5,14.7z"/>
					<path class="st12" d="M13.5,14.7c1.1-0.6,2.4-0.6,2.5-0.4c0.1,0.2-0.5,1.3-1.6,1.9c-1.1,0.6-2.4,0.6-2.5,0.4
						C11.8,16.5,12.4,15.3,13.5,14.7z"/>
					<path class="st13" d="M13.5,14.7c1-0.6,2.2-0.6,2.2-0.6s-0.5,1-1.6,1.6c-1,0.6-2.2,0.6-2.2,0.6S12.4,15.3,13.5,14.7z"/>
					<circle class="st1" cx="8.1" cy="5.5" r="4.3"/>
					<ellipse transform="matrix(0.866 -0.5 0.5 0.866 -1.7502 4.92)" class="st2" cx="8.3" cy="5.7" rx="4.1" ry="4"/>
					<ellipse transform="matrix(0.866 -0.5 0.5 0.866 -1.8645 5.0339)" class="st3" cx="8.5" cy="6" rx="4" ry="3.7"/>
					<ellipse transform="matrix(0.866 -0.5 0.5 0.866 -1.979 5.148)" class="st4" cx="8.6" cy="6.3" rx="3.8" ry="3.4"/>
					<ellipse transform="matrix(0.866 -0.5 0.5 0.866 -2.0934 5.2622)" class="st5" cx="8.8" cy="6.5" rx="3.6" ry="3.1"/>
					<ellipse transform="matrix(0.866 -0.5 0.5 0.866 -2.2075 5.3761)" class="st6" cx="8.9" cy="6.8" rx="3.4" ry="2.8"/>
					<ellipse transform="matrix(0.866 -0.5 0.5 0.866 -2.322 5.4902)" class="st7" cx="9.1" cy="7.1" rx="3.2" ry="2.5"/>
					<path class="st8" d="M10.3,9.2c1.5-0.8,2.1-2.5,1.6-3.4S9.6,4.6,8.2,5.5S6.1,8,6.6,8.9C7.1,9.7,8.8,10.1,10.3,9.2z"/>
					<path class="st9" d="M10.3,9.2c1.4-0.8,2-2.3,1.6-3c-0.4-0.7-2-0.9-3.4-0.1s-2,2.3-1.6,3C7.3,9.8,8.9,10,10.3,9.2z"/>
					<path class="st10" d="M10.3,9.2c1.3-0.7,1.9-2.2,1.6-2.7s-1.8-0.7-3.1,0S6.9,8.7,7.2,9.2C7.5,9.8,9,10,10.3,9.2z"/>
					<path class="st11" d="M10.3,9.2c1.2-0.7,1.8-2,1.6-2.3c-0.2-0.3-1.6-0.5-2.8,0.2s-1.8,2-1.6,2.3C7.7,9.8,9.1,9.9,10.3,9.2z"/>
					<path class="st12" d="M10.3,9.2c1.1-0.6,1.7-1.8,1.6-1.9C11.8,7.1,10.5,7,9.4,7.7S7.7,9.4,7.8,9.6S9.2,9.9,10.3,9.2z"/>
					<path class="st13" d="M10.3,9.2c1-0.6,1.6-1.6,1.6-1.6s-1.1,0-2.2,0.6S8.1,9.8,8.1,9.8S9.3,9.8,10.3,9.2z"/>
				</g>
			</g>
		</g>
	</g>
	<g id="_ÎÓÈ_3">
		<g id="__1_">
			<g>
				<defs>
					<path id="SVGID_00000179634150518752141330000002407063908781959553_" d="M11.9,2.9c-5,0-9.1,4.1-9.1,9.1S6.9,21,11.9,21
						S21,17,21,11.9S16.9,2.9,11.9,2.9z M11.9,3.3c0,0,0.6,1,0.6,2.2s-0.6,2.2-0.6,2.2s-0.6-1-0.6-2.2S11.9,3.3,11.9,3.3z M6.6,8.2
						c1,0.6,1.6,1.5,1.6,1.6l0,0c0,0-1.1,0-2.2-0.6c-1-0.6-1.6-1.6-1.6-1.6S5.5,7.6,6.6,8.2z M8.1,14.1c0,0-0.6,1-1.6,1.6
						c-1,0.6-2.2,0.6-2.2,0.6s0.5-1,1.6-1.6C7,14.1,8.1,14.1,8.1,14.1L8.1,14.1z M11.9,20.6c-0.1-0.2-0.2-0.4-0.3-0.6
						c-0.2-0.5-0.3-1-0.3-1.5c0-1.2,0.6-2.2,0.6-2.2s0.6,1,0.6,2.2S11.9,20.6,11.9,20.6L11.9,20.6z M19.4,16.3c0,0-1.1,0-2.2-0.6
						c-1-0.6-1.6-1.6-1.6-1.6c-1.2,2.1-3.8,2.8-5.9,1.6S7,11.9,8.2,9.8S12,7,14.1,8.2c0.7,0.4,1.2,0.9,1.6,1.6c0,0,0.6-1,1.6-1.6
						c1-0.6,2.2-0.6,2.2-0.6l0,0c0,0-0.5,1-1.6,1.6c-1,0.6-2.2,0.6-2.2,0.6l0,0c0.8,1.3,0.8,3,0,4.3l0,0c0,0,1.1,0,2.2,0.6
						C18.8,15.3,19.4,16.3,19.4,16.3L19.4,16.3z"/>
				</defs>
				<clipPath id="SVGID_00000054972223136160985960000001402457387051021441_">
					<use xlink:href="#SVGID_00000179634150518752141330000002407063908781959553_"  style="overflow:visible;"/>
				</clipPath>
				<g style="clip-path:url(#SVGID_00000054972223136160985960000001402457387051021441_);">
					<circle class="st13" cx="11.9" cy="7.6" r="4.3"/>
					<ellipse class="st17" cx="11.9" cy="7.9" rx="3.9" ry="4.1"/>
					<ellipse class="st18" cx="11.9" cy="8.2" rx="3.4" ry="3.8"/>
					<ellipse class="st19" cx="11.9" cy="8.4" rx="2.9" ry="3.5"/>
					<path class="st20" d="M14.4,8.7c0,1.8-1.3,3.2-2.5,3.2s-2.5-1.5-2.5-3.2s1.3-3.2,2.5-3.2S14.4,6.9,14.4,8.7z"/>
					<path class="st21" d="M13.9,9c0,1.6-1.1,3-2,3s-2-1.3-2-3s1.1-3,2-3S13.9,7.3,13.9,9z"/>
					<path class="st22" d="M13.4,9.2c0,1.5-0.9,2.7-1.5,2.7s-1.5-1.2-1.5-2.7s0.9-2.7,1.5-2.7S13.4,7.7,13.4,9.2z"/>
					<path class="st23" d="M12.9,9.5c0,1.3-0.8,2.4-1.1,2.4s-1.1-1.1-1.1-2.4s0.8-2.4,1.1-2.4S12.9,8.2,12.9,9.5z"/>
					<path class="st24" d="M12.5,9.8c0,1.2-0.6,2.2-0.6,2.2s-0.6-1-0.6-2.2s0.6-2.2,0.6-2.2S12.5,8.6,12.5,9.8z"/>
					<circle class="st13" cx="11.9" cy="16.3" r="4.3"/>
					<ellipse class="st17" cx="11.9" cy="16" rx="3.9" ry="4.1"/>
					<ellipse class="st18" cx="11.9" cy="15.7" rx="3.4" ry="3.8"/>
					<ellipse class="st19" cx="11.9" cy="15.5" rx="2.9" ry="3.5"/>
					<path class="st20" d="M14.4,15.2c0-1.8-1.3-3.2-2.5-3.2s-2.5,1.5-2.5,3.2s1.3,3.2,2.5,3.2S14.4,17,14.4,15.2z"/>
					<path class="st21" d="M13.9,14.9c0-1.6-1.1-3-2-3s-2,1.3-2,3s1.1,3,2,3S13.9,16.6,13.9,14.9z"/>
					<path class="st22" d="M13.4,14.7c0-1.5-0.9-2.7-1.5-2.7s-1.5,1.2-1.5,2.7s0.9,2.7,1.5,2.7S13.4,16.1,13.4,14.7z"/>
					<path class="st23" d="M12.9,14.4c0-1.3-0.8-2.4-1.1-2.4s-1.1,1.1-1.1,2.4s0.8,2.4,1.1,2.4S12.9,15.7,12.9,14.4z"/>
					<path class="st24" d="M12.5,14.1c0-1.2-0.6-2.2-0.6-2.2s-0.6,1-0.6,2.2s0.6,2.2,0.6,2.2S12.5,15.3,12.5,14.1z"/>
					<circle class="st13" cx="8.1" cy="9.8" r="4.3"/>
					<ellipse transform="matrix(0.5 -0.866 0.866 0.5 -4.3983 12.2204)" class="st17" cx="8.4" cy="9.9" rx="3.9" ry="4.1"/>
					<ellipse transform="matrix(0.5 -0.866 0.866 0.5 -4.3984 12.4906)" class="st18" cx="8.6" cy="10.1" rx="3.4" ry="3.8"/>
					<ellipse transform="matrix(0.5 -0.866 0.866 0.5 -4.3981 12.7613)" class="st19" cx="8.9" cy="10.2" rx="2.9" ry="3.5"/>
					<ellipse transform="matrix(0.5 -0.866 0.866 0.5 -4.3982 13.0316)" class="st20" cx="9.1" cy="10.3" rx="2.5" ry="3.2"/>
					<ellipse transform="matrix(0.5 -0.866 0.866 0.5 -4.3983 13.3023)" class="st21" cx="9.3" cy="10.5" rx="2" ry="3"/>
					<path class="st22" d="M10.3,9.3c1.3,0.7,1.9,2.2,1.6,2.7c-0.3,0.5-1.8,0.7-3.1,0c-1.3-0.7-1.9-2.2-1.6-2.7
						C7.5,8.7,9,8.5,10.3,9.3z"/>
					<path class="st23" d="M10.3,9.8c1.2,0.7,1.7,1.9,1.6,2.1s-1.5,0.4-2.6-0.3C8.1,11,7.5,9.8,7.7,9.5C7.8,9.3,9.2,9.1,10.3,9.8z"
						/>
					<path class="st24" d="M10.3,10.4c1,0.6,1.6,1.6,1.6,1.6s-1.1,0-2.2-0.6S8.1,9.8,8.1,9.8S9.3,9.8,10.3,10.4z"/>
					<path class="st13" d="M17.8,10.4c-2.1-1.2-4.7-0.5-5.9,1.6s-0.5,4.7,1.6,5.9s4.7,0.5,5.9-1.6c0,0,0,0,0,0
						C20.6,14.2,19.9,11.6,17.8,10.4z"/>
					<path class="st17" d="M17.3,10.6c-1.9-1.1-4.4-0.5-5.4,1.3c-1,1.8-0.4,4.3,1.6,5.4c1.9,1.1,4.4,0.5,5.4-1.3
						C20,14.2,19.3,11.8,17.3,10.6z"/>
					<path class="st18" d="M16.9,10.9c-1.8-1-4.1-0.5-5,1s-0.2,3.8,1.6,4.8s4.1,0.5,5-1S18.7,11.9,16.9,10.9z"/>
					<path class="st19" d="M16.4,11.2c-1.7-1-3.8-0.5-4.5,0.8s-0.1,3.3,1.6,4.3s3.8,0.5,4.5-0.8S18.1,12.1,16.4,11.2z"/>
					<path class="st20" d="M15.9,11.4c-1.6-0.9-3.4-0.5-4,0.5c-0.6,1,0,2.9,1.6,3.7s3.4,0.5,4-0.5C18.1,14.2,17.5,12.3,15.9,11.4z"
						/>
					<path class="st21" d="M15.5,11.7c-1.4-0.8-3.1-0.5-3.6,0.2c-0.4,0.8,0.2,2.4,1.6,3.2s3.1,0.5,3.6-0.2
						C17.5,14.1,16.9,12.5,15.5,11.7z"/>
					<path class="st22" d="M15,12c-1.3-0.7-2.8-0.6-3.1,0s0.3,1.9,1.6,2.7s2.8,0.6,3.1,0C16.9,14.1,16.3,12.7,15,12z"/>
					<path class="st23" d="M14.5,12.3c-1.2-0.7-2.5-0.6-2.6-0.3c-0.1,0.3,0.4,1.5,1.6,2.1s2.5,0.6,2.6,0.3
						C16.3,14.1,15.7,12.9,14.5,12.3z"/>
					<path class="st24" d="M14.1,12.5c-1-0.6-2.2-0.6-2.2-0.6s0.5,1,1.6,1.6s2.2,0.6,2.2,0.6S15.1,13.1,14.1,12.5z"/>
					<path class="st13" d="M6,10.4c2.1-1.2,4.7-0.5,5.9,1.6s0.5,4.7-1.6,5.9c-2.1,1.2-4.7,0.5-5.9-1.6c0,0,0,0,0,0
						C3.2,14.2,3.9,11.6,6,10.4z"/>
					<ellipse transform="matrix(0.867 -0.4983 0.4983 0.867 -5.8737 6.0632)" class="st25" cx="8.4" cy="14" rx="4.1" ry="3.9"/>
					<ellipse transform="matrix(0.867 -0.4983 0.4983 0.867 -5.7745 6.1625)" class="st26" cx="8.7" cy="13.9" rx="3.8" ry="3.4"/>
					<ellipse transform="matrix(0.866 -0.5 0.5 0.866 -5.6669 6.2626)" class="st19" cx="8.9" cy="13.7" rx="3.5" ry="2.9"/>
					<ellipse transform="matrix(0.866 -0.5 0.5 0.866 -5.5677 6.3613)" class="st20" cx="9.1" cy="13.6" rx="3.2" ry="2.5"/>
					<path class="st21" d="M8.3,11.7c1.4-0.8,3.1-0.5,3.6,0.2c0.4,0.8-0.2,2.4-1.6,3.2s-3.1,0.5-3.6-0.2C6.3,14.1,6.9,12.5,8.3,11.7
						z"/>
					<path class="st22" d="M8.8,12c1.3-0.7,2.8-0.6,3.1,0s-0.3,1.9-1.6,2.7s-2.8,0.6-3.1,0C6.9,14.1,7.5,12.7,8.8,12z"/>
					<path class="st23" d="M9.3,12.3c1.2-0.7,2.5-0.6,2.6-0.3c0.1,0.3-0.4,1.5-1.6,2.1s-2.5,0.6-2.6,0.3C7.5,14.1,8.1,12.9,9.3,12.3
						z"/>
					<path class="st24" d="M9.7,12.5c1-0.6,2.2-0.6,2.2-0.6s-0.5,1-1.6,1.6s-2.2,0.6-2.2,0.6S8.7,13.1,9.7,12.5z"/>
					<path class="st13" d="M13.5,6c-2.1,1.2-2.8,3.8-1.6,5.9s3.8,2.8,5.9,1.6c2.1-1.2,2.8-3.8,1.6-5.9C18.2,5.5,15.6,4.8,13.5,6
						C13.5,6,13.5,6,13.5,6z"/>
					<path class="st17" d="M13.5,6.6c-1.9,1.1-2.6,3.6-1.6,5.4s3.5,2.4,5.4,1.3s2.6-3.6,1.6-5.4C17.9,6.1,15.4,5.5,13.5,6.6z"/>
					<path class="st18" d="M13.5,7.1c-1.8,1-2.5,3.3-1.6,4.8s3.2,2.1,5,1s2.5-3.3,1.6-4.8C17.6,6.6,15.3,6.1,13.5,7.1z"/>
					<path class="st19" d="M13.5,7.7c-1.7,1-2.3,3-1.6,4.3c0.7,1.3,2.8,1.7,4.5,0.8s2.3-3,1.6-4.3S15.2,6.7,13.5,7.7z"/>
					<path class="st20" d="M13.5,8.2c-1.6,0.9-2.2,2.7-1.6,3.7c0.6,1,2.5,1.4,4,0.5s2.2-2.7,1.6-3.7S15,7.3,13.5,8.2z"/>
					<path class="st21" d="M13.5,8.7c-1.4,0.8-2,2.4-1.6,3.2c0.4,0.8,2.1,1.1,3.6,0.2c1.4-0.8,2-2.4,1.6-3.2
						C16.6,8.2,14.9,7.9,13.5,8.7z"/>
					<path class="st22" d="M13.5,9.3c-1.3,0.7-1.9,2.2-1.6,2.7c0.3,0.5,1.8,0.7,3.1,0c1.3-0.7,1.9-2.2,1.6-2.7
						C16.3,8.7,14.8,8.5,13.5,9.3z"/>
					<path class="st23" d="M13.5,9.8c-1.2,0.7-1.7,1.9-1.6,2.1s1.5,0.4,2.6-0.3c1.2-0.7,1.7-1.9,1.6-2.1C16,9.3,14.6,9.1,13.5,9.8z"
						/>
					<path class="st24" d="M13.5,10.4c-1,0.6-1.6,1.6-1.6,1.6s1.1,0,2.2-0.6s1.6-1.6,1.6-1.6S14.5,9.8,13.5,10.4z"/>
				</g>
			</g>
		</g>
	</g>
	<g id="_ÎÓÈ_4">
		<g>
			<defs>
				<circle id="SVGID_00000018206296972683483110000008381371836018336392_" cx="11.9" cy="11.9" r="4.3"/>
			</defs>
			<clipPath id="SVGID_00000107589028782262444280000004702947722277678999_">
				<use xlink:href="#SVGID_00000018206296972683483110000008381371836018336392_"  style="overflow:visible;"/>
			</clipPath>
			<g style="clip-path:url(#SVGID_00000107589028782262444280000004702947722277678999_);">
				<g id="_1">
					<g>
						<defs>
							<path id="SVGID_00000136399765707115103770000016020880294327713423_" d="M13.1,9.8h2.5L14.4,12h-2.5L13.1,9.8z M15.6,9.8
								c0,0-1.1,0-2.2,0.6c-1,0.6-1.6,1.6-1.6,1.6s1.1,0,2.2-0.6C15.1,10.8,15.6,9.8,15.6,9.8L15.6,9.8z"/>
						</defs>
						<clipPath id="SVGID_00000076583022786245616400000000845743692573823408_">
							<use xlink:href="#SVGID_00000136399765707115103770000016020880294327713423_"  style="overflow:visible;"/>
						</clipPath>
						<g style="clip-path:url(#SVGID_00000076583022786245616400000000845743692573823408_);">
							<g>
								<polygon class="st29" points="11.9,12 14.4,12 15.6,9.8 13.1,9.8 								"/>
								<path class="st30" d="M14.3,11.8C14,12,11.9,12,11.9,12s1.1-1.9,1.3-2c0.3-0.1,2.4-0.1,2.4-0.1S14.6,11.7,14.3,11.8z"/>
								<path class="st31" d="M14.2,11.7c-0.5,0.3-2.3,0.3-2.3,0.3s0.9-1.6,1.4-1.9c0.5-0.3,2.3-0.3,2.3-0.3S14.7,11.4,14.2,11.7z"
									/>
								<path class="st32" d="M14.1,11.5C13.4,12,11.9,12,11.9,12s0.7-1.3,1.5-1.7s2.2-0.4,2.2-0.4S14.9,11.1,14.1,11.5z"/>
								<path class="st33" d="M14.1,11.4c-1,0.6-2.2,0.6-2.2,0.6s0.5-1,1.6-1.6s2.2-0.6,2.2-0.6S15.1,10.8,14.1,11.4z"/>
							</g>
							<path class="st29" d="M15.6,9.8L15.6,9.8c0,0-0.5,1-1.6,1.6c-1,0.6-2,0.6-2.1,0.6h0c0,0,0.5-1,1.6-1.6
								C14.4,9.8,15.5,9.8,15.6,9.8 M15.6,9.7c-0.1,0-1.2,0-2.2,0.6c-1,0.6-1.6,1.6-1.6,1.6l0,0.1h0.1h0c0.1,0,1.2,0,2.2-0.6
								C15.1,10.8,15.7,9.8,15.6,9.7L15.6,9.7L15.6,9.7L15.6,9.7z"/>
						</g>
					</g>
					<g>
						<path class="st33" d="M14.1,11.4c-1,0.6-2.2,0.6-2.2,0.6s0.5-1,1.6-1.6c1-0.6,2.2-0.6,2.2-0.6S15.1,10.8,14.1,11.4z"/>
						<path class="st32" d="M14,11.3c-0.8,0.5-1.7,0.5-1.7,0.5s0.4-0.8,1.3-1.3c0.8-0.5,1.7-0.5,1.7-0.5S14.8,10.8,14,11.3z"/>
						<path class="st31" d="M13.9,11.2c-0.6,0.4-1.3,0.3-1.3,0.3s0.3-0.6,0.9-1c0.6-0.4,1.3-0.3,1.3-0.3S14.6,10.8,13.9,11.2z"/>
						<path class="st30" d="M13.9,11.1c-0.3,0.1-0.6,0.2-0.9,0.2c0.3-0.5,0.9-0.9,1.5-0.9C14.4,10.7,14.1,10.9,13.9,11.1z"/>
						<path class="st29" d="M13.8,11c-0.1,0.1-0.3,0.1-0.4,0.1c0.2-0.3,0.4-0.4,0.7-0.4C14.1,10.8,14,10.9,13.8,11z"/>
					</g>
				</g>
				<g id="_1-2">
					<g>
						<defs>
							<path id="SVGID_00000017482761048072436680000006670755186650234008_" d="M9.4,12h2.5l-1.2,2.2H8.1L9.4,12z M11.9,11.9
								c0,0-1.1,0-2.2,0.6s-1.6,1.6-1.6,1.6s1.1,0,2.2-0.6S11.9,11.9,11.9,11.9z"/>
						</defs>
						<clipPath id="SVGID_00000114794441702009744190000011111530751502279851_">
							<use xlink:href="#SVGID_00000017482761048072436680000006670755186650234008_"  style="overflow:visible;"/>
						</clipPath>
						<g style="clip-path:url(#SVGID_00000114794441702009744190000011111530751502279851_);">
							<g>
								<polygon class="st29" points="8.1,14.1 10.6,14.1 11.9,12 9.4,12 								"/>
								<path class="st30" d="M10.6,14c-0.3,0.1-2.4,0.1-2.4,0.1s1.1-1.9,1.3-2c0.3-0.1,2.4-0.1,2.4-0.1S10.8,13.8,10.6,14z"/>
								<path class="st31" d="M10.5,13.8c-0.5,0.3-2.3,0.3-2.3,0.3s0.9-1.6,1.4-1.9c0.5-0.3,2.3-0.3,2.3-0.3S11,13.5,10.5,13.8z"/>
								<path class="st32" d="M10.4,13.7c-0.8,0.4-2.2,0.4-2.2,0.4s0.7-1.3,1.5-1.7c0.8-0.4,2.2-0.4,2.2-0.4S11.2,13.2,10.4,13.7z"
									/>
								<path class="st33" d="M10.3,13.5c-1,0.6-2.2,0.6-2.2,0.6s0.5-1,1.6-1.6c1-0.6,2.2-0.6,2.2-0.6S11.4,12.9,10.3,13.5z"/>
							</g>
							<path class="st29" d="M11.9,11.9L11.9,11.9c0,0-0.5,1-1.6,1.6c-1,0.6-2,0.6-2.1,0.6h0c0,0,0.5-1,1.6-1.6
								C10.7,12,11.7,11.9,11.9,11.9 M11.9,11.9L11.9,11.9c-0.1,0-1.2,0-2.2,0.6c-1,0.6-1.6,1.6-1.6,1.6l0,0.1h0.1h0
								c0.1,0,1.2,0,2.2-0.6C11.4,13,11.9,12,11.9,11.9L11.9,11.9L11.9,11.9L11.9,11.9z"/>
						</g>
					</g>
					<g>
						<path class="st33" d="M10.3,13.5c-1,0.6-2.2,0.6-2.2,0.6s0.5-1,1.6-1.6c1-0.6,2.2-0.6,2.2-0.6S11.4,12.9,10.3,13.5z"/>
						<path class="st32" d="M10.3,13.4c-0.8,0.5-1.7,0.5-1.7,0.5s0.4-0.8,1.3-1.3s1.7-0.5,1.7-0.5S11.1,13,10.3,13.4z"/>
						<path class="st31" d="M10.2,13.3c-0.6,0.4-1.3,0.3-1.3,0.3s0.3-0.6,0.9-1c0.6-0.4,1.3-0.3,1.3-0.3S10.8,13,10.2,13.3z"/>
						<path class="st30" d="M10.1,13.2c-0.3,0.1-0.6,0.2-0.9,0.2c0.3-0.5,0.9-0.9,1.5-0.9C10.6,12.9,10.4,13.1,10.1,13.2z"/>
						<path class="st29" d="M10.1,13.1c-0.1,0.1-0.3,0.1-0.4,0.1c0.2-0.3,0.4-0.4,0.7-0.4C10.3,12.9,10.2,13.1,10.1,13.1z"/>
					</g>
				</g>
				<g id="_1-3">
					<g>
						<defs>
							<path id="SVGID_00000176727939207321931300000016081802464502961836_" d="M10.6,9.8l1.2-2.2l1.2,2.2L11.9,12L10.6,9.8z
								 M11.9,7.6c0,0-0.6,1-0.6,2.2s0.6,2.2,0.6,2.2s0.6-1,0.6-2.2S11.9,7.6,11.9,7.6L11.9,7.6z"/>
						</defs>
						<clipPath id="SVGID_00000101791026888690563290000002805204899302423988_">
							<use xlink:href="#SVGID_00000176727939207321931300000016081802464502961836_"  style="overflow:visible;"/>
						</clipPath>
						<g style="clip-path:url(#SVGID_00000101791026888690563290000002805204899302423988_);">
							<g>
								<polygon class="st29" points="11.9,12 13.1,9.8 11.9,7.6 10.6,9.8 								"/>
								<path class="st30" d="M13,9.8c0,0.3-1.1,2.2-1.1,2.2s-1.1-1.9-1.1-2.2c0-0.3,1.1-2.2,1.1-2.2S13,9.5,13,9.8z"/>
								<path class="st31" d="M12.8,9.8c0,0.6-0.9,2.2-0.9,2.2S11,10.4,11,9.8c0-0.6,0.9-2.2,0.9-2.2S12.8,9.2,12.8,9.8z"/>
								<path class="st32" d="M12.6,9.8c0,0.9-0.7,2.2-0.7,2.2s-0.7-1.3-0.7-2.2s0.7-2.2,0.7-2.2S12.6,8.9,12.6,9.8z"/>
								<path class="st33" d="M12.5,9.8c0,1.2-0.6,2.2-0.6,2.2s-0.6-1-0.6-2.2s0.6-2.2,0.6-2.2S12.5,8.6,12.5,9.8z"/>
							</g>
							<path class="st29" d="M11.9,7.6c0,0,0.6,1,0.6,2.2s-0.6,2.2-0.6,2.2s-0.6-1-0.6-2.2S11.9,7.6,11.9,7.6 M11.9,7.5L11.9,7.5
								c0,0.1-0.6,1.1-0.6,2.2s0.6,2.2,0.6,2.2l0,0.1l0-0.1c0,0,0.6-1,0.6-2.2S11.9,7.6,11.9,7.5L11.9,7.5z"/>
						</g>
					</g>
					<g>
						<path class="st33" d="M12.5,9.8c0,1.2-0.6,2.2-0.6,2.2s-0.6-1-0.6-2.2s0.6-2.2,0.6-2.2S12.5,8.6,12.5,9.8z"/>
						<path class="st32" d="M12.4,9.8c0,1-0.5,1.7-0.5,1.7s-0.5-0.8-0.5-1.7s0.5-1.7,0.5-1.7S12.4,8.8,12.4,9.8z"/>
						<path class="st31" d="M12.2,9.8c0,0.7-0.4,1.3-0.4,1.3s-0.4-0.6-0.4-1.3s0.4-1.3,0.4-1.3S12.2,9.1,12.2,9.8z"/>
						<path class="st30" d="M12.1,9.8c0,0.3-0.1,0.6-0.2,0.9c-0.3-0.5-0.3-1.2,0-1.7C12,9.2,12.1,9.5,12.1,9.8z"/>
						<path class="st29" d="M12,9.8c0,0.2,0,0.3-0.1,0.4c-0.2-0.3-0.2-0.6,0-0.9C12,9.5,12,9.6,12,9.8z"/>
					</g>
				</g>
				<g id="_1-4">
					<g>
						<defs>
							<path id="SVGID_00000127026691565435778520000017996234562737964169_" d="M10.6,14.1l1.2-2.2l1.2,2.2l-1.2,2.2L10.6,14.1z
								 M11.9,11.9c0,0-0.6,1-0.6,2.2s0.6,2.2,0.6,2.2s0.6-1,0.6-2.2S11.9,11.9,11.9,11.9L11.9,11.9z"/>
						</defs>
						<clipPath id="SVGID_00000131326311890219937180000010325787942442096519_">
							<use xlink:href="#SVGID_00000127026691565435778520000017996234562737964169_"  style="overflow:visible;"/>
						</clipPath>
						<g style="clip-path:url(#SVGID_00000131326311890219937180000010325787942442096519_);">
							<g>
								<polygon class="st29" points="11.9,16.3 13.1,14.1 11.9,12 10.6,14.1 								"/>
								<path class="st30" d="M13,14.1c0,0.3-1.1,2.2-1.1,2.2s-1.1-1.9-1.1-2.2s1.1-2.2,1.1-2.2S13,13.8,13,14.1z"/>
								<path class="st31" d="M12.8,14.1c0,0.6-0.9,2.2-0.9,2.2S11,14.7,11,14.1c0-0.6,0.9-2.2,0.9-2.2S12.8,13.5,12.8,14.1z"/>
								<path class="st32" d="M12.6,14.1c0,0.9-0.7,2.2-0.7,2.2s-0.7-1.3-0.7-2.2c0-0.9,0.7-2.2,0.7-2.2S12.6,13.2,12.6,14.1z"/>
								<path class="st33" d="M12.5,14.1c0,1.2-0.6,2.2-0.6,2.2s-0.6-1-0.6-2.2s0.6-2.2,0.6-2.2S12.5,12.9,12.5,14.1z"/>
							</g>
							<path class="st29" d="M11.9,11.9c0,0,0.6,1,0.6,2.2s-0.6,2.2-0.6,2.2s-0.6-1-0.6-2.2S11.9,11.9,11.9,11.9 M11.9,11.9
								L11.9,11.9c0,0.1-0.6,1.1-0.6,2.2s0.6,2.2,0.6,2.2l0,0.1l0-0.1c0,0,0.6-1,0.6-2.2S11.9,11.9,11.9,11.9L11.9,11.9z"/>
						</g>
					</g>
					<g>
						<path class="st33" d="M12.5,14.1c0,1.2-0.6,2.2-0.6,2.2s-0.6-1-0.6-2.2s0.6-2.2,0.6-2.2S12.5,12.9,12.5,14.1z"/>
						<path class="st32" d="M12.4,14.1c0,1-0.5,1.7-0.5,1.7s-0.5-0.8-0.5-1.7s0.5-1.7,0.5-1.7S12.4,13.2,12.4,14.1z"/>
						<path class="st31" d="M12.2,14.1c0,0.7-0.4,1.3-0.4,1.3s-0.4-0.6-0.4-1.3s0.4-1.3,0.4-1.3S12.2,13.4,12.2,14.1z"/>
						<path class="st30" d="M12.1,14.1c0,0.3-0.1,0.6-0.2,0.9c-0.3-0.5-0.3-1.2,0-1.7C12,13.5,12.1,13.8,12.1,14.1z"/>
						<path class="st29" d="M12,14.1c0,0.2,0,0.3-0.1,0.4c-0.2-0.3-0.2-0.6,0-0.9C12,13.8,12,14,12,14.1z"/>
					</g>
				</g>
				<g id="_1-5">
					<g>
						<defs>
							<path id="SVGID_00000027601941390746303580000013224214302391432369_" d="M9.4,12L8.2,9.8h2.5l1.2,2.2L9.4,12z M8.1,9.8
								c0,0,0.5,1,1.6,1.6c1,0.6,2.2,0.6,2.2,0.6s-0.5-1-1.6-1.6S8.1,9.8,8.1,9.8L8.1,9.8z"/>
						</defs>
						<clipPath id="SVGID_00000053533858894057035200000013340072837383915926_">
							<use xlink:href="#SVGID_00000027601941390746303580000013224214302391432369_"  style="overflow:visible;"/>
						</clipPath>
						<g style="clip-path:url(#SVGID_00000053533858894057035200000013340072837383915926_);">
							<g>
								<polygon class="st29" points="11.9,12 10.7,9.8 8.2,9.8 9.4,12 								"/>
								<path class="st30" d="M10.6,9.9c0.3,0.1,1.3,2,1.3,2s-2.2,0-2.4-0.1s-1.3-2-1.3-2S10.3,9.8,10.6,9.9z"/>
								<path class="st31" d="M10.5,10.1c0.5,0.3,1.4,1.9,1.4,1.9s-1.8,0-2.3-0.3C9,11.4,8.2,9.8,8.2,9.8S10,9.8,10.5,10.1z"/>
								<path class="st32" d="M10.4,10.2c0.8,0.4,1.5,1.7,1.5,1.7s-1.5,0-2.2-0.4c-0.8-0.4-1.5-1.7-1.5-1.7S9.6,9.8,10.4,10.2z"/>
								<path class="st33" d="M10.3,10.4c1,0.6,1.6,1.6,1.6,1.6s-1.1,0-2.2-0.6S8.1,9.8,8.1,9.8S9.3,9.8,10.3,10.4z"/>
							</g>
							<path class="st29" d="M8.2,9.8c0.1,0,1.2,0,2.1,0.6c1,0.6,1.6,1.6,1.6,1.6h0c-0.1,0-1.2,0-2.1-0.6C8.7,10.8,8.1,9.8,8.2,9.8
								L8.2,9.8 M8.2,9.7L8.2,9.7L8.2,9.7L8.2,9.7c0,0.1,0.5,1.1,1.5,1.7c1,0.6,2.1,0.6,2.2,0.6h0H12l0-0.1c0,0-0.6-1-1.6-1.6
								C9.4,9.8,8.3,9.7,8.2,9.7L8.2,9.7z"/>
						</g>
					</g>
					<g>
						<path class="st33" d="M10.3,10.4c1,0.6,1.6,1.6,1.6,1.6s-1.1,0-2.2-0.6S8.1,9.8,8.1,9.8S9.3,9.8,10.3,10.4z"/>
						<path class="st32" d="M10.3,10.5c0.8,0.5,1.3,1.3,1.3,1.3s-0.9,0-1.7-0.5C9,10.8,8.5,10,8.5,10S9.4,10,10.3,10.5z"/>
						<path class="st31" d="M10.2,10.6c0.6,0.4,0.9,1,0.9,1s-0.7,0-1.3-0.3c-0.6-0.4-0.9-1-0.9-1S9.6,10.2,10.2,10.6z"/>
						<path class="st30" d="M10.1,10.7c0.3,0.2,0.5,0.4,0.6,0.6c-0.6,0-1.2-0.3-1.5-0.9C9.6,10.4,9.9,10.5,10.1,10.7z"/>
						<path class="st29" d="M10.1,10.8c0.1,0.1,0.2,0.2,0.3,0.3c-0.3,0-0.6-0.2-0.7-0.4C9.8,10.7,9.9,10.7,10.1,10.8z"/>
					</g>
				</g>
				<g id="_1-6">
					<g>
						<defs>
							<path id="SVGID_00000168117451575061036880000003383238856856827034_" d="M13.1,14.1L11.9,12h2.5l1.2,2.2H13.1z M11.9,11.9
								c0,0,0.5,1,1.6,1.6c1,0.6,2.2,0.6,2.2,0.6s-0.5-1-1.6-1.6S11.9,11.9,11.9,11.9L11.9,11.9z"/>
						</defs>
						<clipPath id="SVGID_00000111150025619927827570000003866908588773378696_">
							<use xlink:href="#SVGID_00000168117451575061036880000003383238856856827034_"  style="overflow:visible;"/>
						</clipPath>
						<g style="clip-path:url(#SVGID_00000111150025619927827570000003866908588773378696_);">
							<g>
								<polygon class="st29" points="15.6,14.1 14.4,12 11.9,12 13.1,14.1 								"/>
								<path class="st30" d="M14.3,12.1c0.3,0.1,1.3,2,1.3,2s-2.2,0-2.4-0.1s-1.3-2-1.3-2S14,11.9,14.3,12.1z"/>
								<path class="st31" d="M14.2,12.2c0.5,0.3,1.4,1.9,1.4,1.9s-1.8,0-2.3-0.3c-0.5-0.3-1.4-1.9-1.4-1.9S13.7,11.9,14.2,12.2z"/>
								<path class="st32" d="M14.1,12.4c0.8,0.4,1.5,1.7,1.5,1.7s-1.5,0-2.2-0.4s-1.5-1.7-1.5-1.7S13.4,11.9,14.1,12.4z"/>
								<path class="st33" d="M14.1,12.5c1,0.6,1.6,1.6,1.6,1.6s-1.1,0-2.2-0.6c-1-0.6-1.6-1.6-1.6-1.6S13,11.9,14.1,12.5z"/>
							</g>
							<path class="st29" d="M11.9,11.9c0.1,0,1.2,0,2.1,0.6c1,0.6,1.6,1.6,1.6,1.6h0c-0.1,0-1.2,0-2.1-0.6
								C12.4,12.9,11.9,11.9,11.9,11.9L11.9,11.9 M11.9,11.9L11.9,11.9L11.9,11.9L11.9,11.9c0,0.1,0.5,1.1,1.5,1.7
								c1,0.6,2.1,0.6,2.2,0.6h0h0.1l0-0.1c0,0-0.6-1-1.6-1.6C13.1,11.9,12,11.9,11.9,11.9L11.9,11.9z"/>
						</g>
					</g>
					<g>
						<path class="st33" d="M14.1,12.5c1,0.6,1.6,1.6,1.6,1.6s-1.1,0-2.2-0.6c-1-0.6-1.6-1.6-1.6-1.6S13,11.9,14.1,12.5z"/>
						<path class="st32" d="M14,12.6c0.8,0.5,1.3,1.3,1.3,1.3s-0.9,0-1.7-0.5c-0.8-0.5-1.3-1.3-1.3-1.3S13.2,12.1,14,12.6z"/>
						<path class="st31" d="M13.9,12.7c0.6,0.4,0.9,1,0.9,1s-0.7,0-1.3-0.3c-0.6-0.4-0.9-1-0.9-1S13.3,12.4,13.9,12.7z"/>
						<path class="st30" d="M13.9,12.8c0.3,0.2,0.5,0.4,0.6,0.6c-0.6,0-1.2-0.3-1.5-0.9C13.3,12.6,13.6,12.7,13.9,12.8z"/>
						<path class="st29" d="M13.8,12.9c0.1,0.1,0.2,0.2,0.3,0.3c-0.3,0-0.6-0.2-0.7-0.4C13.5,12.8,13.7,12.9,13.8,12.9z"/>
					</g>
				</g>
				<g id="_1-7">
					<g>
						<defs>
							<path id="SVGID_00000162320771201685422670000017877912453542287799_" d="M9.4,7.6h2.5l-1.2,2.2H8.1L9.4,7.6z M11.9,7.6
								c0,0-1.1,0-2.2,0.6S8.2,9.8,8.2,9.8s1.1,0,2.2-0.6S11.9,7.6,11.9,7.6z"/>
						</defs>
						<clipPath id="SVGID_00000098925305493610437380000013483441734646937530_">
							<use xlink:href="#SVGID_00000162320771201685422670000017877912453542287799_"  style="overflow:visible;"/>
						</clipPath>
						<g style="clip-path:url(#SVGID_00000098925305493610437380000013483441734646937530_);">
							<g>
								<polygon class="st29" points="8.1,9.8 10.6,9.8 11.9,7.6 9.4,7.6 								"/>
								<path class="st30" d="M10.6,9.6c-0.3,0.1-2.4,0.1-2.4,0.1s1.1-1.9,1.3-2s2.4-0.1,2.4-0.1S10.8,9.5,10.6,9.6z"/>
								<path class="st31" d="M10.5,9.5C10,9.8,8.2,9.8,8.2,9.8S9,8.2,9.6,7.9c0.5-0.3,2.3-0.3,2.3-0.3S11,9.2,10.5,9.5z"/>
								<path class="st32" d="M10.4,9.4C9.6,9.8,8.2,9.8,8.2,9.8s0.7-1.3,1.5-1.7c0.8-0.4,2.2-0.4,2.2-0.4S11.2,8.9,10.4,9.4z"/>
								<path class="st33" d="M10.3,9.2c-1,0.6-2.2,0.6-2.2,0.6s0.5-1,1.6-1.6s2.2-0.6,2.2-0.6S11.4,8.6,10.3,9.2z"/>
							</g>
							<path class="st29" d="M11.9,7.6L11.9,7.6c0,0-0.5,1-1.6,1.6c-1,0.6-2,0.6-2.1,0.6h0c0,0,0.5-1,1.6-1.6
								C10.7,7.6,11.7,7.6,11.9,7.6 M11.9,7.6c-0.1,0-1.2,0-2.2,0.6c-1,0.6-1.6,1.6-1.6,1.6l0,0.1h0.1h0c0.1,0,1.2,0,2.2-0.6
								C11.4,8.6,11.9,7.6,11.9,7.6L11.9,7.6L11.9,7.6L11.9,7.6z"/>
						</g>
					</g>
					<g>
						<path class="st33" d="M10.3,9.2c-1,0.6-2.2,0.6-2.2,0.6s0.5-1,1.6-1.6s2.2-0.6,2.2-0.6S11.4,8.6,10.3,9.2z"/>
						<path class="st32" d="M10.3,9.1C9.4,9.6,8.5,9.6,8.5,9.6S9,8.8,9.8,8.3c0.8-0.5,1.7-0.5,1.7-0.5S11.1,8.6,10.3,9.1z"/>
						<path class="st31" d="M10.2,9C9.6,9.4,8.9,9.4,8.9,9.4s0.3-0.6,0.9-1s1.3-0.3,1.3-0.3S10.8,8.6,10.2,9z"/>
						<path class="st30" d="M10.1,8.9C9.9,9,9.6,9.1,9.3,9.1c0.3-0.5,0.9-0.9,1.5-0.9C10.6,8.5,10.4,8.7,10.1,8.9z"/>
						<path class="st29" d="M10.1,8.8C10,8.9,9.8,8.9,9.7,8.9c0.2-0.3,0.4-0.4,0.7-0.4C10.3,8.6,10.2,8.7,10.1,8.8z"/>
					</g>
				</g>
				<g id="_1-8">
					<g>
						<defs>
							<path id="SVGID_00000038393532004646803580000003771624156607885971_" d="M13.1,14.1h2.5l-1.2,2.2h-2.5L13.1,14.1z
								 M15.6,14.1c0,0-1.1,0-2.2,0.6s-1.6,1.6-1.6,1.6s1.1,0,2.2-0.6S15.6,14.1,15.6,14.1L15.6,14.1z"/>
						</defs>
						<clipPath id="SVGID_00000013186702080839634310000011325924978191436468_">
							<use xlink:href="#SVGID_00000038393532004646803580000003771624156607885971_"  style="overflow:visible;"/>
						</clipPath>
						<g style="clip-path:url(#SVGID_00000013186702080839634310000011325924978191436468_);">
							<g>
								<polygon class="st29" points="11.9,16.3 14.4,16.3 15.6,14.1 13.1,14.1 								"/>
								<path class="st30" d="M14.3,16.1c-0.3,0.1-2.4,0.1-2.4,0.1s1.1-1.9,1.3-2s2.4-0.1,2.4-0.1S14.6,16,14.3,16.1z"/>
								<path class="st31" d="M14.2,16c-0.5,0.3-2.3,0.3-2.3,0.3s0.9-1.6,1.4-1.9c0.5-0.3,2.3-0.3,2.3-0.3S14.7,15.7,14.2,16z"/>
								<path class="st32" d="M14.1,15.8c-0.8,0.4-2.2,0.4-2.2,0.4s0.7-1.3,1.5-1.7c0.8-0.4,2.2-0.4,2.2-0.4S14.9,15.4,14.1,15.8z"
									/>
								<path class="st33" d="M14.1,15.7c-1,0.6-2.2,0.6-2.2,0.6s0.5-1,1.6-1.6c1-0.6,2.2-0.6,2.2-0.6S15.1,15.1,14.1,15.7z"/>
							</g>
							<path class="st29" d="M15.6,14.1L15.6,14.1c0,0-0.5,1-1.6,1.6c-1,0.6-2,0.6-2.1,0.6h0c0,0,0.5-1,1.6-1.6
								C14.4,14.1,15.5,14.1,15.6,14.1 M15.6,14.1c-0.1,0-1.2,0-2.2,0.6c-1,0.6-1.6,1.6-1.6,1.6l0,0.1h0.1h0c0.1,0,1.2,0,2.2-0.6
								C15.1,15.1,15.7,14.1,15.6,14.1L15.6,14.1L15.6,14.1L15.6,14.1z"/>
						</g>
					</g>
					<g>
						<path class="st33" d="M14.1,15.7c-1,0.6-2.2,0.6-2.2,0.6s0.5-1,1.6-1.6c1-0.6,2.2-0.6,2.2-0.6S15.1,15.1,14.1,15.7z"/>
						<path class="st32" d="M14,15.6c-0.8,0.5-1.7,0.5-1.7,0.5s0.4-0.8,1.3-1.3c0.8-0.5,1.7-0.5,1.7-0.5S14.8,15.1,14,15.6z"/>
						<path class="st31" d="M14,15.5c-0.6,0.4-1.3,0.3-1.3,0.3s0.3-0.6,0.9-1c0.6-0.4,1.3-0.3,1.3-0.3S14.6,15.1,14,15.5z"/>
						<path class="st30" d="M13.9,15.4c-0.3,0.1-0.6,0.2-0.9,0.2c0.3-0.5,0.9-0.9,1.5-0.9C14.4,15,14.2,15.2,13.9,15.4z"/>
						<path class="st29" d="M13.8,15.3c-0.1,0.1-0.3,0.1-0.4,0.1c0.2-0.3,0.4-0.4,0.7-0.4C14.1,15.1,14,15.2,13.8,15.3z"/>
					</g>
				</g>
				<g id="_1-9">
					<g>
						<defs>
							<path id="SVGID_00000090295634379997078180000013274806076193087134_" d="M6.9,12l1.2-2.2L9.4,12l-1.2,2.2L6.9,12z M8.2,9.8
								c0,0-0.6,1-0.6,2.2s0.6,2.2,0.6,2.2s0.6-1,0.6-2.2S8.2,9.8,8.2,9.8L8.2,9.8z"/>
						</defs>
						<clipPath id="SVGID_00000030457700990348612180000013419856086993005716_">
							<use xlink:href="#SVGID_00000090295634379997078180000013274806076193087134_"  style="overflow:visible;"/>
						</clipPath>
						<g style="clip-path:url(#SVGID_00000030457700990348612180000013419856086993005716_);">
							<g>
								<polygon class="st29" points="8.2,14.1 9.4,12 8.2,9.8 6.9,12 								"/>
								<path class="st30" d="M9.2,11.9c0,0.3-1.1,2.2-1.1,2.2s-1.1-1.9-1.1-2.2s1.1-2.2,1.1-2.2S9.2,11.7,9.2,11.9z"/>
								<path class="st31" d="M9.1,11.9c0,0.6-0.9,2.2-0.9,2.2s-0.9-1.6-0.9-2.2s0.9-2.2,0.9-2.2S9.1,11.4,9.1,11.9z"/>
								<path class="st32" d="M8.9,11.9c0,0.9-0.7,2.2-0.7,2.2s-0.7-1.3-0.7-2.2c0-0.9,0.7-2.2,0.7-2.2S8.9,11.1,8.9,11.9z"/>
								<path class="st33" d="M8.7,11.9c0,1.2-0.6,2.2-0.6,2.2s-0.6-1-0.6-2.2s0.6-2.2,0.6-2.2S8.7,10.7,8.7,11.9z"/>
							</g>
							<path class="st29" d="M8.2,9.8c0,0,0.6,1,0.6,2.2s-0.6,2.2-0.6,2.2s-0.6-1-0.6-2.2S8.2,9.8,8.2,9.8 M8.2,9.7L8.2,9.7
								c0,0.1-0.6,1.1-0.6,2.2s0.6,2.2,0.6,2.2l0,0.1l0-0.1c0,0,0.6-1,0.6-2.2S8.2,9.8,8.2,9.7L8.2,9.7L8.2,9.7z"/>
						</g>
					</g>
					<g>
						<path class="st33" d="M8.7,11.9c0,1.2-0.6,2.2-0.6,2.2s-0.6-1-0.6-2.2s0.6-2.2,0.6-2.2S8.7,10.7,8.7,11.9z"/>
						<path class="st32" d="M8.6,11.9c0,1-0.5,1.7-0.5,1.7s-0.5-0.8-0.5-1.7s0.5-1.7,0.5-1.7S8.6,11,8.6,11.9z"/>
						<path class="st31" d="M8.5,11.9c0,0.7-0.4,1.3-0.4,1.3s-0.3-0.6-0.3-1.3s0.3-1.3,0.3-1.3S8.5,11.2,8.5,11.9z"/>
						<path class="st30" d="M8.4,11.9c0,0.3-0.1,0.6-0.2,0.9c-0.3-0.5-0.3-1.2,0-1.7C8.3,11.3,8.4,11.6,8.4,11.9z"/>
						<path class="st29" d="M8.3,11.9c0,0.2,0,0.3-0.1,0.4c-0.2-0.3-0.2-0.6,0-0.9C8.2,11.6,8.3,11.8,8.3,11.9z"/>
					</g>
				</g>
				<g id="_1-10">
					<g>
						<defs>
							<path id="SVGID_00000031886180855881014430000013170086549729810104_" d="M14.4,12l1.2-2.2l1.2,2.2l-1.2,2.2L14.4,12z
								 M15.6,9.8c0,0-0.6,1-0.6,2.2s0.6,2.2,0.6,2.2s0.6-1,0.6-2.2S15.6,9.8,15.6,9.8L15.6,9.8z"/>
						</defs>
						<clipPath id="SVGID_00000161619855811593267460000010208745248043409835_">
							<use xlink:href="#SVGID_00000031886180855881014430000013170086549729810104_"  style="overflow:visible;"/>
						</clipPath>
						<g style="clip-path:url(#SVGID_00000161619855811593267460000010208745248043409835_);">
							<g>
								<polygon class="st29" points="15.6,14.1 16.9,12 15.6,9.8 14.4,12 								"/>
								<path class="st30" d="M16.7,11.9c0,0.3-1.1,2.2-1.1,2.2s-1.1-1.9-1.1-2.2s1.1-2.2,1.1-2.2S16.7,11.7,16.7,11.9z"/>
								<path class="st31" d="M16.6,11.9c0,0.6-0.9,2.2-0.9,2.2s-0.9-1.6-0.9-2.2s0.9-2.2,0.9-2.2S16.6,11.4,16.6,11.9z"/>
								<path class="st32" d="M16.4,11.9c0,0.9-0.7,2.2-0.7,2.2s-0.7-1.3-0.7-2.2c0-0.9,0.7-2.2,0.7-2.2S16.4,11.1,16.4,11.9z"/>
								<path class="st33" d="M16.2,11.9c0,1.2-0.6,2.2-0.6,2.2s-0.6-1-0.6-2.2s0.6-2.2,0.6-2.2S16.2,10.7,16.2,11.9z"/>
							</g>
							<path class="st29" d="M15.6,9.8c0,0,0.6,1,0.6,2.2s-0.6,2.2-0.6,2.2s-0.6-1-0.6-2.2S15.6,9.8,15.6,9.8 M15.6,9.7L15.6,9.7
								c0,0.1-0.6,1.1-0.6,2.2s0.6,2.2,0.6,2.2l0,0.1l0-0.1c0,0,0.6-1,0.6-2.2S15.7,9.8,15.6,9.7L15.6,9.7L15.6,9.7z"/>
						</g>
					</g>
					<g>
						<path class="st33" d="M16.2,11.9c0,1.2-0.6,2.2-0.6,2.2s-0.6-1-0.6-2.2s0.6-2.2,0.6-2.2S16.2,10.7,16.2,11.9z"/>
						<path class="st32" d="M16.1,11.9c0,1-0.5,1.7-0.5,1.7s-0.5-0.8-0.5-1.7s0.5-1.7,0.5-1.7S16.1,11,16.1,11.9z"/>
						<path class="st31" d="M16,11.9c0,0.7-0.4,1.3-0.4,1.3s-0.4-0.6-0.4-1.3s0.4-1.3,0.4-1.3S16,11.2,16,11.9z"/>
						<path class="st30" d="M15.9,11.9c0,0.3-0.1,0.6-0.2,0.9c-0.3-0.5-0.3-1.2,0-1.7C15.8,11.3,15.9,11.6,15.9,11.9z"/>
						<path class="st29" d="M15.8,11.9c0,0.2,0,0.3-0.1,0.4c-0.2-0.3-0.2-0.6,0-0.9C15.7,11.6,15.8,11.8,15.8,11.9z"/>
					</g>
				</g>
				<g id="_1-11">
					<g>
						<defs>
							<path id="SVGID_00000085244818921477159610000000748659647934912426_" d="M9.4,16.3l-1.2-2.2h2.5l1.2,2.2L9.4,16.3z
								 M8.2,14.1c0,0,0.5,1,1.6,1.6c1,0.6,2.2,0.6,2.2,0.6s-0.5-1-1.6-1.6S8.1,14.1,8.2,14.1L8.2,14.1z"/>
						</defs>
						<clipPath id="SVGID_00000067221884113702833740000012521362706341821088_">
							<use xlink:href="#SVGID_00000085244818921477159610000000748659647934912426_"  style="overflow:visible;"/>
						</clipPath>
						<g style="clip-path:url(#SVGID_00000067221884113702833740000012521362706341821088_);">
							<g>
								<polygon class="st29" points="11.9,16.3 10.7,14.1 8.2,14.1 9.4,16.3 								"/>
								<path class="st30" d="M10.6,14.3c0.3,0.1,1.3,2,1.3,2s-2.2,0-2.4-0.1c-0.3-0.1-1.3-2-1.3-2S10.3,14.1,10.6,14.3z"/>
								<path class="st31" d="M10.5,14.4c0.5,0.3,1.4,1.9,1.4,1.9s-1.8,0-2.3-0.3c-0.5-0.3-1.4-1.9-1.4-1.9S10,14.1,10.5,14.4z"/>
								<path class="st32" d="M10.4,14.5c0.8,0.4,1.5,1.7,1.5,1.7s-1.5,0-2.2-0.4c-0.8-0.4-1.5-1.7-1.5-1.7S9.6,14.1,10.4,14.5z"/>
								<path class="st33" d="M10.3,14.7c1,0.6,1.6,1.6,1.6,1.6s-1.1,0-2.2-0.6s-1.6-1.6-1.6-1.6S9.3,14.1,10.3,14.7z"/>
							</g>
							<path class="st29" d="M8.2,14.1c0.1,0,1.2,0,2.1,0.6c1,0.6,1.6,1.6,1.6,1.6h0c-0.1,0-1.2,0-2.1-0.6
								C8.7,15.1,8.1,14.1,8.2,14.1L8.2,14.1 M8.2,14.1L8.2,14.1L8.2,14.1L8.2,14.1c0,0.1,0.5,1.1,1.5,1.7c1,0.6,2,0.6,2.2,0.6h0H12
								l0-0.1c0,0-0.6-1-1.6-1.6C9.4,14.1,8.3,14.1,8.2,14.1L8.2,14.1z"/>
						</g>
					</g>
					<g>
						<path class="st33" d="M10.3,14.7c1,0.6,1.6,1.6,1.6,1.6s-1.1,0-2.2-0.6s-1.6-1.6-1.6-1.6S9.3,14.1,10.3,14.7z"/>
						<path class="st32" d="M10.3,14.8c0.8,0.5,1.3,1.3,1.3,1.3s-0.9,0-1.7-0.5s-1.3-1.3-1.3-1.3S9.4,14.3,10.3,14.8z"/>
						<path class="st31" d="M10.2,14.9c0.6,0.4,0.9,1,0.9,1s-0.7,0-1.3-0.3c-0.6-0.4-0.9-1-0.9-1S9.6,14.5,10.2,14.9z"/>
						<path class="st30" d="M10.1,15c0.3,0.2,0.5,0.4,0.6,0.6c-0.6,0-1.2-0.3-1.5-0.9C9.6,14.8,9.9,14.8,10.1,15z"/>
						<path class="st29" d="M10.1,15.1c0.1,0.1,0.2,0.2,0.3,0.3c-0.3,0-0.6-0.2-0.7-0.4C9.8,15,9.9,15,10.1,15.1z"/>
					</g>
				</g>
				<g id="_1-12">
					<g>
						<defs>
							<path id="SVGID_00000082354936105756951690000014620574334583616407_" d="M13.2,9.8l-1.2-2.2h2.5l1.2,2.2H13.2z M11.9,7.6
								c0,0,0.5,1,1.6,1.6s2.2,0.6,2.2,0.6s-0.5-1-1.6-1.6C13,7.6,11.9,7.6,11.9,7.6L11.9,7.6z"/>
						</defs>
						<clipPath id="SVGID_00000101102710227634333090000010903501613375169711_">
							<use xlink:href="#SVGID_00000082354936105756951690000014620574334583616407_"  style="overflow:visible;"/>
						</clipPath>
						<g style="clip-path:url(#SVGID_00000101102710227634333090000010903501613375169711_);">
							<g>
								<polygon class="st29" points="15.6,9.8 14.4,7.6 11.9,7.6 13.2,9.8 								"/>
								<path class="st30" d="M14.3,7.8c0.3,0.1,1.3,2,1.3,2s-2.2,0-2.4-0.1c-0.3-0.1-1.3-2-1.3-2S14.1,7.6,14.3,7.8z"/>
								<path class="st31" d="M14.2,7.9c0.5,0.3,1.4,1.9,1.4,1.9s-1.8,0-2.3-0.3c-0.5-0.3-1.4-1.9-1.4-1.9S13.7,7.6,14.2,7.9z"/>
								<path class="st32" d="M14.1,8.1c0.8,0.4,1.5,1.7,1.5,1.7s-1.5,0-2.2-0.4s-1.5-1.7-1.5-1.7S13.4,7.6,14.1,8.1z"/>
								<path class="st33" d="M14.1,8.2c1,0.6,1.6,1.6,1.6,1.6s-1.1,0-2.2-0.6c-1-0.6-1.6-1.6-1.6-1.6S13,7.6,14.1,8.2z"/>
							</g>
							<path class="st29" d="M11.9,7.6c0.1,0,1.2,0,2.1,0.6c1,0.6,1.6,1.6,1.6,1.6h0c-0.1,0-1.2,0-2.1-0.6
								C12.4,8.6,11.9,7.6,11.9,7.6L11.9,7.6 M11.9,7.6L11.9,7.6L11.9,7.6L11.9,7.6c0,0.1,0.5,1.1,1.5,1.7c1,0.6,2.1,0.6,2.2,0.6h0
								h0.1l0-0.1c0,0-0.6-1-1.6-1.6C13.1,7.6,12,7.6,11.9,7.6L11.9,7.6z"/>
						</g>
					</g>
					<g>
						<path class="st33" d="M14.1,8.2c1,0.6,1.6,1.6,1.6,1.6s-1.1,0-2.2-0.6c-1-0.6-1.6-1.6-1.6-1.6S13,7.6,14.1,8.2z"/>
						<path class="st32" d="M14,8.3c0.8,0.5,1.3,1.3,1.3,1.3s-0.9,0-1.7-0.5c-0.8-0.5-1.3-1.3-1.3-1.3S13.2,7.8,14,8.3z"/>
						<path class="st31" d="M13.9,8.4c0.6,0.4,0.9,1,0.9,1s-0.7,0-1.3-0.3c-0.6-0.4-0.9-1-0.9-1S13.3,8,13.9,8.4z"/>
						<path class="st30" d="M13.9,8.5c0.3,0.2,0.5,0.4,0.6,0.6c-0.6,0-1.2-0.3-1.5-0.9C13.3,8.3,13.6,8.4,13.9,8.5z"/>
						<path class="st29" d="M13.8,8.6c0.1,0.1,0.2,0.2,0.3,0.3c-0.3,0-0.6-0.2-0.7-0.4C13.5,8.5,13.7,8.5,13.8,8.6z"/>
					</g>
				</g>
			</g>
		</g>
		<path class="st29" d="M11.9,7.6c2.4,0,4.3,1.9,4.3,4.3s-1.9,4.3-4.3,4.3s-4.3-1.9-4.3-4.3c0,0,0,0,0,0C7.6,9.6,9.5,7.6,11.9,7.6
			 M11.9,7.6c-2.4,0-4.4,2-4.4,4.4s2,4.4,4.4,4.4s4.4-2,4.4-4.4C16.3,9.5,14.3,7.6,11.9,7.6z"/>
	</g>
	<g id="_ÎÓÈ_5">
		<g id="ÀÂÔÂÒÚÍË">
			<g>
				<path class="st33" d="M12.5,5.5c0,1.2-0.6,2.2-0.6,2.2s-0.6-1-0.6-2.2s0.6-2.2,0.6-2.2S12.5,4.3,12.5,5.5z"/>
				<path class="st45" d="M12.4,5.7c0,1-0.5,1.9-0.5,1.9s-0.5-0.8-0.5-1.9s0.5-1.9,0.5-1.9S12.4,4.7,12.4,5.7z"/>
				<path class="st46" d="M12.3,6c0,0.9-0.4,1.6-0.4,1.6S11.5,6.9,11.5,6s0.4-1.6,0.4-1.6S12.3,5.2,12.3,6z"/>
				<path class="st31" d="M12.2,6.3c0,0.7-0.4,1.3-0.4,1.3S11.5,7,11.5,6.3S11.9,5,11.9,5S12.2,5.6,12.2,6.3z"/>
				<path class="st47" d="M12.2,6.6c0,0.4-0.1,0.7-0.3,1c-0.2-0.3-0.3-0.7-0.3-1c0-0.4,0.1-0.7,0.3-1C12.1,5.9,12.2,6.3,12.2,6.6z"
					/>
				<path class="st48" d="M12.1,6.9c0,0.3-0.1,0.5-0.2,0.7c-0.3-0.4-0.3-1,0-1.4C12,6.4,12.1,6.6,12.1,6.9z"/>
				<path class="st29" d="M12,7.2c0,0.2,0,0.3-0.1,0.4c-0.2-0.3-0.2-0.6,0-0.9C12,6.9,12,7,12,7.2z"/>
			</g>
			<g>
				<path class="st33" d="M12.5,18.4c0-1.2-0.6-2.2-0.6-2.2s-0.6,1-0.6,2.2c0,1.2,0.6,2.2,0.6,2.2S12.5,19.6,12.5,18.4z"/>
				<path class="st45" d="M12.4,18.2c0-1-0.5-1.9-0.5-1.9s-0.5,0.8-0.5,1.9c0,1,0.5,1.9,0.5,1.9S12.4,19.2,12.4,18.2z"/>
				<path class="st46" d="M12.3,17.9c0-0.9-0.4-1.6-0.4-1.6s-0.4,0.7-0.4,1.6s0.4,1.6,0.4,1.6S12.3,18.7,12.3,17.9z"/>
				<path class="st31" d="M12.2,17.6c0-0.7-0.4-1.3-0.4-1.3s-0.4,0.6-0.4,1.3c0,0.7,0.4,1.3,0.4,1.3S12.2,18.3,12.2,17.6z"/>
				<path class="st47" d="M12.2,17.3c0-0.4-0.1-0.7-0.3-1c-0.4,0.6-0.4,1.4,0,2C12.1,18,12.2,17.6,12.2,17.3z"/>
				<path class="st48" d="M12.1,17c0-0.3-0.1-0.5-0.2-0.7c-0.3,0.4-0.3,1,0,1.4C12,17.5,12.1,17.2,12.1,17z"/>
				<path class="st29" d="M12,16.7c0-0.2,0-0.3-0.1-0.4c-0.2,0.3-0.2,0.6,0,0.9C12,17,12,16.9,12,16.7z"/>
			</g>
			<g>
				<path class="st33" d="M6.6,8.2c1,0.6,1.6,1.6,1.6,1.6S7,9.8,6,9.2S4.4,7.6,4.4,7.6S5.5,7.6,6.6,8.2z"/>
				<path class="st45" d="M6.8,8.4c0.9,0.5,1.4,1.4,1.4,1.4s-1,0-1.9-0.5S4.9,7.9,4.9,7.9S5.9,7.9,6.8,8.4z"/>
				<path class="st46" d="M7,8.6c0.8,0.4,1.2,1.2,1.2,1.2s-0.8,0-1.6-0.4S5.4,8.2,5.4,8.2S6.2,8.2,7,8.6z"/>
				<path class="st31" d="M7.2,8.8c0.6,0.4,0.9,1,0.9,1s-0.7,0-1.3-0.3s-0.9-1-0.9-1S6.6,8.5,7.2,8.8z"/>
				<path class="st47" d="M7.4,9C7.7,9.2,8,9.5,8.1,9.8c-0.7,0-1.4-0.4-1.7-1C6.8,8.8,7.1,8.9,7.4,9z"/>
				<path class="st48" d="M7.6,9.3C7.8,9.4,8,9.6,8.1,9.8c-0.5,0-1-0.3-1.2-0.7C7.2,9.1,7.4,9.1,7.6,9.3z"/>
				<path class="st29" d="M7.8,9.5C8,9.5,8.1,9.7,8.1,9.8c-0.3,0-0.6-0.2-0.7-0.4C7.6,9.4,7.7,9.4,7.8,9.5z"/>
			</g>
			<g>
				<path class="st33" d="M17.8,14.7c-1-0.6-2.2-0.6-2.2-0.6s0.5,1,1.6,1.6c1,0.6,2.2,0.6,2.2,0.6S18.8,15.3,17.8,14.7z"/>
				<path class="st45" d="M17.5,14.6c-0.9-0.5-1.9-0.5-1.9-0.5s0.5,0.9,1.4,1.4c0.9,0.5,1.9,0.5,1.9,0.5S18.4,15.1,17.5,14.6z"/>
				<path class="st46" d="M17.2,14.5c-0.8-0.4-1.6-0.4-1.6-0.4s0.4,0.7,1.2,1.2s1.6,0.4,1.6,0.4S18,15,17.2,14.5z"/>
				<path class="st31" d="M16.9,14.5c-0.6-0.4-1.3-0.3-1.3-0.3s0.3,0.6,0.9,1c0.6,0.4,1.3,0.3,1.3,0.3S17.6,14.8,16.9,14.5z"/>
				<path class="st47" d="M16.7,14.4c-0.3-0.2-0.7-0.3-1-0.3c0.4,0.6,1,1,1.7,1C17.2,14.8,17,14.6,16.7,14.4z"/>
				<path class="st48" d="M16.4,14.3c-0.2-0.1-0.5-0.2-0.7-0.2c0.3,0.4,0.7,0.7,1.2,0.7C16.8,14.6,16.6,14.4,16.4,14.3z"/>
				<path class="st29" d="M16.1,14.2c-0.1-0.1-0.3-0.1-0.4-0.1c0.2,0.3,0.4,0.4,0.7,0.4C16.3,14.4,16.2,14.3,16.1,14.2z"/>
			</g>
			<g>
				<path class="st33" d="M6,14.7c1-0.6,2.2-0.6,2.2-0.6s-0.5,1-1.6,1.6c-1,0.6-2.2,0.6-2.2,0.6S4.9,15.3,6,14.7z"/>
				<path class="st45" d="M6.3,14.6c0.9-0.5,1.9-0.5,1.9-0.5S7.7,15,6.8,15.5S4.9,16,4.9,16S5.4,15.1,6.3,14.6z"/>
				<path class="st46" d="M6.6,14.5c0.8-0.4,1.6-0.4,1.6-0.4S7.7,14.8,7,15.3s-1.6,0.4-1.6,0.4S5.8,15,6.6,14.5z"/>
				<path class="st31" d="M6.9,14.5c0.6-0.4,1.3-0.3,1.3-0.3s-0.3,0.6-0.9,1c-0.6,0.4-1.3,0.3-1.3,0.3S6.2,14.8,6.9,14.5z"/>
				<path class="st47" d="M7.1,14.4c0.3-0.2,0.7-0.3,1-0.3c-0.2,0.3-0.4,0.6-0.7,0.7c-0.3,0.2-0.7,0.3-1,0.3
					C6.6,14.8,6.8,14.6,7.1,14.4z"/>
				<path class="st48" d="M7.4,14.3c0.2-0.1,0.5-0.2,0.7-0.2c-0.3,0.4-0.7,0.7-1.2,0.7C7,14.6,7.2,14.4,7.4,14.3z"/>
				<path class="st29" d="M7.7,14.2c0.1-0.1,0.3-0.1,0.4-0.1c-0.2,0.3-0.4,0.4-0.7,0.4C7.5,14.4,7.6,14.3,7.7,14.2z"/>
			</g>
			<g>
				<path class="st33" d="M17.2,8.2c-1,0.6-1.6,1.6-1.6,1.6s1.1,0,2.2-0.6s1.6-1.6,1.6-1.6S18.3,7.6,17.2,8.2z"/>
				<path class="st45" d="M17,8.4c-0.9,0.5-1.4,1.4-1.4,1.4s1,0,1.9-0.5c0.9-0.5,1.4-1.4,1.4-1.4S17.9,7.9,17,8.4z"/>
				<path class="st46" d="M16.8,8.6c-0.8,0.4-1.2,1.2-1.2,1.2s0.8,0,1.6-0.4c0.8-0.4,1.2-1.2,1.2-1.2S17.6,8.2,16.8,8.6z"/>
				<path class="st31" d="M16.6,8.8c-0.6,0.4-0.9,1-0.9,1s0.7,0,1.3-0.3c0.6-0.4,0.9-1,0.9-1S17.2,8.5,16.6,8.8z"/>
				<path class="st47" d="M16.4,9c-0.3,0.2-0.6,0.4-0.7,0.7c0.7,0,1.4-0.4,1.7-1C17,8.8,16.7,8.9,16.4,9z"/>
				<path class="st48" d="M16.2,9.3c-0.2,0.1-0.4,0.3-0.5,0.5c0.5,0,1-0.3,1.2-0.7C16.6,9.1,16.4,9.1,16.2,9.3z"/>
				<path class="st29" d="M16,9.5c-0.1,0.1-0.2,0.2-0.3,0.3c0.3,0,0.6-0.2,0.7-0.4C16.2,9.4,16.1,9.4,16,9.5z"/>
			</g>
		</g>
		<path class="st29" d="M11.9,3.4c0.1,0.2,0.5,1.1,0.5,2.1S12,7.3,11.9,7.5c-0.1-0.2-0.5-1.1-0.5-2.1S11.8,3.6,11.9,3.4 M11.9,3.3
			c0,0-0.6,1-0.6,2.2s0.6,2.2,0.6,2.2s0.6-1,0.6-2.2S11.9,3.3,11.9,3.3z"/>
		<path class="st29" d="M11.9,16.4c0.1,0.2,0.5,1.1,0.5,2.1s-0.4,1.8-0.5,2.1c-0.1-0.2-0.5-1.1-0.5-2.1S11.8,16.6,11.9,16.4
			 M11.9,16.3c0,0-0.6,1-0.6,2.2c0,1.2,0.6,2.2,0.6,2.2s0.6-1,0.6-2.2S11.9,16.3,11.9,16.3z"/>
		<path class="st29" d="M4.5,7.7c0.3,0,1.2,0.1,2.1,0.6s1.4,1.3,1.5,1.5C7.8,9.7,6.9,9.7,6,9.2C5.1,8.7,4.6,7.9,4.5,7.7 M4.4,7.6
			L4.4,7.6c0,0,0.5,1,1.6,1.6c1,0.6,2,0.6,2.2,0.6h0c0,0-0.5-1-1.6-1.6C5.6,7.6,4.6,7.6,4.4,7.6L4.4,7.6z"/>
		<path class="st29" d="M15.7,14.2c0.3,0,1.2,0.1,2.1,0.6c0.9,0.5,1.4,1.3,1.5,1.5c-0.3,0-1.2-0.1-2.1-0.6S15.9,14.4,15.7,14.2
			 M15.7,14.1L15.7,14.1c0,0,0.5,1,1.6,1.6c1,0.6,2,0.6,2.2,0.6h0c0,0-0.5-1-1.6-1.6C16.8,14.1,15.8,14.1,15.7,14.1L15.7,14.1z"/>
		<path class="st29" d="M8.1,14.2c-0.1,0.2-0.7,1-1.5,1.5s-1.8,0.6-2.1,0.6c0.1-0.2,0.7-1,1.5-1.5S7.8,14.2,8.1,14.2 M8.1,14.1
			c-0.1,0-1.2,0-2.2,0.6c-1,0.6-1.6,1.6-1.6,1.6h0c0.1,0,1.2,0,2.2-0.6C7.6,15.1,8.1,14.1,8.1,14.1L8.1,14.1z"/>
		<path class="st29" d="M19.3,7.7c-0.1,0.2-0.7,1-1.5,1.5c-0.9,0.5-1.8,0.6-2.1,0.6c0.1-0.2,0.7-1,1.5-1.5
			C18.1,7.7,19.1,7.7,19.3,7.7 M19.4,7.6c-0.1,0-1.2,0-2.2,0.6c-1,0.6-1.6,1.6-1.6,1.6h0c0.1,0,1.2,0,2.2-0.6
			C18.8,8.6,19.4,7.6,19.4,7.6L19.4,7.6z"/>
	</g>
	<g id="_ÎÓÈ_6">
		<g>
			<circle class="st33" cx="11.9" cy="11.9" r="0.3"/>
			<circle class="st32" cx="11.9" cy="11.9" r="0.3"/>
			<circle class="st31" cx="11.9" cy="11.9" r="0.2"/>
			<circle class="st30" cx="11.9" cy="11.9" r="0.1"/>
			<circle class="st29" cx="11.9" cy="11.9" r="0.1"/>
		</g>
		<g>
			<circle class="st33" cx="11.9" cy="3.3" r="0.3"/>
			<circle class="st32" cx="11.9" cy="3.3" r="0.3"/>
			<circle class="st31" cx="11.9" cy="3.3" r="0.2"/>
			<circle class="st30" cx="11.9" cy="3.3" r="0.1"/>
			<circle class="st29" cx="11.9" cy="3.3" r="0.1"/>
		</g>
		<g>
			<circle class="st33" cx="11.9" cy="20.6" r="0.3"/>
			<circle class="st32" cx="11.9" cy="20.6" r="0.3"/>
			<circle class="st31" cx="11.9" cy="20.6" r="0.2"/>
			<circle class="st30" cx="11.9" cy="20.6" r="0.1"/>
			<circle class="st29" cx="11.9" cy="20.6" r="0.1"/>
		</g>
		<g>
			<circle class="st33" cx="4.4" cy="7.6" r="0.3"/>
			<circle class="st32" cx="4.4" cy="7.6" r="0.3"/>
			<circle class="st31" cx="4.4" cy="7.6" r="0.2"/>
			<circle class="st30" cx="4.4" cy="7.6" r="0.1"/>
			<circle class="st29" cx="4.4" cy="7.6" r="0.1"/>
		</g>
		<g>
			<circle class="st33" cx="19.4" cy="16.3" r="0.3"/>
			<circle class="st32" cx="19.4" cy="16.3" r="0.3"/>
			<circle class="st31" cx="19.4" cy="16.3" r="0.2"/>
			<circle class="st30" cx="19.4" cy="16.3" r="0.1"/>
			<circle class="st29" cx="19.4" cy="16.3" r="0.1"/>
		</g>
		<g>
			<circle class="st33" cx="4.4" cy="16.3" r="0.3"/>
			<circle class="st32" cx="4.4" cy="16.3" r="0.3"/>
			<circle class="st31" cx="4.4" cy="16.3" r="0.2"/>
			<circle class="st30" cx="4.4" cy="16.3" r="0.1"/>
			<circle class="st29" cx="4.4" cy="16.3" r="0.1"/>
		</g>
		<g>
			<circle class="st33" cx="19.4" cy="7.6" r="0.3"/>
			<circle class="st32" cx="19.4" cy="7.6" r="0.3"/>
			<circle class="st31" cx="19.4" cy="7.6" r="0.2"/>
			<circle class="st30" cx="19.4" cy="7.6" r="0.1"/>
			<circle class="st29" cx="19.4" cy="7.6" r="0.1"/>
		</g>
		<g>
			<circle class="st33" cx="11.9" cy="2.4" r="0.3"/>
			<circle class="st32" cx="11.9" cy="2.4" r="0.2"/>
			<circle class="st31" cx="11.9" cy="2.4" r="0.2"/>
			<circle class="st30" cx="11.9" cy="2.4" r="0.1"/>
			<circle class="st29" cx="11.9" cy="2.4" r="0.1"/>
		</g>
		<g>
			<circle class="st33" cx="11.9" cy="1.6" r="0.2"/>
			<circle class="st32" cx="11.9" cy="1.6" r="0.2"/>
			<circle class="st31" cx="11.9" cy="1.6" r="0.1"/>
			<circle class="st30" cx="11.9" cy="1.6" r="0.1"/>
			<circle class="st29" cx="11.9" cy="1.6" r="0.1"/>
		</g>
		<g>
			<circle class="st33" cx="11.9" cy="21.5" r="0.3"/>
			<circle class="st32" cx="11.9" cy="21.5" r="0.2"/>
			<circle class="st31" cx="11.9" cy="21.5" r="0.2"/>
			<circle class="st30" cx="11.9" cy="21.5" r="0.1"/>
			<circle class="st29" cx="11.9" cy="21.5" r="0.1"/>
		</g>
		<g>
			<circle class="st33" cx="11.9" cy="22.2" r="0.2"/>
			<circle class="st32" cx="11.9" cy="22.2" r="0.2"/>
			<circle class="st31" cx="11.9" cy="22.2" r="0.1"/>
			<circle class="st30" cx="11.9" cy="22.2" r="0.1"/>
			<circle class="st29" cx="11.9" cy="22.2" r="0.1"/>
		</g>
		<g>
			<path class="st33" d="M3.8,6.9C3.9,7,4,7.2,3.9,7.3C3.8,7.5,3.6,7.5,3.5,7.4C3.4,7.4,3.3,7.2,3.4,7C3.5,6.9,3.7,6.8,3.8,6.9
				C3.8,6.9,3.8,6.9,3.8,6.9z"/>
			<path class="st32" d="M3.8,7C3.9,7,3.9,7.2,3.9,7.3S3.6,7.5,3.5,7.4C3.4,7.3,3.4,7.2,3.4,7.1c0,0,0,0,0,0C3.5,6.9,3.7,6.9,3.8,7
				C3.8,7,3.8,7,3.8,7z"/>
			<path class="st31" d="M3.7,7c0.1,0.1,0.1,0.2,0.1,0.3C3.8,7.4,3.6,7.4,3.6,7.3C3.5,7.3,3.4,7.2,3.5,7.1c0,0,0,0,0,0
				C3.5,7,3.7,7,3.7,7z"/>
			<path class="st30" d="M3.7,7.1c0.1,0,0.1,0.1,0,0.2c0,0.1-0.1,0.1-0.2,0c-0.1,0-0.1-0.1,0-0.2c0,0,0,0,0,0C3.6,7.1,3.7,7,3.7,7.1
				z"/>
			<path class="st29" d="M3.7,7.1C3.7,7.1,3.7,7.2,3.7,7.1c0,0.1,0,0.1-0.1,0.1C3.6,7.2,3.6,7.2,3.7,7.1C3.6,7.2,3.6,7.2,3.7,7.1
				C3.6,7.1,3.7,7.1,3.7,7.1z"/>
		</g>
		<g>
			<path class="st33" d="M3.1,6.6c0.1,0.1,0.1,0.2,0.1,0.3C3.1,7,3,7,2.9,7C2.8,6.9,2.7,6.8,2.8,6.7c0,0,0,0,0,0
				C2.9,6.6,3,6.6,3.1,6.6z"/>
			<path class="st32" d="M3.1,6.6c0.1,0,0.1,0.2,0.1,0.2C3.1,7,3,7,2.9,7c-0.1,0-0.1-0.2-0.1-0.2C2.9,6.6,3,6.6,3.1,6.6
				C3.1,6.6,3.1,6.6,3.1,6.6z"/>
			<path class="st31" d="M3,6.7c0.1,0,0.1,0.1,0.1,0.2C3.1,6.9,3,7,2.9,6.9c-0.1,0-0.1-0.1-0.1-0.2C2.9,6.7,3,6.6,3,6.7
				C3,6.7,3,6.7,3,6.7z"/>
			<path class="st30" d="M3,6.7c0,0,0.1,0.1,0,0.1c0,0-0.1,0.1-0.1,0c0,0-0.1-0.1,0-0.1C2.9,6.7,3,6.7,3,6.7C3,6.7,3,6.7,3,6.7z"/>
			<path class="st29" d="M3,6.7C3,6.8,3.1,6.8,3,6.7c0,0.1,0,0.1-0.1,0.1S2.9,6.8,3,6.7C2.9,6.7,3,6.7,3,6.7C3,6.7,3,6.7,3,6.7z"/>
		</g>
		<g>
			<path class="st33" d="M20.3,16.4c-0.1-0.1-0.3,0-0.4,0.1s0,0.3,0.1,0.4s0.3,0,0.4-0.1c0,0,0,0,0,0C20.5,16.7,20.4,16.5,20.3,16.4
				z"/>
			<path class="st32" d="M20.3,16.5c-0.1-0.1-0.3,0-0.3,0.1s0,0.3,0.1,0.3s0.3,0,0.3-0.1c0,0,0,0,0,0C20.4,16.7,20.4,16.6,20.3,16.5
				C20.3,16.5,20.3,16.5,20.3,16.5z"/>
			<path class="st31" d="M20.2,16.5c-0.1-0.1-0.2,0-0.3,0.1c-0.1,0.1,0,0.2,0.1,0.3c0.1,0.1,0.2,0,0.3-0.1
				C20.4,16.7,20.3,16.6,20.2,16.5C20.2,16.5,20.2,16.5,20.2,16.5z"/>
			<path class="st30" d="M20.2,16.6c-0.1,0-0.1,0-0.2,0c0,0.1,0,0.1,0,0.2c0.1,0,0.1,0,0.2,0C20.3,16.7,20.3,16.6,20.2,16.6
				C20.2,16.6,20.2,16.6,20.2,16.6z"/>
			<path class="st29" d="M20.2,16.7C20.1,16.6,20.1,16.6,20.2,16.7c-0.1,0.1-0.1,0.1-0.1,0.1C20.1,16.8,20.2,16.8,20.2,16.7
				C20.2,16.7,20.2,16.7,20.2,16.7C20.2,16.7,20.2,16.7,20.2,16.7z"/>
		</g>
		<g>
			<path class="st33" d="M20.9,16.9c-0.1-0.1-0.2,0-0.3,0.1c-0.1,0.1,0,0.2,0.1,0.3c0.1,0.1,0.2,0,0.3-0.1c0,0,0,0,0,0
				C21.1,17.1,21,17,20.9,16.9z"/>
			<path class="st32" d="M20.9,16.9c-0.1,0-0.2,0-0.2,0.1s0,0.2,0.1,0.2c0.1,0,0.2,0,0.2-0.1C21,17.1,21,17,20.9,16.9z"/>
			<path class="st31" d="M20.9,17c-0.1,0-0.2,0-0.2,0.1c0,0.1,0,0.2,0.1,0.2c0.1,0,0.2,0,0.2-0.1C21,17.1,21,17,20.9,17
				C20.9,17,20.9,17,20.9,17z"/>
			<path class="st30" d="M20.9,17c0,0-0.1,0-0.1,0c0,0,0,0.1,0,0.1c0,0,0.1,0,0.1,0C20.9,17.1,20.9,17,20.9,17
				C20.9,17,20.9,17,20.9,17z"/>
			<path class="st29" d="M20.8,17C20.8,17,20.8,17,20.8,17c-0.1,0.1-0.1,0.1-0.1,0.1S20.9,17.2,20.8,17C20.9,17.1,20.9,17.1,20.8,17
				C20.9,17.1,20.9,17.1,20.8,17z"/>
		</g>
		<g>
			<path class="st33" d="M3.5,16.4c0.1-0.1,0.3,0,0.4,0.1c0.1,0.1,0,0.3-0.1,0.4c-0.1,0.1-0.3,0-0.4-0.1c0,0,0,0,0,0
				C3.3,16.7,3.4,16.5,3.5,16.4z"/>
			<path class="st32" d="M3.5,16.5c0.1-0.1,0.3,0,0.3,0.1c0.1,0.1,0,0.3-0.1,0.3s-0.3,0-0.3-0.1c0,0,0,0,0,0
				C3.4,16.7,3.4,16.6,3.5,16.5z"/>
			<path class="st31" d="M3.6,16.5c0.1-0.1,0.2,0,0.3,0.1s0,0.2-0.1,0.3c-0.1,0.1-0.2,0-0.3-0.1C3.4,16.7,3.5,16.6,3.6,16.5z"/>
			<path class="st30" d="M3.6,16.6c0.1,0,0.1,0,0.2,0c0,0.1,0,0.1,0,0.2c-0.1,0-0.1,0-0.2,0C3.5,16.7,3.5,16.6,3.6,16.6z"/>
			<path class="st29" d="M3.6,16.7C3.7,16.6,3.7,16.6,3.6,16.7c0.1,0.1,0.1,0.1,0.1,0.1C3.7,16.8,3.6,16.8,3.6,16.7
				C3.6,16.7,3.6,16.7,3.6,16.7C3.6,16.7,3.6,16.7,3.6,16.7z"/>
		</g>
		<g>
			<path class="st33" d="M2.9,16.9c0.1-0.1,0.2,0,0.3,0.1c0.1,0.1,0,0.2-0.1,0.3s-0.2,0-0.3-0.1c0,0,0,0,0,0
				C2.7,17.1,2.8,17,2.9,16.9z"/>
			<path class="st32" d="M2.9,16.9c0.1,0,0.2,0,0.2,0.1c0,0.1,0,0.2-0.1,0.2c-0.1,0-0.2,0-0.2-0.1C2.8,17.1,2.8,17,2.9,16.9z"/>
			<path class="st31" d="M2.9,17c0.1,0,0.2,0,0.2,0.1c0,0.1,0,0.2-0.1,0.2c-0.1,0-0.2,0-0.2-0.1C2.8,17.1,2.8,17,2.9,17
				C2.9,17,2.9,17,2.9,17z"/>
			<path class="st30" d="M2.9,17c0,0,0.1,0,0.1,0c0,0,0,0.1,0,0.1c0,0-0.1,0-0.1,0C2.9,17.1,2.9,17,2.9,17C2.9,17,2.9,17,2.9,17z"/>
			<path class="st29" d="M2.9,17C3,17,3,17,2.9,17C3.1,17.1,3,17.1,3,17.2C3,17.2,2.9,17.2,2.9,17C2.9,17.1,2.9,17.1,2.9,17z"/>
		</g>
		<g>
			<path class="st33" d="M20,6.9c-0.1,0.1-0.2,0.3-0.1,0.4s0.3,0.2,0.4,0.1c0.1-0.1,0.2-0.3,0.1-0.4c0,0,0,0,0,0
				C20.3,6.9,20.1,6.8,20,6.9z"/>
			<path class="st32" d="M20,7c-0.1,0.1-0.2,0.2-0.1,0.3c0.1,0.1,0.2,0.2,0.3,0.1c0.1-0.1,0.2-0.2,0.1-0.3C20.3,6.9,20.1,6.9,20,7
				C20,7,20,7,20,7z"/>
			<path class="st31" d="M20.1,7C20,7.1,19.9,7.2,20,7.3c0.1,0.1,0.2,0.1,0.3,0.1c0.1-0.1,0.1-0.2,0.1-0.3C20.3,7,20.1,7,20.1,7
				C20.1,7,20.1,7,20.1,7z"/>
			<path class="st30" d="M20.1,7.1c-0.1,0-0.1,0.1,0,0.2c0,0.1,0.1,0.1,0.2,0c0.1,0,0.1-0.1,0-0.2c0,0,0,0,0,0
				C20.2,7.1,20.1,7,20.1,7.1z"/>
			<path class="st29" d="M20.1,7.1C20.1,7.1,20.1,7.2,20.1,7.1c0,0.1,0,0.1,0.1,0.1C20.2,7.2,20.2,7.2,20.1,7.1
				C20.2,7.1,20.1,7.1,20.1,7.1z"/>
		</g>
		<g>
			<path class="st33" d="M20.7,6.6c-0.1,0.1-0.1,0.2-0.1,0.3C20.7,7,20.8,7,20.9,7C21,6.9,21.1,6.8,21,6.7c0,0,0,0,0,0
				C20.9,6.6,20.8,6.6,20.7,6.6z"/>
			<path class="st32" d="M20.7,6.6c-0.1,0-0.1,0.2-0.1,0.2C20.7,7,20.8,7,20.9,7C21,6.9,21,6.8,21,6.7C20.9,6.6,20.8,6.6,20.7,6.6
				C20.7,6.6,20.7,6.6,20.7,6.6z"/>
			<path class="st31" d="M20.7,6.7c-0.1,0-0.1,0.1-0.1,0.2c0,0.1,0.1,0.1,0.2,0.1c0.1,0,0.1-0.1,0.1-0.2C20.9,6.7,20.8,6.6,20.7,6.7
				C20.7,6.7,20.7,6.7,20.7,6.7z"/>
			<path class="st30" d="M20.8,6.7c0,0-0.1,0.1,0,0.1c0,0,0.1,0.1,0.1,0c0,0,0.1-0.1,0-0.1C20.9,6.7,20.8,6.7,20.8,6.7
				C20.8,6.7,20.8,6.7,20.8,6.7z"/>
			<path class="st29" d="M20.8,6.7C20.8,6.8,20.7,6.8,20.8,6.7c0,0.1,0,0.1,0.1,0.1C20.9,6.8,20.9,6.8,20.8,6.7
				C20.9,6.8,20.9,6.8,20.8,6.7C20.9,6.7,20.8,6.7,20.8,6.7z"/>
		</g>
	</g>
</g>
</svg>
